<svg width="233" height="544" viewBox="0 0 233 544" fill="none" xmlns="http://www.w3.org/2000/svg">
<path d="M29.5189 567.962C29.5524 533.947 31.285 499.821 33.4088 465.762C34.5266 447.922 35.6667 429.915 40.5738 412.723C58.0561 411.057 75.5607 409.604 93.0654 408.129C107.988 406.866 121.938 404.295 136.939 405.1C149.648 436.018 157.148 468.769 164.593 501.353C169.176 519.662 173.01 538.195 177.213 556.605C178.353 561.568 179.214 569.627 181.963 573.841C174.083 573.573 166.203 573.305 158.311 573.16C147.759 572.97 136.57 571.952 126.085 572.534C118.149 541.571 108.916 510.932 98.4308 480.741C92.3276 482.216 92.1711 481.59 91.2322 486.989C90.3938 491.829 90.9751 497.34 90.9863 502.236C90.9974 511.133 91.5116 520.098 91.2098 528.996C90.718 543.527 90.1926 558.159 89.4437 572.768C86.6492 571.136 83.0052 573.204 79.9984 573.461C74.7224 573.92 68.9434 572.97 63.6115 572.936C52.2436 572.88 40.8645 573.271 29.5077 572.634C29.5077 571.069 29.5077 569.504 29.5077 567.951L29.5189 567.962Z" fill="#304FC9"/>
<path d="M94.5522 226.767C95.29 232.367 96.6537 238.705 96.4636 244.338C89.0191 245.836 81.4405 246.63 73.8507 246.708C73.4707 246.708 73.0459 246.708 72.7553 246.451C72.4535 246.194 72.3752 245.758 72.3305 245.367C71.5928 239.733 72.4758 228.488 67.0545 225.716C63.567 223.927 59.6995 222.843 56.7932 220.149C54.9041 218.383 50.7124 214.448 50.623 211.632C50.69 213.543 49.1698 215.242 47.3814 215.902C45.5929 216.572 43.5921 216.382 41.7365 215.969C30.6257 213.51 16.6644 197.156 24.489 185.475C26.3669 182.681 30.6704 181.373 33.2078 183.586C24.8467 170.877 26.0651 153.104 34.7615 140.629C46.8672 123.259 77.5841 111.075 92.2384 132.022C96.9331 138.74 99.0569 146.856 101.684 154.624C104.344 162.505 107.586 170.184 111.386 177.584C117.724 189.913 124.889 202.835 111.61 213.208C107.027 216.785 101.594 219.087 96.5642 222.005C95.9606 222.351 95.3458 222.731 94.9546 223.301C94.2839 224.285 94.4069 225.582 94.5634 226.767H94.5522Z" fill="#FF7D33"/>
<g style="mix-blend-mode:multiply" opacity="0.39">
<path d="M111.375 212.861C106.457 215.958 101.65 219.065 96.5531 222.016C95.9495 222.363 95.3347 222.743 94.9434 223.313C94.2728 224.296 94.3957 225.593 94.5522 226.778C95.29 232.378 96.6537 238.716 96.4636 244.349C89.0191 245.847 81.4405 246.641 73.8507 246.719C73.4707 246.719 73.0459 246.719 72.7553 246.462C72.4535 246.205 72.3752 245.769 72.3305 245.378C71.5928 239.744 72.4758 228.499 67.0545 225.727C63.567 223.939 59.6995 222.854 56.7932 220.16C54.9041 218.394 50.7124 214.46 50.623 211.643C50.69 213.554 49.1698 215.253 47.3814 215.913C45.5929 216.584 43.5921 216.394 41.7365 215.98C30.6257 213.521 16.6644 197.167 24.489 185.487C26.3669 182.692 30.6704 181.384 33.2078 183.597C24.8467 170.888 26.0651 153.126 34.7615 140.641C41.5689 130.86 53.0151 123.561 64.7519 121.515C70.4526 120.52 76.4663 120.822 81.7982 123.214C86.4147 125.282 93.9374 131.207 86.2582 135.164C84.4027 136.114 82.4801 137.019 80.971 138.461C79.462 139.892 78.4001 141.993 78.7913 144.039C79.1826 146.084 81.407 147.772 83.3743 147.09C80.7028 148.7 77.0364 146.878 75.5609 144.128C74.0854 141.378 74.2084 138.092 74.3537 134.974C75.7398 140.797 70.7768 146.599 65.0537 148.387C63.2764 148.946 61.4097 149.225 59.7553 150.086C58.1122 150.947 56.6814 152.579 56.782 154.434C56.9609 157.654 60.7502 158.782 62.3598 161.119C63.9806 163.466 65.2325 167.244 65.5679 170.095C66.328 176.432 63.2876 183.407 57.5309 186.459C59.5988 190.852 61.6668 195.245 63.7459 199.627C67.4122 207.406 72.1181 211.777 80.4792 214.415C90.897 217.701 102.913 218.171 112.169 212.358C111.912 212.526 111.643 212.682 111.386 212.85L111.375 212.861Z" fill="#FF7D33"/>
</g>
<g style="mix-blend-mode:multiply" opacity="0.69">
<path d="M84.0654 155.518C86.8376 159.285 89.9785 162.762 94.1591 164.718C97.0542 166.048 100.475 166.797 102.766 169.401C104.208 170.843 104.42 173.314 103.012 174.901C100.732 177.494 97.2777 178.645 93.9691 178.299C95.5228 178.098 96.9759 177.461 98.3173 176.7C107.025 171.514 98.3843 168.954 93.2425 166.607C88.8831 164.282 85.6751 160.045 84.0766 155.507L84.0654 155.518Z" fill="#FF7D33"/>
</g>
<path d="M63.477 169.401C63.4546 168.127 63.8458 167.021 64.9077 166.473C65.7126 166.059 66.7074 166.328 67.5122 166.763C69.5913 167.904 70.9438 170.117 71.4915 172.419C71.9722 174.454 71.1227 177.159 68.5965 177.014C67.6687 176.958 66.7968 176.466 66.115 175.829C64.9636 174.756 63.5105 171.771 63.477 169.401Z" fill="#1A2035"/>
<path d="M94.5747 158.089C94.53 157.754 94.4964 157.419 94.4741 157.083C94.4294 156.267 94.6418 154.591 95.7707 154.591C98.3528 154.591 99.873 158.503 100.342 160.537C101.08 163.701 98.8223 164.863 96.6091 162.493C95.4577 161.264 94.8206 159.721 94.5747 158.089Z" fill="#1A2035"/>
<path d="M106.847 175.247C106.847 175.247 106.836 175.147 106.825 175.091C104.187 180.624 101.37 185.531 95.1552 187.577C92.0253 188.605 88.7167 189.007 85.4416 189.141C82.1105 189.276 78.9136 188.907 75.605 189.019C80.4897 192.562 86.2352 194.909 92.2154 195.781C97.346 196.53 103.002 195.613 105.349 190.494C107.518 185.777 107.518 180.333 106.847 175.247Z" fill="white" stroke="#DD4F24" stroke-linejoin="round"/>
<path d="M57.3956 151.785C55.9201 153.037 54.6793 154.691 54.2099 155.775C52.8797 158.838 53.0026 162.572 54.8135 165.422C55.4841 162.639 56.546 159.699 58.9381 158.123C60.8943 156.826 63.3646 156.692 65.6002 155.999C66.092 155.843 66.595 155.652 66.9751 155.295C67.914 154.389 67.6681 152.791 66.9527 151.707C65.589 149.639 62.7274 148.7 60.4136 149.561C60.9725 149.773 61.5314 149.996 62.0903 150.209C60.6483 149.65 58.9046 150.522 57.3956 151.785Z" fill="#1A2035"/>
<path d="M98.318 147.135C97.8038 145.291 96.9543 143.536 95.8365 141.982C94.7187 140.428 92.9973 139.735 91.1083 139.512C89.834 139.366 86.76 139.746 86.6594 141.524C86.6818 141.121 86.7042 140.708 86.7265 140.305C83.4737 142.34 83.932 150.645 88.2355 147.381C90.147 145.928 92.3378 146.308 94.5399 146.14C95.2217 146.084 98.0721 146.241 98.3292 147.124L98.318 147.135Z" fill="#1A2035"/>
<g style="mix-blend-mode:multiply" opacity="0.75">
<path d="M60.0113 184.749C58.5694 185.811 57.2504 187.197 57.0044 188.951C55.8867 196.687 74.1402 189.365 76.89 187.185C77.6501 186.582 78.3766 185.889 78.7902 185.017C79.3938 183.731 79.1591 182.211 77.8624 181.541C75.5374 180.333 72.7765 180.356 70.1832 180.758C66.651 181.295 63.1858 182.502 60.2572 184.559C60.1678 184.614 60.0896 184.682 60.0001 184.737L60.0113 184.749Z" fill="#FF7D33"/>
</g>
<g style="mix-blend-mode:multiply" opacity="0.75">
<path d="M104.991 173.291C105.606 173.996 107.562 174.286 108.221 173.504C109.093 172.464 107.852 170.542 107.271 169.647C106.969 169.189 106.567 168.708 106.019 168.664C105.483 168.619 104.991 169.01 104.756 169.491C104.331 170.363 104.331 172.542 104.98 173.291H104.991Z" fill="#FF7D33"/>
</g>
<g style="mix-blend-mode:multiply">
<path d="M29.5853 200.163C27.9533 197.648 28.4339 193.691 32.2121 194.216C34.9954 194.664 37.0856 196.787 39.0865 198.565C40.9979 200.465 43.0211 202.566 43.7812 205.271C44.5413 207.418 43.4012 209.977 40.7408 209.385C37.9128 208.468 36.7727 205.249 36.3144 202.622C36.1132 200.811 36.3367 198.956 37.0745 197.324C36.5826 199.034 36.4932 200.834 36.8621 202.533C37.0856 204.757 40.2602 210.536 42.7081 207.753C44.3625 204.142 35.4648 195.558 32.1115 194.909C28.8028 194.239 28.4898 197.894 29.5964 200.163H29.5853Z" fill="#FF7D33"/>
</g>
<path d="M102.108 156.703C103.248 159.99 104.488 163.243 106.042 166.328C106.12 166.473 106.199 166.629 106.344 166.719C106.489 166.808 106.679 166.808 106.858 166.797C108.3 166.73 109.91 166.305 110.983 165.266C111.441 164.819 112.905 160.817 112.76 160.839C111.676 161.018 110.547 160.828 109.586 160.303C115.13 159.23 119.601 154.088 119.903 148.454C119.165 149.471 118.159 150.287 117.008 150.79C119.12 148.834 119.914 145.57 118.941 142.854C117.779 144.072 115.968 144.642 114.314 144.285C118.863 142.44 120.92 137.086 121.3 132.19C121.445 130.312 121.412 128.367 120.786 126.59C120.171 124.802 118.897 123.181 117.131 122.488C118.595 126.97 117.455 132.213 114.258 135.678C114.996 134.404 114.761 132.649 113.721 131.609C113.531 135.521 108.077 140.048 107.003 134.068C105.852 127.674 107.462 120.688 104.578 114.853C103.393 112.45 101.515 110.438 99.4248 108.75C93.2322 103.765 84.8153 101.518 77.0466 103.184C69.2779 104.86 62.4035 110.583 59.7655 118.084C54.646 114.686 49.9066 112.953 43.6022 113.59C38.7846 114.071 34.1569 115.759 29.8646 117.983C23.1019 121.482 17.0323 126.367 12.3711 132.391C7.60933 138.528 4.28949 146.062 4.5354 153.82C4.78132 161.577 9.096 169.435 16.194 172.565C12.5835 175.739 6.65921 175.862 2.92578 172.844C3.41761 177.047 7.64287 180.445 11.8569 180.032C8.6377 181.004 5.60848 183.497 5.16137 186.828C4.87074 188.952 5.66437 191.087 6.77099 192.931C10.795 199.671 17.703 203.137 25.4605 201.628C23.9067 201.929 23.0349 197.592 22.9119 196.687C22.3977 192.652 24.1527 187.923 28.4673 186.839C30.4905 186.325 32.6591 186.839 34.5034 187.823C36.3478 188.795 37.9127 190.204 39.4664 191.601C41.1655 193.132 42.708 194.686 44.2394 196.34C45.7372 197.95 48.6994 199.437 49.7278 201.359C47.0898 196.419 44.4406 191.467 41.8026 186.526C45.0554 186.079 48.3305 185.118 50.8679 183.039C53.4053 180.96 55.082 177.617 54.4896 174.387C53.7071 170.095 49.493 167.434 46.8997 163.913C44.9101 161.208 43.8258 157.81 44.1053 154.468C44.3735 151.126 46.0502 147.873 48.7217 145.85C51.4939 143.748 55.0596 143.078 58.4577 142.329C61.8558 141.58 65.4104 140.63 67.8695 138.159C70.6864 135.331 71.2341 129.608 67.7019 127.104C71.357 126.568 75.3587 126.087 78.5333 127.999C79.5728 128.625 80.5453 129.709 80.3441 130.916C80.1205 132.224 78.6898 132.872 77.5608 133.565C74.6769 135.32 72.8214 138.852 73.5367 142.15C74.2521 145.447 77.8626 147.973 81.1154 147.068C79.2263 146.71 77.4714 145.559 76.5659 143.86C75.6605 142.161 75.75 139.948 76.9125 138.416C78.0638 136.919 79.9752 136.281 81.5737 135.264C83.4739 134.057 85.0276 132.101 85.1953 129.854C85.363 127.607 83.8092 125.204 81.5737 124.925C87.3974 125.674 92.8745 133.766 95.4902 138.606C97.2898 141.937 98.4411 145.581 99.6484 149.181C100.487 151.662 101.292 154.177 102.152 156.681L102.108 156.703Z" fill="#1A2035"/>
<path d="M58.3794 221.401C58.7035 221.614 59.0277 221.815 59.3519 222.005C58.6476 224.017 55.6184 225.839 53.4946 225.448C52.3321 225.235 51.2926 224.129 51.4938 222.966C50.3648 225.683 47.045 227.113 44.1722 226.487C41.2995 225.861 38.9969 223.48 37.9908 220.72C39.2987 220.597 40.5953 220.328 41.8584 219.937C40.4388 219.132 38.7957 217.869 39.1422 216.26C41.3666 216.617 43.7363 216.93 45.9495 216.304C46.9667 216.014 51.2032 213.644 50.5101 212.057C52.1533 215.846 54.9366 219.132 58.3906 221.401H58.3794Z" fill="#1A2035"/>
<path d="M208.343 275.849C208.947 276.833 186.043 299.39 183.853 301.726C180.141 305.705 176.386 309.629 172.63 313.563C170.037 316.279 166.951 320.907 163.811 322.897C160.099 306.577 155.449 290.481 149.894 274.686C147.077 266.672 144.104 258.68 140.728 250.877C137.855 244.238 134.547 243.914 127.616 242.695C125.168 242.259 106.289 238.235 105.249 239.599C105.764 238.906 106.267 238.224 106.781 237.531C104.746 237.509 102.902 236.134 101.997 234.368C101.058 232.523 102.209 230.522 101.348 228.958C100.678 227.739 99.0903 227.281 97.7043 227.46C96.3182 227.639 95.0551 228.298 93.7585 228.823C88.8737 230.78 83.5642 230.668 78.4 230.467C75.5943 230.355 66.2384 228.343 65.9366 232.758C65.8136 234.535 66.7973 236.178 67.1103 237.933C67.5909 240.627 65.836 244.271 63.1086 245.132C63.7457 245.836 64.7741 246.172 65.713 245.959C64.3046 245.959 61.1077 248.385 59.6323 249.033C57.0949 250.151 54.6134 251.425 52.1095 252.61C46.9118 255.08 41.714 257.551 36.5051 260.032C33.107 261.642 29.6754 263.285 26.8362 265.755C19.4923 272.127 18.5422 285.518 16.9773 294.516C15.0547 305.504 13.8475 316.592 12.9868 327.703C11.6901 344.325 10.4159 360.857 9.3316 377.501C8.82859 385.158 7.53196 391.563 9.3316 399.331C9.48809 400.024 9.70047 400.773 10.2594 401.221C10.9189 401.746 11.8578 401.712 12.6962 401.634C21.0461 400.863 29.3177 399.242 37.3323 396.794C37.1087 398.024 36.8181 399.331 36.5051 400.673C35.4209 405.289 34.046 410.364 33.8336 414.511C33.6883 417.686 34.8508 421.073 37.4441 422.906C35.1303 425.32 32.8164 427.735 30.5026 430.149C37.0081 432.955 43.7708 435.157 50.6676 436.71C63.9246 439.695 79.9537 439.986 93.5908 439.874C108.983 439.751 124.498 437.471 138.705 431.345C141.488 430.138 144.305 428.729 146.25 426.393C148.195 424.057 149.044 420.569 147.547 417.931C146.149 415.472 142.964 414.019 142.55 411.214C142.327 409.716 142.986 408.263 143.5 406.843C147.222 396.436 142.919 387.025 142.192 376.774C141.779 370.872 141.98 364.702 142.405 358.8C145.322 363.361 149.257 367.15 153.158 370.906C155.36 373.03 157.976 375.299 161.027 375.019C163.799 374.762 165.878 372.482 167.667 370.358C172.384 364.758 177.515 359.359 181.796 353.457C194.561 335.874 207.438 318.448 219.577 300.373C219.834 299.982 220.103 299.568 220.103 299.099C220.103 298.752 219.935 298.439 219.79 298.127C216.023 290.648 212.613 283.126 208.377 275.871L208.343 275.849Z" fill="white"/>
<path opacity="0.67" d="M208.344 275.849C208.948 276.833 186.044 299.39 183.853 301.726C180.142 305.705 176.386 309.629 172.631 313.563C170.037 316.279 166.952 320.907 163.811 322.897C160.1 306.577 155.45 290.481 149.895 274.686C147.257 267.186 145.133 256.757 139.723 250.743C140.136 258.903 139.745 268.963 140.986 277C139.466 267.13 137.085 257.383 133.91 247.904C135.419 258.78 135.185 269.902 133.217 280.711C132.893 282.511 132.502 284.333 131.552 285.887C129.987 288.458 127.137 289.933 125.035 292.102C120.72 296.562 120.016 303.447 116.417 308.511C113.991 311.942 110.392 314.323 106.86 316.592C95.4918 323.892 82.7266 331.068 69.3131 329.458C85.6664 319.957 103.26 309.014 109.386 291.118C98.3198 300.977 83.8668 306.946 69.0784 307.773C91.0654 299.423 110.068 283.416 122.039 263.173C124.879 258.367 127.416 252.901 126.477 247.401C121.425 255.606 113.645 262.1 104.658 265.588C111.454 261.418 117.49 256.008 122.375 249.704C104.881 259.786 83.0731 262.078 63.8695 255.829C72.2417 255.572 80.5916 254.398 88.7068 252.342C95.3242 250.665 102.802 247.312 104.132 240.605C97.6268 244.282 89.9923 245.926 82.559 245.266C88.9863 242.416 94.7541 238.079 99.2811 232.691C89.0645 239.543 78.2107 238.57 67.0775 235.351C67.0328 235.888 65.4456 247.725 63.0758 245.098C63.713 245.803 64.7413 246.127 65.6691 245.926C64.2607 245.926 61.0638 248.351 59.5883 249C57.0509 250.117 54.5694 251.392 52.0656 252.576C44.4199 256.209 35.1981 259.238 28.5696 264.604C36.1594 262.491 43.7045 265.722 47.8515 272.507C51.6296 278.677 52.3115 286.2 52.6245 293.421C53.2728 308.243 52.7921 323.12 51.1713 337.875C49.7741 350.562 49.9753 363.283 45.5488 375.467C40.8765 388.332 34.4827 400.46 33.7561 414.466C33.6108 417.641 34.7733 421.028 37.3666 422.861C35.0528 425.275 32.7389 427.69 30.4251 430.104C36.9307 432.91 43.6933 435.112 50.5901 436.666C63.8471 439.65 79.8763 439.941 93.5133 439.829C108.905 439.706 124.42 437.426 138.627 431.3C141.411 430.093 144.228 428.685 146.173 426.348C148.117 424.012 148.967 420.525 147.469 417.887C146.072 415.428 142.886 413.974 142.473 411.169C142.249 409.671 142.909 408.218 143.423 406.798C145.904 399.924 144.854 392.602 143.222 385.672C141.176 392.356 135.71 397.901 129.048 400.024C131.317 397.073 133.206 393.821 134.648 390.389C125.829 395.319 116.663 400.36 106.603 401.176C114.461 396.235 122.241 391.037 128.735 384.409C135.654 377.344 140.617 368.782 142.394 359.013C145.759 363.204 149.202 367.117 153.092 370.872C155.294 372.996 157.909 375.265 160.961 374.986C163.733 374.729 165.812 372.448 167.601 370.325C172.318 364.725 177.448 359.326 181.729 353.424C194.495 335.841 207.372 318.414 219.511 300.34C219.768 299.948 220.036 299.535 220.036 299.065C220.036 298.719 219.869 298.406 219.723 298.093C215.956 290.615 212.547 283.092 208.311 275.838L208.344 275.849Z" fill="#B8E7EC"/>
<g style="mix-blend-mode:multiply">
<path d="M36.5394 264.124C54.4353 265.61 53.5634 289.296 53.9211 302.62C53.9323 310.355 53.787 318.091 53.3846 325.814C52.971 333.538 52.3785 341.251 51.5402 348.93C51.842 342.034 52.345 332.566 52.5239 325.781C52.7474 318.068 52.9039 310.344 52.8033 302.631C52.468 289.386 53.8652 266.437 36.5394 264.124Z" fill="#B8E7EC"/>
</g>
<g style="mix-blend-mode:multiply">
<path d="M71.5144 248.016C80.535 249.29 90.3604 250.699 98.4756 245.568C99.6269 244.908 100.7 244.126 101.762 243.31C94.0044 252.074 81.7422 251.258 71.5256 248.016H71.5144Z" fill="#B8E7EC"/>
</g>
<g style="mix-blend-mode:multiply">
<path d="M58.4698 257.707C74.6667 265.129 93.7809 265.532 110.302 258.915L113.812 257.405L117.232 255.684C115.41 256.891 112.526 258.434 110.525 259.418C94.1721 266.884 74.2531 266.471 58.481 257.707H58.4698Z" fill="#B8E7EC"/>
</g>
<g style="mix-blend-mode:multiply">
<path d="M133.251 246.697C134.179 248.139 134.458 250.721 134.928 252.364L136.291 258.121C137.197 261.966 137.979 265.867 138.337 269.835C138.751 275.816 138.404 281.662 138.594 287.608C138.605 289.576 138.706 291.543 138.818 293.521C138.46 291.576 138.248 289.609 138.046 287.642C137.499 281.762 137.633 275.804 137.23 269.936C136.906 266.046 136.169 262.178 135.464 258.3L134.402 252.476C134.078 250.81 133.989 248.24 133.251 246.697Z" fill="#B8E7EC"/>
</g>
<g style="mix-blend-mode:multiply">
<path d="M123.816 252.297C114.862 274.295 97.0448 292.526 75.4826 302.408L71.1121 304.241C73.2582 303.235 77.4388 301.044 79.4843 299.859C98.5986 288.916 114.214 272.116 123.805 252.286L123.816 252.297Z" fill="#B8E7EC"/>
</g>
<g style="mix-blend-mode:multiply">
<path d="M83.5189 309.405C88.6384 307.851 93.2772 305.873 97.9608 303.268C94.2721 307.114 88.8508 309.416 83.5189 309.405Z" fill="#B8E7EC"/>
</g>
<g style="mix-blend-mode:multiply">
<path d="M141.243 341.821C141.768 348.986 141.925 356.051 141.69 363.238C140.382 356.185 140.237 348.93 141.243 341.821Z" fill="#B8E7EC"/>
</g>
<g style="mix-blend-mode:multiply">
<path d="M128.847 365.898C123.929 383.627 95.034 398.091 78.6248 403.792C71.8174 406.105 64.82 407.86 57.722 408.956C64.7306 407.413 71.6274 405.457 78.3341 402.987C91.7141 398.024 104.49 391.228 115.791 382.498C121.369 378.105 126.41 372.695 128.847 365.898Z" fill="#B8E7EC"/>
</g>
<path d="M34.5491 420.983C62.5609 433.793 95.5917 434.609 124.274 423.521L129.964 421.151L124.386 423.8L118.652 426.103C91.5006 435.883 60.2583 434.229 34.5491 420.994V420.983Z" fill="#1A2035"/>
<g style="mix-blend-mode:multiply">
<path d="M143.791 401.98C144.853 410.766 135.441 415.55 128.433 417.853C122.889 419.91 117.255 421.743 111.51 423.174C109.587 423.621 107.664 424.068 105.719 424.403C107.608 423.822 109.486 423.274 111.353 422.648C116.976 420.871 122.509 418.837 128.042 416.802C135.028 414.444 143.881 410.554 143.791 401.98Z" fill="#B8E7EC"/>
</g>
<path d="M138.068 423.252C135.62 426.416 131.663 428.45 127.673 428.595C131.317 426.907 134.581 425.242 138.068 423.252Z" fill="#1A2035"/>
<g style="mix-blend-mode:multiply">
<path d="M82.7377 417.496C92.999 416.68 103.026 413.371 111.655 407.738C112.75 407.045 114.259 405.972 115.31 405.223C114.774 405.737 114.237 406.251 113.689 406.743C105.272 414.076 93.9044 418.133 82.7489 417.485L82.7377 417.496Z" fill="#B8E7EC"/>
</g>
<g style="mix-blend-mode:multiply">
<path d="M20.7104 331.012C27.7414 325.144 33.5762 318.303 38.3045 310.467C35.007 318.996 28.6132 326.451 20.7104 331.012Z" fill="#B8E7EC"/>
</g>
<g style="mix-blend-mode:multiply">
<path d="M43.5594 315.184C42.5757 319.342 40.396 323.187 37.3333 326.172C39.1441 322.282 41.1561 318.739 43.5594 315.184Z" fill="#B8E7EC"/>
</g>
<path d="M146.574 237.084L144.025 335.472C143.924 339.541 147.188 342.883 151.246 342.883H213.105C216.927 342.883 220.08 339.91 220.314 336.109L226.317 239.476C226.607 234.826 222.975 230.858 218.313 230.735L155.013 229.069C150.463 228.947 146.685 232.546 146.562 237.084H146.574Z" fill="#304FC9"/>
<path opacity="0.45" d="M151.782 240.616L149.58 331.895C149.49 335.662 152.318 338.77 155.828 338.77H209.326C212.623 338.77 215.362 336.02 215.563 332.477L220.761 242.818C221.007 238.504 217.877 234.826 213.842 234.703L159.092 233.161C155.157 233.049 151.882 236.38 151.782 240.605V240.616Z" fill="#304FC9"/>
<path d="M193.643 252.297C193.643 255.092 191.374 257.361 188.579 257.361C185.785 257.361 183.516 255.092 183.516 252.297C183.516 249.503 185.785 247.234 188.579 247.234C191.374 247.234 193.643 249.503 193.643 252.297Z" fill="white"/>
<path d="M131.798 300.34C132.636 299.066 133.497 297.825 134.436 296.73C135.084 295.969 135.911 295.399 136.694 294.785C140.014 292.191 142.651 288.737 144.272 284.847C143.993 285.518 145.48 288.838 145.569 289.81C145.893 293.298 144.887 295.019 142.976 297.814C142.45 298.585 141.914 299.368 141.556 300.228C140.964 301.637 140.852 303.202 140.74 304.733C140.751 304.498 145.96 302.218 146.575 301.916C153.55 298.473 160.681 294.885 168.249 292.884C169.132 292.65 170.138 292.46 170.898 292.951C171.826 293.555 171.915 294.963 171.39 295.936C170.865 296.908 169.903 297.557 168.976 298.172C164.996 300.798 160.38 302.721 156.177 305.035C163.532 302.911 170.183 298.987 177.672 297.322C180.187 296.763 182.143 298.865 180.343 301.167C179.684 302.006 178.711 302.542 177.75 303.023C176.152 303.805 174.509 304.599 172.988 305.504C168.785 307.997 164.191 309.361 160.033 312.066C165.119 310.411 170.026 308.243 174.967 306.231C175.872 305.862 176.8 305.493 177.773 305.549C178.745 305.605 179.751 306.242 179.908 307.192C180.098 308.332 179.08 309.294 178.153 309.987C174.453 312.714 170.507 315.084 166.505 317.342C162.615 319.544 157.686 320.997 154.243 323.87C154.467 324.138 154.891 324.071 155.227 323.981C160.257 322.584 164.739 320.471 169.4 318.281C170.652 317.688 172.452 317.33 173.134 318.538C173.76 319.667 172.698 320.974 171.692 321.779C169.993 323.154 168.182 324.395 166.293 325.479C163.845 326.899 161.117 327.838 158.826 329.481C156.344 331.247 153.874 333.013 151.292 334.634C146.318 337.753 140.941 340.413 135.129 341.508C132.837 341.944 130.501 342.134 128.221 342.637C124.912 343.375 121.793 344.75 118.775 346.292C118.518 346.415 118.239 346.55 117.971 346.471C117.635 346.371 117.49 345.991 117.389 345.655C116.551 342.906 115.724 340.145 114.886 337.395C114.193 335.115 112.505 331.895 112.505 329.526C112.505 327.569 114.874 326.943 116.395 325.837C118.183 324.54 119.849 323.031 120.989 321.109C122.609 318.359 123.001 315.061 124.23 312.122C125.259 309.674 126.846 307.516 128.422 305.392C129.585 303.816 130.669 302.061 131.775 300.362L131.798 300.34Z" fill="#FF7D33"/>
<g style="mix-blend-mode:multiply" opacity="0.39">
<path d="M138.113 301.156C138.236 300.027 138.605 298.921 139.219 297.971C139.845 296.998 140.695 296.171 141.231 295.154C142.886 291.99 142.539 288.235 144.261 284.971C144.406 286.659 145.423 288.168 145.58 289.833C145.904 293.321 144.898 295.042 142.986 297.836C142.461 298.608 141.924 299.39 141.567 300.251C140.974 301.659 140.862 303.224 140.751 304.756C140.762 304.521 145.971 302.241 146.586 301.939C153.561 298.496 160.692 294.908 168.26 292.907C169.143 292.672 170.149 292.482 170.909 292.974C171.837 293.578 171.926 294.986 171.401 295.959C170.875 296.931 169.914 297.579 168.986 298.194C165.007 300.821 160.39 302.744 156.187 305.057C163.542 302.934 170.193 299.01 177.683 297.345C180.198 296.786 182.154 298.887 180.354 301.19C179.695 302.028 178.722 302.565 177.761 303.045C176.162 303.828 174.519 304.621 172.999 305.527C168.796 308.02 164.202 309.383 160.044 312.088C165.13 310.434 170.037 308.265 174.978 306.253C175.883 305.885 176.811 305.516 177.783 305.572C178.756 305.627 179.762 306.265 179.918 307.215C180.108 308.355 179.091 309.316 178.163 310.009C174.463 312.737 170.518 315.106 166.516 317.364C162.626 319.566 157.696 321.019 154.254 323.892C154.477 324.16 154.902 324.093 155.237 324.004C160.267 322.607 164.75 320.494 169.411 318.303C170.663 317.711 172.462 317.353 173.144 318.56C173.77 319.689 172.708 320.997 171.702 321.802C170.003 323.177 168.193 324.418 166.303 325.502C163.855 326.921 161.128 327.86 158.837 329.504C156.355 331.27 153.885 333.036 151.303 334.657C146.328 337.775 140.952 340.436 135.139 341.531C132.848 341.967 130.512 342.157 128.231 342.66C124.923 343.398 121.804 344.773 118.786 346.315C118.529 346.438 118.25 346.572 117.981 346.494C117.646 346.393 117.501 346.013 117.4 345.678C116.562 342.928 115.735 340.167 114.896 337.418C114.203 335.137 112.515 331.918 112.515 329.548C112.515 327.592 114.885 326.966 116.405 325.86C117.199 325.278 120.597 323.121 120.63 322.059C120.563 323.825 124.8 328.363 125.94 329.727C127.628 331.75 129.349 332.902 132.088 333.338C134.301 333.695 136.559 333.505 138.783 333.237C143.657 332.645 148.296 330.375 152.812 328.498C157.842 326.418 162.805 324.172 167.701 321.78C169.008 321.142 170.551 319.857 169.914 318.549C164.772 320.651 159.619 322.763 154.477 324.865C153.393 325.312 152.264 325.759 151.101 325.714C149.928 325.67 148.698 324.976 148.419 323.836C148.184 322.897 148.665 321.891 149.369 321.232C150.073 320.572 150.99 320.181 151.884 319.801C159.004 316.738 165.957 313.262 172.686 309.417C176.498 307.237 170.741 307.684 169.21 308.265C164.258 310.132 159.317 312.032 154.377 313.922C152.868 314.503 142.897 319.645 142.673 315.866C142.584 314.29 144.417 313.419 145.926 312.971C156.377 309.797 166.549 305.739 176.319 300.843C176.755 300.62 177.213 300.385 177.481 299.983C178.8 298.038 175.246 298.082 174.352 298.418C166.907 301.134 159.585 304.174 152.409 307.528C149.156 309.048 145.792 310.68 142.193 310.713C141.075 310.713 139.633 310.199 139.722 309.093C139.845 307.617 143.456 306.846 144.54 306.354C147.122 305.158 149.693 303.951 152.253 302.721C157.372 300.262 162.458 297.725 167.499 295.109C169.143 294.26 167.399 294.114 166.672 294.092C165.286 294.047 163.632 294.74 162.346 295.176C159.518 296.16 156.858 297.535 154.108 298.708C152.834 299.256 139.018 305.75 139.074 305.851C138.247 304.454 137.923 302.777 138.102 301.168L138.113 301.156Z" fill="#FF7D33"/>
</g>
<g style="mix-blend-mode:multiply" opacity="0.72">
<path d="M164.034 301.983C157.931 305.08 151.862 308.176 145.255 310.031C151.258 306.756 157.372 303.649 164.034 301.983Z" fill="#FF7D33"/>
</g>
<g style="mix-blend-mode:multiply" opacity="0.72">
<path d="M166.305 308.769C160.884 311.988 155.149 314.525 149.113 316.347C154.535 313.117 160.269 310.591 166.305 308.769Z" fill="#FF7D33"/>
</g>
<g style="mix-blend-mode:multiply" opacity="0.72">
<path d="M140.337 308.556C140.416 307.528 141.064 307.013 142.092 307.181C142.014 308.221 141.366 308.724 140.337 308.556Z" fill="#FF7D33"/>
</g>
<g style="mix-blend-mode:multiply" opacity="0.72">
<path d="M144.507 316.571C144.138 315.509 144.798 314.536 145.927 314.503C145.904 315.643 145.547 316.135 144.507 316.571Z" fill="#FF7D33"/>
</g>
<g style="mix-blend-mode:multiply" opacity="0.72">
<path d="M149.58 322.148C149.402 321.098 150.329 320.349 151.324 320.762C150.978 321.779 150.654 322.037 149.58 322.148Z" fill="#FF7D33"/>
</g>
<g style="mix-blend-mode:multiply" opacity="0.72">
<path d="M151.348 328.251C151.896 329.056 151.907 329.034 151.382 329.861C150.409 329.716 150.387 328.453 151.348 328.251Z" fill="#FF7D33"/>
</g>
<path d="M20.2421 369.475C13.949 375.344 10.1597 383.504 9.44426 392.122C9.31013 393.81 9.31013 401.757 10.8639 402.484C20.2757 406.821 31.3306 405.737 41.3013 402.909C72.9237 393.91 96.7774 369.967 124.309 353.458C124.912 353.1 125.538 352.697 125.818 352.06C126.041 351.546 125.996 350.954 125.929 350.395C124.845 340.368 121.514 330.587 116.249 321.98C88.4722 344.806 46.5326 344.951 20.2421 369.475Z" fill="white"/>
<g style="mix-blend-mode:multiply">
<path d="M45.7161 356.833C53.2612 359.113 60.8622 361.136 68.5973 362.679C76.1312 364.02 84.4029 366.39 91.6014 362.656C84.7382 367.228 75.9076 365.104 68.3849 363.774C60.6386 362.187 53.0041 359.929 45.7272 356.833H45.7161Z" fill="#B8E7EC"/>
</g>
<g style="mix-blend-mode:multiply">
<path d="M87.4661 350.584C93.1109 351.188 98.4651 350.406 103.719 348.237C99.3147 351.825 92.7085 352.775 87.4661 350.584Z" fill="#B8E7EC"/>
</g>
<g style="mix-blend-mode:multiply">
<path d="M96.8447 342.883C98.4655 341.922 99.438 341.296 101.003 340.234C100.902 342.156 98.622 343.598 96.8447 342.883Z" fill="#B8E7EC"/>
</g>
<g style="mix-blend-mode:multiply">
<path d="M26.9931 376.853C26.2554 381.067 26.6689 384.968 28.245 388.936C25.2382 385.862 24.6904 380.474 26.9931 376.853Z" fill="#B8E7EC"/>
</g>
<g style="mix-blend-mode:multiply">
<path d="M39.9704 384.633C40.9428 385.672 41.2558 386.086 41.9824 387.316C40.5516 387.64 39.255 385.907 39.9704 384.633Z" fill="#B8E7EC"/>
</g>
<path d="M220.37 301.614C223.31 301.402 227.849 300.675 228.687 297.232C229.134 295.399 228.251 293.331 226.608 292.392C228.262 291.308 229.76 289.799 230.218 287.877C230.677 285.954 229.76 283.629 227.871 283.036C229.682 282.411 230.99 280.566 230.99 278.655C230.99 276.743 229.671 274.899 227.86 274.284C229.805 273.725 230.52 271.076 229.615 269.265C227.737 265.498 223.266 266.247 219.789 266.147C216.592 266.057 210.903 265.711 208.511 268.326C207.605 269.31 207.259 270.853 207.885 272.037C208.522 273.256 209.93 273.826 211.26 274.195C213.228 274.742 215.273 275.067 217.308 275.134C214.692 275.033 210.791 275.324 208.432 276.52C206.968 277.269 205.783 278.856 206.04 280.477C206.23 281.662 207.147 282.645 208.209 283.215C209.271 283.785 210.478 284.02 211.663 284.244C213.295 284.557 214.927 284.87 216.548 285.171C214.524 285.171 212.49 285.373 210.5 285.742C209.461 285.932 208.321 286.256 207.762 287.15C207.404 287.731 207.348 288.447 207.326 289.128C207.27 290.403 207.303 291.867 208.287 292.672C208.734 293.041 209.304 293.208 209.863 293.354C211.663 293.812 213.496 294.114 215.34 294.248C214.334 294.393 213.295 294.55 212.401 295.053C211.249 295.712 210.187 297.657 210.713 298.987C210.959 299.625 211.573 300.06 212.188 300.362C214.536 301.525 217.509 301.771 220.382 301.57L220.37 301.614Z" fill="#FF7D33"/>
<g style="mix-blend-mode:multiply" opacity="0.39">
<path d="M220.371 301.614C223.311 301.402 227.849 300.675 228.687 297.232C229.023 295.88 228.419 295.31 228.151 294.181C228.363 295.075 227.849 296.036 227.1 296.584C226.351 297.132 225.423 297.355 224.518 297.523C221.086 298.16 217.543 298.194 214.1 297.635C213.564 297.545 212.938 297.378 212.736 296.875C212.613 296.562 212.692 296.193 212.837 295.891C213.251 295.03 214.167 294.505 215.084 294.293C216.012 294.069 216.973 294.125 217.923 294.125C222.394 294.159 228.967 293.108 230.207 287.888C230.487 286.714 229.917 286.3 229.805 285.328C229.917 286.356 229.291 287.362 228.441 287.966C227.592 288.558 226.552 288.816 225.535 289.017C220.852 289.9 216.045 289.687 211.294 289.475C210.523 289.441 209.64 289.352 209.171 288.737C208.679 288.078 208.914 287.072 209.495 286.49C210.076 285.909 210.914 285.663 211.719 285.484C214.458 284.903 217.286 284.981 220.091 284.803C223.724 284.568 230.99 283.562 230.979 278.677C230.979 277.347 230.263 276.844 229.827 275.782C230.33 277 229.649 278.442 228.587 279.214C227.525 279.985 226.172 280.22 224.864 280.387C219.89 281.002 214.838 280.823 209.852 280.331C209.171 280.264 208.422 280.164 207.952 279.661C207.326 278.99 207.494 277.861 208.098 277.168C208.69 276.475 209.595 276.151 210.478 275.916C215.128 274.675 219.98 275.436 224.697 274.843C229.28 274.262 229.928 273.144 229.425 268.829C229.514 269.601 229.548 270.528 228.933 271.009C228.542 271.322 227.994 271.333 227.491 271.333C223.948 271.344 220.404 271.367 216.85 271.378C214.055 271.389 211.127 271.378 208.634 270.081C208.746 269.355 208.846 268.628 208.958 267.902C208.075 269.221 206.98 270.383 207.874 272.082C208.511 273.301 209.92 273.871 211.25 274.239C213.217 274.787 215.263 275.111 217.297 275.178C214.681 275.078 210.78 275.368 208.422 276.565C206.957 277.313 205.773 278.901 206.03 280.521C206.22 281.706 207.136 282.69 208.198 283.26C209.26 283.83 210.467 284.065 211.652 284.288C213.284 284.601 214.916 284.914 216.537 285.216C214.514 285.216 212.479 285.417 210.49 285.786C209.45 285.976 208.31 286.3 207.751 287.195C207.393 287.776 207.337 288.491 207.315 289.173C207.259 290.447 207.293 291.912 208.276 292.717C208.724 293.085 209.294 293.253 209.852 293.398C211.652 293.857 213.485 294.159 215.33 294.293C214.324 294.438 213.284 294.594 212.39 295.098C211.239 295.757 210.177 297.702 210.702 299.032C210.948 299.669 211.563 300.105 212.177 300.407C214.525 301.57 217.498 301.815 220.371 301.614Z" fill="#FF7D33"/>
</g>
<g style="mix-blend-mode:multiply" opacity="0.72">
<path d="M213.149 274.754C217.329 274.217 221.454 274.094 225.634 274.027C226.976 273.982 228.373 273.949 229.457 273.01C228.742 274.306 227.065 274.72 225.702 274.899C221.532 275.402 217.318 275.469 213.149 274.754Z" fill="#FF7D33"/>
</g>
<g style="mix-blend-mode:multiply" opacity="0.72">
<path d="M212.366 284.389C218.246 283.707 224.372 284.501 229.782 281.55C225.199 285.898 218.134 285.283 212.366 284.389Z" fill="#FF7D33"/>
</g>
<g style="mix-blend-mode:multiply" opacity="0.72">
<path d="M212.5 293.756C217.899 292.873 223.779 293.789 228.585 290.805C225.087 295.03 217.452 294.527 212.5 293.756Z" fill="#FF7D33"/>
</g>
<path d="M185.194 200.968C211.326 200.968 232.51 179.784 232.51 153.652C232.51 127.52 211.326 106.336 185.194 106.336C159.062 106.336 137.877 127.52 137.877 153.652C137.877 179.784 159.062 200.968 185.194 200.968Z" fill="white" stroke="#FFC127" stroke-miterlimit="10"/>
<path d="M187.776 127.663C187.776 130.111 185.797 132.089 183.349 132.089C180.901 132.089 178.923 130.111 178.923 127.663C178.923 125.215 180.901 123.236 183.349 123.236C185.797 123.236 187.776 125.215 187.776 127.663Z" fill="#FFC127"/>
<path d="M163.43 143.245C163.43 145.693 161.452 147.671 159.004 147.671C156.556 147.671 154.578 145.693 154.578 143.245C154.578 140.797 156.556 138.818 159.004 138.818C161.452 138.818 163.43 140.797 163.43 143.245Z" fill="#FF91C3"/>
<path d="M194.125 146.039C194.125 148.487 192.146 150.466 189.698 150.466C187.25 150.466 185.272 148.487 185.272 146.039C185.272 143.591 187.25 141.613 189.698 141.613C192.146 141.613 194.125 143.591 194.125 146.039Z" fill="#FF7360"/>
<path d="M215.765 143.245C215.765 145.693 213.787 147.671 211.339 147.671C208.891 147.671 206.912 145.693 206.912 143.245C206.912 140.797 208.891 138.818 211.339 138.818C213.787 138.818 215.765 140.797 215.765 143.245Z" fill="#FF91C3"/>
<path d="M215.765 167.68C215.765 170.128 213.787 172.106 211.339 172.106C208.891 172.106 206.912 170.128 206.912 167.68C206.912 165.232 208.891 163.253 211.339 163.253C213.787 163.253 215.765 165.232 215.765 167.68Z" fill="#FFC127"/>
<path d="M194.125 180.087C194.125 182.535 192.146 184.514 189.698 184.514C187.25 184.514 185.272 182.535 185.272 180.087C185.272 177.639 187.25 175.661 189.698 175.661C192.146 175.661 194.125 177.639 194.125 180.087Z" fill="#FF91C3"/>
<path d="M169.499 173.839C169.499 176.287 167.521 178.265 165.073 178.265C162.625 178.265 160.646 176.287 160.646 173.839C160.646 171.391 162.625 169.412 165.073 169.412C167.521 169.412 169.499 171.391 169.499 173.839Z" fill="#FFC127"/>
<path d="M184.982 161.711C184.982 164.159 183.003 166.137 180.555 166.137C178.108 166.137 176.129 164.159 176.129 161.711C176.129 159.263 178.108 157.284 180.555 157.284C183.003 157.284 184.982 159.263 184.982 161.711Z" fill="#FF7360"/>
<path d="M165.073 139.4L177.771 131.318" stroke="#304FC9" stroke-miterlimit="10"/>
<path d="M189.698 131.318L205.47 139.78" stroke="#304FC9" stroke-miterlimit="10"/>
<path d="M211.338 149.985V161.04" stroke="#304FC9" stroke-miterlimit="10"/>
<path d="M205.47 171.145L195.946 176.722" stroke="#304FC9" stroke-miterlimit="10"/>
<path d="M172.194 175.661L182.958 178.254" stroke="#304FC9" stroke-miterlimit="10"/>
<path d="M163.43 166.718L160.647 149.985" stroke="#304FC9" stroke-miterlimit="10"/>
<path d="M164.202 147.671L175.402 157.295" stroke="#304FC9" stroke-miterlimit="10"/>
<path d="M165.554 144.116L183.349 145.458" stroke="#304FC9" stroke-miterlimit="10"/>
<path d="M185.272 133.721L187.776 139.779" stroke="#304FC9" stroke-miterlimit="10"/>
<path d="M196.426 144.787L204.989 144.116" stroke="#304FC9" stroke-miterlimit="10"/>
<path d="M186.524 151.807L183.919 156.234" stroke="#304FC9" stroke-miterlimit="10"/>
<path d="M194.125 150.946L206.331 163.253" stroke="#304FC9" stroke-miterlimit="10"/>
<path d="M186.524 163.253L204.99 166.719" stroke="#304FC9" stroke-miterlimit="10"/>
<path d="M183.348 167.68L187.093 174.319" stroke="#304FC9" stroke-miterlimit="10"/>
<path d="M170.126 169.759L175.402 165.701" stroke="#304FC9" stroke-miterlimit="10"/>
<path d="M48.6664 95.6721C74.7984 95.6721 95.9825 74.4879 95.9825 48.356C95.9825 22.224 74.7984 1.03979 48.6664 1.03979C22.5344 1.03979 1.35022 22.224 1.35022 48.356C1.35022 74.4879 22.5344 95.6721 48.6664 95.6721Z" fill="white" stroke="#FFC127" stroke-miterlimit="10"/>
<path d="M21.6612 44.7678H51.5174V55.2527C51.5174 55.2527 43.0222 54.6379 43.1005 60.1151C43.1675 65.0558 51.5174 64.5192 51.5174 64.5192V75.4624H41.1779C41.1779 75.4624 42.631 66.7324 36.5837 66.7324C30.5365 66.7324 31.8331 75.4624 31.8331 75.4624H21.65V64.6645C21.65 64.6645 13.8367 64.508 13.8367 59.7686C13.8367 55.0292 21.65 55.331 21.65 55.331V44.7678H21.6612Z" fill="#304FC9"/>
<path d="M51.4613 44.8795H60.6495C60.6495 44.8795 59.2187 36.9543 65.4672 36.9543C71.7157 36.9543 70.5196 44.8795 70.5196 44.8795H81.3175V55.3644C81.3175 55.3644 72.8223 54.7496 72.9005 60.2268C72.9676 65.1674 81.3175 64.6309 81.3175 64.6309V75.5741H70.9779C70.9779 75.5741 72.431 66.8441 66.3838 66.8441C60.3365 66.8441 61.6332 75.5741 61.6332 75.5741H51.4501V64.7762C51.4501 64.7762 43.089 65.3686 43.089 60.1038C43.089 54.5708 51.4501 55.4315 51.4501 55.4315V44.8683L51.4613 44.8795Z" fill="#304FC9"/>
<path d="M21.6611 14.6768V44.7677H32.3025C32.3025 44.7677 32.0678 53.263 36.5948 53.263C41.1219 53.263 40.9542 44.7677 40.9542 44.7677H51.5174V34.6629C51.5174 34.6629 43.4804 34.3164 43.4804 29.7222C43.4804 25.1281 51.5174 25.2399 51.5174 25.2399V14.6768H41.4125C41.4125 14.6768 42.385 23.3508 36.5948 23.2502C30.8382 23.1608 32.079 14.6768 32.079 14.6768H21.6723H21.6611Z" fill="#FF7360"/>
</svg>
