<svg width="339" height="553" viewBox="0 0 339 553" fill="none" xmlns="http://www.w3.org/2000/svg">
<path d="M157.096 563.85C157.588 570.568 158.874 577.342 158.147 584.06C203.06 585.301 247.995 585.748 292.919 585.39C288.068 558.843 289.734 533.536 291.768 506.899C293.925 478.719 291.69 450.193 285.017 422.729C285.039 422.818 238.159 425.155 233.766 425.021C212.047 424.383 190.798 420.717 170.253 414.111C158.885 463.506 153.43 513.483 157.107 563.839L157.096 563.85Z" fill="#304FC9"/>
<g style="mix-blend-mode:multiply" opacity="0.61">
<path d="M157.096 563.85C157.588 570.568 158.874 577.342 158.147 584.06C169.504 584.373 180.872 584.641 192.229 584.842C200.232 584.988 211.511 582.853 218.966 585.614C217.737 568.131 214.674 550.727 213.657 533.145C213.131 524.023 212.829 514.891 212.74 505.759C212.718 503.098 214.517 482.643 213.031 481.782C206.693 478.149 201.629 472.325 198.902 465.552C229.138 463.886 259.274 460.555 289.141 455.57C290.818 444.649 287.61 433.382 285.017 422.718C285.039 422.807 238.159 425.143 233.766 425.009C212.047 424.372 190.798 420.706 170.253 414.1C158.885 463.495 153.43 513.471 157.107 563.828L157.096 563.85Z" fill="#304FC9"/>
</g>
<path d="M152.781 242.283C139.222 275.705 162.271 313.654 192.317 329.013C219.893 343.108 256.188 342.46 279.539 320.529C288.492 312.123 295.121 301.515 300.363 290.404C309.294 271.48 307.528 253.293 303.303 233.352C298.418 210.314 293.522 187.277 288.638 164.239C285.91 151.407 282.657 137.635 272.765 129.017C264.46 121.796 253.204 119.762 242.573 118.89C231.183 117.962 219.334 117.459 208.291 120.969C204.635 122.132 201.058 123.652 197.917 125.865C188.304 132.65 184.157 144.845 182.268 156.459C180.916 164.787 180.413 173.259 178.58 181.52C176.937 188.92 174.232 196.521 171.56 203.63C166.53 217.043 158.18 228.993 152.792 242.272L152.781 242.283Z" fill="#304FC9"/>
<g style="mix-blend-mode:multiply">
<path d="M162.205 243.826C158.874 263.242 165.502 283.966 178.267 299.123C192.162 315.633 212.595 325.85 233.799 329.84C239.623 330.936 245.715 331.584 251.427 329.974C256.803 328.454 261.453 325.034 265.444 321.133C276.298 310.491 282.949 295.68 283.675 280.501C284.703 258.939 274.33 238.136 274.677 216.552C274.733 213.076 275.079 209.543 276.365 206.302C277.561 203.272 279.528 200.601 280.858 197.628C283.083 192.642 283.418 187.042 283.709 181.587C283.899 178.089 284.078 174.478 282.926 171.169C281.775 167.861 278.969 164.865 275.471 164.597C272.453 172.578 267.579 179.855 261.342 185.678C259.095 187.78 256.591 189.736 253.64 190.608C250.689 191.469 247.202 191.055 245.011 188.886C243.189 187.076 242.552 184.393 242.16 181.844C240.774 172.801 241.467 163.446 244.15 154.704C245.938 148.892 248.61 143.303 249.515 137.278C250.6 130.091 248.532 120.969 240.998 118.823C231.564 116.129 217.424 118.097 208.269 121.014C204.614 122.177 201.037 123.697 197.896 125.91C175.752 141.537 184.438 181.878 176.937 204.904C173.17 216.462 166.463 226.959 163.322 238.707C162.864 240.406 162.495 242.127 162.194 243.86L162.205 243.826Z" fill="#304FC9"/>
</g>
<path d="M242.485 221.079C242.518 220.486 242.552 219.849 242.91 219.369C243.29 218.854 243.938 218.642 244.53 218.441C254.926 214.83 262.885 204.256 262.136 193.279C263.253 196.152 266.909 197.415 269.893 196.655C272.878 195.895 275.247 193.604 277.058 191.111C281.395 185.142 283.34 177.474 282.379 170.163C281.854 166.195 280.065 162.104 275.907 160.886C272.878 160.003 269.625 162.104 268.105 164.876C269.379 162.562 268.787 157.789 268.854 155.241C268.965 150.993 268.641 146.723 267.512 142.61C265.198 134.171 259.274 127.33 251.204 124.032C243.603 120.925 235.219 120.142 227.015 120.455C219.894 120.723 212.684 121.83 206.268 124.926C199.327 128.28 193.604 135.668 191.301 142.968C188.507 151.843 189.971 161.512 188.182 170.644C187.042 176.479 184.606 181.967 183.096 187.713C179.643 200.836 184.784 211.98 197.382 217.29C203.899 220.028 210.985 221.023 217.961 222.23C218.408 222.308 218.888 222.409 219.179 222.756C219.38 223.001 219.447 223.337 219.492 223.65C220.543 230.491 220.811 238.785 217.782 245.201C225.897 248.353 235.063 248.711 243.401 246.196C238.517 241.903 242.217 226.836 242.496 221.09L242.485 221.079Z" fill="#FF7D33"/>
<g style="mix-blend-mode:multiply" opacity="0.32">
<path d="M242.484 221.079C242.518 220.486 242.552 219.849 242.909 219.369C243.289 218.854 243.938 218.642 244.53 218.441C254.926 214.83 262.884 204.256 262.135 193.279C263.253 196.152 266.908 197.415 269.893 196.655C272.877 195.895 275.247 193.604 277.058 191.111C281.395 185.142 283.34 177.474 282.379 170.163C281.853 166.195 280.065 162.104 275.907 160.886C272.877 160.003 269.625 162.104 268.104 164.876C269.379 162.562 268.786 157.789 268.853 155.241C268.965 150.993 268.641 146.723 267.512 142.61C265.198 134.171 259.274 127.33 251.203 124.032C243.602 120.925 235.219 120.142 227.014 120.455C219.894 120.723 212.684 121.83 206.268 124.926C197.896 128.973 195.66 135.948 191.189 143.146C192.094 139.156 196.364 136.797 200.411 136.227C204.457 135.657 208.604 136.35 212.673 135.914C216.742 135.478 221.101 133.455 222.398 129.576C224.332 134.126 226.265 138.686 228.378 143.146C230.267 147.126 232.469 151.306 235.901 154.19C238.919 156.728 242.272 156.839 242.675 161.433C244.396 181.118 244.564 211.756 220.621 217.111C211.835 219.078 202.635 217.48 193.961 215.054C197.37 216.004 200.4 218.72 204.066 219.682C208.615 220.867 213.321 221.403 217.949 222.208C218.396 222.286 218.877 222.387 219.167 222.733C219.369 222.979 219.436 223.314 219.48 223.627C220.531 230.468 220.799 238.762 217.77 245.178C225.885 248.331 235.051 248.688 243.39 246.173C238.505 241.881 242.205 226.813 242.484 221.068V221.079Z" fill="#FF7D33"/>
</g>
<g style="mix-blend-mode:multiply">
<path d="M207.43 153.553C216.484 179.653 197.638 173.405 201.438 179.62C202.489 181.688 204.277 183.04 206.547 183.767C203.238 183.767 199.65 181.364 199.124 177.831C199.024 176.77 199.918 175.719 200.689 175.182C202.478 173.729 204.747 173.07 206.111 171.214C207.854 169.057 208.044 166.028 207.933 162.954C207.843 159.846 207.631 156.728 207.43 153.564V153.553Z" fill="#FF7D33"/>
</g>
<path d="M227.694 188.842C225.414 193.816 221.111 197.817 215.991 199.729C213.61 200.612 211.017 201.059 208.524 200.623C202.567 199.561 198.107 192.989 195.267 188.115C206.188 189.535 216.729 190.641 227.694 188.853V188.842Z" fill="white" stroke="#AD3A2B" stroke-miterlimit="10"/>
<path d="M230.053 169.325C230.176 166.967 231.003 164.016 233.72 163.636C235.687 163.356 237.531 164.753 238.258 166.519C238.75 167.704 238.817 169.023 238.761 170.309C238.638 172.746 237.375 176.088 234.379 175.931C231.283 175.764 229.919 171.918 230.064 169.336L230.053 169.325Z" fill="#1A2035"/>
<path d="M193.703 171.069C193.021 169.347 192.921 167.414 193.401 165.625C193.815 164.116 194.832 162.585 196.374 162.35C197.749 162.138 199.124 163.076 199.75 164.328C200.89 166.575 200.7 170.8 198.666 172.499C196.866 173.997 194.508 173.114 193.703 171.069Z" fill="#1A2035"/>
<path d="M229.05 151.027C229.352 145.538 235.376 141.302 240.798 142.878C244.844 143.839 248.443 148.299 247.08 152.39C245.906 150.501 244.576 149.238 243.145 148.4C238.316 145.538 233.253 147.561 229.039 151.015L229.05 151.027Z" fill="#304FC9"/>
<path d="M202.748 150.009C200.389 148.455 198.232 147.908 195.84 148.243C193.47 148.735 191.637 149.964 189.927 152.222C188.172 148.701 191.291 144.409 195.08 143.839C198.836 143.112 203.217 146.108 202.748 150.009Z" fill="#304FC9"/>
<g style="mix-blend-mode:multiply" opacity="0.36">
<path d="M237.61 189.054C240.863 189.412 248.542 189.602 249.358 184.985C250.263 179.888 241.176 178.424 237.822 178.256C234.525 178.089 229.193 178.815 227.181 181.811C226.521 182.794 226.655 184.415 227.382 185.309C227.896 185.947 228.623 186.36 229.349 186.718C231.931 188.003 234.748 188.741 237.621 189.054H237.61Z" fill="#FF7D33"/>
<path d="M188.215 178.066C187.03 178.569 186.136 179.475 185.454 180.693C184.94 181.621 184.716 182.772 185.107 183.756C185.666 185.164 187.254 185.846 188.729 186.159C191.702 186.785 199.795 186.874 198.443 181.71C198.174 180.682 197.481 179.81 196.643 179.162C194.631 177.586 191.848 177.217 189.333 177.708C188.93 177.787 188.55 177.91 188.204 178.055L188.215 178.066Z" fill="#FF7D33"/>
</g>
<g style="mix-blend-mode:multiply">
<path d="M275.884 170.074C276.264 169.336 275.526 168.475 274.766 168.565C274.006 168.609 273.425 169.168 273.033 169.817C272.229 171.158 271.491 172.611 270.876 174.064C269.669 176.982 268.864 180.123 269.099 183.208C269.244 184.314 269.423 185.767 270.239 186.516C271.636 186.058 272.363 184.27 272.72 182.884C273.693 179.608 272.542 175.45 268.685 178.334C269.255 177.786 269.904 177.216 270.776 177.071C275.459 176.825 274.073 185.946 270.91 187.433C269.725 188.092 268.853 186.74 268.551 185.801C267.143 181.81 268.372 177.339 270.094 173.718C270.82 172.242 271.636 170.856 272.586 169.504C273.078 168.844 273.861 168.218 274.766 168.274C275.649 168.252 276.42 169.314 275.884 170.074Z" fill="#FF7D33"/>
</g>
<path d="M195.693 136.697C199.638 133.265 205.172 132.527 210.28 131.41C215.399 130.292 220.932 128.224 223.213 123.518C225.146 127.676 229.729 130.437 234.301 130.191C234.726 130.169 235.151 130.124 235.553 130.258C236.056 130.426 236.436 130.839 236.783 131.242C240.393 135.434 243.277 140.207 246.988 144.32C251.023 148.802 255.126 151.228 261.128 152.133C261.732 157.924 260.536 163.289 260.368 169.113C260.178 175.674 261.061 182.269 263.028 188.54C261.989 185.231 263.543 179.408 264.47 176.177C265.488 172.623 266.695 168.923 268.662 165.759C269.512 164.384 270.529 162.786 272.071 162.126C272.72 161.858 277.459 161.579 277.291 162.697C278.778 152.536 280.097 141.481 274.922 132.617C270.316 124.725 261.43 120.31 252.633 117.862C235.833 113.19 215.411 113.055 200.51 122.959C197.246 125.128 194.251 127.81 192.183 131.141C187.309 139.044 187.566 150.792 189.399 159.578C189.746 151.943 189.344 142.207 195.681 136.686L195.693 136.697Z" fill="#304FC9"/>
<path d="M283.562 392.75C284.77 407.415 288.648 421.868 294.953 435.159C268.126 442.804 239.868 444.626 212.046 442.793C193.368 441.564 173.885 438.322 159.063 426.898C170.788 398.059 179.742 370.025 182.693 338.738C175.941 337.184 170.777 331.115 169.358 324.475C167.614 316.337 172.756 310.603 174.108 302.98C167.301 313.118 157.118 321.669 148.421 330.198C135.164 343.176 123.025 356.142 108.17 367.51C92.1183 379.794 75.6755 391.397 58.4726 402.083C57.6119 402.62 56.6954 403.167 55.6893 403.156C54.8398 403.156 54.035 402.754 53.2861 402.34C45.428 398.07 38.4754 392.135 33.0317 385.037C42.9242 378.207 52.2913 370.45 62.1166 363.34C68.7228 358.568 75.5637 353.94 81.8569 348.753C99.0709 334.546 115.346 319.266 131.677 304.075C146.074 290.695 159.622 276.063 172.119 260.805C174.421 258 176.813 255.138 179.988 253.394C183.677 251.371 189.601 251.651 193.77 250.879C198.957 249.929 204.11 248.8 209.229 247.515C207.452 247.861 205.529 247.392 204.11 246.263C208.234 249.549 210.336 239.433 210.381 237.745C210.481 233.33 212.75 228.747 217.959 229.161C220.161 229.34 222.196 230.368 224.275 231.128C226.857 232.078 229.573 232.615 232.323 232.738C234.547 232.838 236.861 232.637 238.806 231.553C240.304 230.714 241.556 229.373 243.233 228.982C245.904 228.367 248.52 230.524 249.637 233.017C251.84 237.913 250.286 244.597 257.037 246.252C255.562 247.582 253.785 248.566 251.873 249.102C259.765 250.958 267.656 252.824 275.537 254.68C284.233 256.737 288.145 259.52 289.99 268.093C292.404 279.294 294.495 290.572 296.462 301.862C300.396 324.441 303.571 347.155 305.974 369.958C306.209 372.227 306.421 374.63 305.471 376.698C304.599 378.576 302.889 379.917 301.212 381.136C296.786 384.355 288.939 389.43 283.373 389.508C283.428 390.581 283.507 391.665 283.596 392.738L283.562 392.75Z" fill="white"/>
<path opacity="0.67" d="M283.564 392.75C284.771 407.415 288.65 421.868 294.954 435.159C268.127 442.804 239.869 444.626 212.047 442.793C193.369 441.563 173.886 438.322 159.064 426.898C162.999 417.229 166.698 407.46 169.951 397.545C170.32 396.405 174.937 382.332 174.635 382.309C183.085 383.092 192.083 382.611 199.282 378.129C206.492 373.646 211.12 364.201 207.856 356.365C204.893 349.267 198.019 344.506 193.838 338.257C189.624 341.208 185.746 344.651 182.314 348.474C181.643 345.098 182.37 342.091 182.683 338.738C175.931 337.184 170.767 331.114 169.348 324.475C167.604 316.337 172.746 310.603 174.098 302.98C167.291 313.118 157.108 321.669 148.411 330.198C135.154 343.175 123.015 356.142 108.16 367.51C92.1082 379.794 75.6654 391.397 58.4626 402.083C57.6019 402.62 56.6853 403.167 55.6793 403.156C54.8298 403.156 54.0249 402.754 53.276 402.34C47.7877 399.356 39.2813 394.426 36.1179 388.781C31.4791 380.498 44.9373 384.165 49.9338 383.382C52.8736 382.924 55.467 381.281 57.9596 379.66C87.8382 360.188 115.66 337.743 143.415 315.342C151.474 308.837 160.238 300.923 160.316 290.572C162.093 292.193 163.278 294.451 163.58 296.832C164.876 289.231 165.838 281.574 166.452 273.895C168.889 273.738 171.069 275.705 171.952 277.986C172.835 280.266 172.734 282.792 172.612 285.24C175.261 276.063 177.921 266.886 180.57 257.709C181.722 260.157 182.493 262.784 182.839 265.478C183.689 262.001 184.538 258.514 185.388 255.037C188.518 263.633 187.176 273.258 184.371 281.965C181.565 290.673 177.351 298.877 174.624 307.618C172.545 314.292 171.717 322.541 176.77 327.37C181.073 331.494 188.205 331.271 193.47 328.465C198.734 325.66 202.568 320.831 206.246 316.136C208.593 325.838 220.196 331.394 229.91 329.102C239.623 326.811 247.012 318.349 250.388 308.96C253.763 299.57 253.719 289.298 252.958 279.349C236.862 291.846 212.606 292.539 195.817 280.959C208.794 278.522 221.18 272.989 231.642 264.93C226.165 267.467 220.353 266.864 214.92 264.706C209.979 262.739 205.229 261.018 201.607 256.815C206.313 258.056 211.354 257.977 216.027 256.614C211.31 255.373 206.961 252.746 203.675 249.158C205.318 248.901 206.917 248.275 208.292 247.336C207.196 247.213 206.101 247.101 204.994 246.978C206.872 247.179 207.967 245.514 208.951 244.262C208.772 245.603 210.426 246.363 211.757 246.643C216.675 247.66 221.705 248.152 226.724 248.096C228.904 248.074 231.117 247.94 233.185 247.246C233.587 247.112 234.012 246.945 234.28 246.609C234.515 246.319 234.616 245.927 234.671 245.547C235.8 238.069 229.071 236.37 223.963 233.386C221.046 231.687 217.983 230.491 214.629 229.876C216.776 228.769 219.369 229.351 221.671 230.077C224.678 231.038 227.305 232.279 230.424 232.659C232.704 232.939 235.208 232.894 237.41 232.156C239.545 231.441 241.032 229.518 243.2 229.015C245.872 228.4 248.487 230.558 249.605 233.051C251.807 237.946 250.253 244.631 257.005 246.285C255.529 247.615 253.752 248.599 251.841 249.136C259.732 250.991 267.624 252.858 275.504 254.713C284.201 256.77 288.113 259.553 289.957 268.127C292.372 279.327 294.462 290.606 296.429 301.895C300.364 324.475 303.539 347.188 305.942 369.991C306.177 372.26 306.389 374.664 305.439 376.732C304.567 378.609 302.857 379.951 301.18 381.169C296.754 384.388 288.907 389.463 283.34 389.541C283.396 390.615 283.474 391.699 283.564 392.772V392.75Z" fill="#B8E7EC"/>
<path d="M4.80793 404.028C2.8965 404.017 -0.0433185 403.849 0.727958 402.888C2.27051 400.977 3.81308 399.054 5.35564 397.143C6.58521 395.622 7.81479 394.091 9.34616 392.873C14.3539 388.882 22.3126 388.122 28.4157 386.457C30.9754 385.752 33.6693 385.059 36.2514 385.685C40.4319 386.702 61.8376 397.031 54.2702 403.827C51.9563 405.884 40.3649 404.33 37.1568 404.364C30.0924 404.442 23.0391 404.397 15.9747 404.229C12.7554 404.151 9.51381 403.972 6.31692 404.017C6.30574 404.017 5.65744 404.039 4.79674 404.039L4.80793 404.028Z" fill="#FF7D33"/>
<g style="mix-blend-mode:multiply">
<path d="M14.6233 403.369C18.3567 397.042 24.0686 394.527 31.0213 393.186C33.1227 392.661 35.2018 392.057 37.1133 390.973C33.7599 393.924 29.0317 394.427 25.0523 395.98C20.9277 397.433 17.5631 400.161 14.6233 403.369Z" fill="#FF7D33"/>
</g>
<g style="mix-blend-mode:multiply">
<path d="M6.66479 403.402C8.85567 400.25 10.5883 396.718 13.5392 394.181C18.4352 390.414 25.902 389.81 31.7592 388.603C30.5856 389.083 29.3559 389.441 28.1487 389.821C22.3809 391.587 15.4506 392.493 11.5942 397.601C9.99579 399.568 8.37502 401.524 6.66479 403.402Z" fill="#FF7D33"/>
</g>
<path d="M301.181 381.158C284.962 392.928 263.143 395.622 243.838 399.087C227.563 402.016 211.031 404.039 194.432 404.296C197.17 404.252 189.324 386.848 188.496 385.573C217.157 376.832 244.006 362.781 272.756 354.353C266.485 333.574 262.483 312.302 260.292 290.706C259.599 283.91 259.152 276.913 261.108 270.362C263.187 263.421 268.497 256.502 276.131 256.681C283.643 256.859 288.326 260.593 289.947 268.116C292.362 279.316 294.452 290.594 296.419 301.884C300.354 324.464 303.528 347.177 305.932 369.98C306.166 372.249 306.379 374.652 305.429 376.72C304.557 378.598 302.846 379.94 301.17 381.158H301.181Z" fill="white"/>
<path d="M162.664 402.497C165.481 402.307 168.275 401.871 171.103 401.759C176.525 401.547 181.879 402.53 187.278 402.955C190.62 403.223 197.819 404.285 200.669 401.882C202.256 400.54 201.809 398.025 201.217 396.025C200.747 394.437 200.278 392.861 199.808 391.274C199.182 389.15 198.176 386.68 195.997 386.277C193.884 385.886 191.481 387.172 189.312 387.228C186.864 387.295 184.293 386.747 181.913 386.233C179.386 385.685 176.86 384.947 174.278 385.081C171.182 385.238 168.298 386.624 165.514 387.988C160.004 390.682 154.873 392.872 149.664 396.181C149.284 396.427 148.882 396.695 148.748 397.131C148.58 397.701 148.971 398.271 149.374 398.707C151.967 401.479 155.968 402.508 159.758 402.575C160.73 402.597 161.703 402.553 162.675 402.485L162.664 402.497Z" fill="#FF7D33"/>
<g style="mix-blend-mode:multiply" opacity="0.56">
<path d="M267.064 356.12C274.464 351.481 285.105 354.968 288.548 362.949C289.029 364.045 289.42 365.185 289.599 366.359C289.174 365.252 288.694 364.19 288.068 363.206C283.976 356.03 274.654 353.046 267.064 356.12Z" fill="#D7DCFC"/>
</g>
<g style="mix-blend-mode:multiply" opacity="0.56">
<path d="M246.642 396.729C255.394 391.486 262.101 383.08 265.22 373.378C265.622 372.16 266.08 370.382 266.382 369.142C266.315 369.868 266.237 370.606 266.147 371.344C264.471 382.32 256.903 392.392 246.642 396.729Z" fill="#D7DCFC"/>
</g>
<g style="mix-blend-mode:multiply" opacity="0.56">
<path d="M251.439 380.23C250.533 382.633 248.655 384.556 246.252 385.495C247.683 383.349 249.315 381.694 251.439 380.23Z" fill="#D7DCFC"/>
</g>
<g style="mix-blend-mode:multiply" opacity="0.56">
<path d="M204.198 389.184C207.552 391.095 209.24 395.756 207.876 399.367C207.563 395.544 206.401 392.313 204.198 389.184Z" fill="#D7DCFC"/>
</g>
<g style="mix-blend-mode:multiply" opacity="0.56">
<path d="M262.604 277.192C263.274 269.859 269.534 263.164 276.811 262.012C270.059 264.807 264.94 270.262 262.604 277.192Z" fill="#D7DCFC"/>
</g>
<g style="mix-blend-mode:multiply" opacity="0.56">
<path d="M264.572 256.558C256.949 267.043 257.25 284.301 258.838 296.72C259.095 298.687 259.464 300.643 259.833 302.599C255.641 289.298 254.68 267.523 264.572 256.558Z" fill="#D7DCFC"/>
</g>
<g style="mix-blend-mode:multiply" opacity="0.56">
<path d="M167.122 274.632C171.716 282.133 172.32 292.193 168.62 300.185C170.766 291.656 170.252 282.859 167.122 274.632Z" fill="#D7DCFC"/>
</g>
<g style="mix-blend-mode:multiply" opacity="0.56">
<path d="M207.206 258.279C220.083 259.587 233.228 257.955 245.323 253.327C246.843 252.757 248.989 251.852 250.476 251.215C249.671 251.684 248.855 252.142 248.039 252.589C235.631 259.05 220.899 261.219 207.206 258.29V258.279Z" fill="#D7DCFC"/>
</g>
<g style="mix-blend-mode:multiply" opacity="0.56">
<path d="M258.937 256.513C243.813 270.798 223.111 279.036 202.332 279.484L198.185 279.439L202.32 279.182C222.933 277.583 242.919 269.591 258.937 256.502V256.513Z" fill="#D7DCFC"/>
</g>
<g style="mix-blend-mode:multiply" opacity="0.56">
<path d="M208.86 319.344C212.918 333.831 227.661 344.17 242.718 342.069C247.648 341.51 252.42 339.8 256.601 337.106C252.644 340.224 247.804 342.158 242.83 342.918C227.449 345.545 211.811 334.635 208.86 319.344Z" fill="#D7DCFC"/>
</g>
<g style="mix-blend-mode:multiply" opacity="0.56">
<path d="M211.006 248.163C221.133 250.186 231.473 250.879 241.756 250.097C242.438 250.03 243.131 249.985 243.824 249.94C233.038 252.455 221.457 251.841 211.006 248.152V248.163Z" fill="#D7DCFC"/>
</g>
<g style="mix-blend-mode:multiply" opacity="0.56">
<path d="M171.829 309.775C178.513 291.745 186.495 273.514 185.824 253.886C185.936 255.093 186.025 256.3 186.115 257.519C186.986 275.962 179.43 293.389 171.829 309.775Z" fill="#D7DCFC"/>
</g>
<g style="mix-blend-mode:multiply" opacity="0.56">
<path d="M182.179 257.698C183.286 259.62 183.42 261.934 182.526 263.969C181.866 261.834 181.766 259.889 182.179 257.698Z" fill="#D7DCFC"/>
</g>
<path d="M50.4133 305.215L59.814 403.424L154.323 404.296H234.413V397.176H163.031L158.157 305.215H50.4133Z" fill="#304FC9"/>
<path opacity="0.5" d="M158.157 305.215H151.886L157.709 404.296H234.412V397.176H163.03L158.157 305.215Z" fill="#304FC9"/>
<path d="M97.0137 330.734C100.156 330.734 102.703 328.187 102.703 325.045C102.703 321.902 100.156 319.355 97.0137 319.355C93.8715 319.355 91.3242 321.902 91.3242 325.045C91.3242 328.187 93.8715 330.734 97.0137 330.734Z" fill="white"/>
<path d="M88.3184 257.15C114.45 257.15 135.635 235.966 135.635 209.834C135.635 183.702 114.45 162.518 88.3184 162.518C62.1864 162.518 41.0022 183.702 41.0022 209.834C41.0022 235.966 62.1864 257.15 88.3184 257.15Z" fill="white" stroke="#FFC127" stroke-miterlimit="10"/>
<path d="M104.928 185.109H72.2662C67.3893 185.109 63.4358 189.062 63.4358 193.939V225.796C63.4358 230.673 67.3893 234.627 72.2662 234.627H104.928C109.805 234.627 113.759 230.673 113.759 225.796V193.939C113.759 189.062 109.805 185.109 104.928 185.109Z" fill="#304FC9"/>
<path d="M97.6409 192.631H79.9463C74.4643 192.631 70.0203 197.075 70.0203 202.557V218.832C70.0203 224.314 74.4643 228.758 79.9463 228.758H97.6409C103.123 228.758 107.567 224.314 107.567 218.832V202.557C107.567 197.075 103.123 192.631 97.6409 192.631Z" fill="#D7DCFC"/>
<g style="mix-blend-mode:multiply" opacity="0.74">
<path d="M95.495 198.991H82.8081C79.4807 198.991 76.7832 201.689 76.7832 205.016V215.747C76.7832 219.075 79.4807 221.772 82.8081 221.772H95.495C98.8225 221.772 101.52 219.075 101.52 215.747V205.016C101.52 201.689 98.8225 198.991 95.495 198.991Z" fill="#D7DCFC"/>
</g>
<path d="M73.4519 204.066V203.284C73.4519 199.215 76.7493 195.929 80.8069 195.929H82.6625" stroke="#304FC9" stroke-miterlimit="10" stroke-linecap="round"/>
<path d="M95.0698 195.917H96.6683C101.162 195.917 104.806 199.561 104.806 204.055" stroke="#304FC9" stroke-miterlimit="10" stroke-linecap="round"/>
<path d="M104.817 217.547C104.817 221.973 101.229 225.55 96.8139 225.55H95.0813" stroke="#304FC9" stroke-miterlimit="10" stroke-linecap="round"/>
<path d="M73.4517 217.547V218.352C73.4517 222.331 76.6708 225.55 80.6502 225.55H82.6623" stroke="#304FC9" stroke-miterlimit="10" stroke-linecap="round"/>
<path d="M65.9728 222.61H57.8352" stroke="#304FC9" stroke-miterlimit="10" stroke-linecap="round"/>
<path d="M65.9051 219.011H57.7676" stroke="#304FC9" stroke-miterlimit="10" stroke-linecap="round"/>
<path d="M65.9728 215.278H57.8352" stroke="#304FC9" stroke-miterlimit="10" stroke-linecap="round"/>
<path d="M66.0394 211.734H57.9019" stroke="#304FC9" stroke-miterlimit="10" stroke-linecap="round"/>
<path d="M65.9728 208.135H57.8352" stroke="#304FC9" stroke-miterlimit="10" stroke-linecap="round"/>
<path d="M66.0394 204.402H57.9019" stroke="#304FC9" stroke-miterlimit="10" stroke-linecap="round"/>
<path d="M66.107 200.724H57.9695" stroke="#304FC9" stroke-miterlimit="10" stroke-linecap="round"/>
<path d="M66.0394 197.125H57.9019" stroke="#304FC9" stroke-miterlimit="10" stroke-linecap="round"/>
<path d="M66.0394 193.648H57.9019" stroke="#304FC9" stroke-miterlimit="10" stroke-linecap="round"/>
<path d="M57.8352 226.221H65.9728" stroke="#304FC9" stroke-miterlimit="10" stroke-linecap="round"/>
<path d="M118.164 222.61H110.026" stroke="#304FC9" stroke-miterlimit="10" stroke-linecap="round"/>
<path d="M118.096 219.011H109.958" stroke="#304FC9" stroke-miterlimit="10" stroke-linecap="round"/>
<path d="M118.164 215.278H110.026" stroke="#304FC9" stroke-miterlimit="10" stroke-linecap="round"/>
<path d="M118.23 211.734H110.093" stroke="#304FC9" stroke-miterlimit="10" stroke-linecap="round"/>
<path d="M118.164 208.135H110.026" stroke="#304FC9" stroke-miterlimit="10" stroke-linecap="round"/>
<path d="M118.23 204.402H110.093" stroke="#304FC9" stroke-miterlimit="10" stroke-linecap="round"/>
<path d="M118.298 200.724H110.16" stroke="#304FC9" stroke-miterlimit="10" stroke-linecap="round"/>
<path d="M118.23 197.125H110.093" stroke="#304FC9" stroke-miterlimit="10" stroke-linecap="round"/>
<path d="M118.23 193.648H110.093" stroke="#304FC9" stroke-miterlimit="10" stroke-linecap="round"/>
<path d="M110.026 226.221H118.164" stroke="#304FC9" stroke-miterlimit="10" stroke-linecap="round"/>
<path d="M75.7307 240.16V232.011" stroke="#304FC9" stroke-miterlimit="10" stroke-linecap="round"/>
<path d="M79.3301 240.093V231.944" stroke="#304FC9" stroke-miterlimit="10" stroke-linecap="round"/>
<path d="M83.0732 240.16V232.011" stroke="#304FC9" stroke-miterlimit="10" stroke-linecap="round"/>
<path d="M86.6069 240.227V232.078" stroke="#304FC9" stroke-miterlimit="10" stroke-linecap="round"/>
<path d="M90.2053 240.16V232.011" stroke="#304FC9" stroke-miterlimit="10" stroke-linecap="round"/>
<path d="M93.9495 240.227V232.078" stroke="#304FC9" stroke-miterlimit="10" stroke-linecap="round"/>
<path d="M97.6174 240.294V232.145" stroke="#304FC9" stroke-miterlimit="10" stroke-linecap="round"/>
<path d="M101.227 240.227V232.078" stroke="#304FC9" stroke-miterlimit="10" stroke-linecap="round"/>
<path d="M104.692 240.227V232.078" stroke="#304FC9" stroke-miterlimit="10" stroke-linecap="round"/>
<path d="M72.1199 232.011V240.16" stroke="#304FC9" stroke-miterlimit="10" stroke-linecap="round"/>
<path d="M74.9702 187.612V179.475" stroke="#304FC9" stroke-miterlimit="10" stroke-linecap="round"/>
<path d="M78.582 187.545V179.408" stroke="#304FC9" stroke-miterlimit="10" stroke-linecap="round"/>
<path d="M82.3147 187.612V179.475" stroke="#304FC9" stroke-miterlimit="10" stroke-linecap="round"/>
<path d="M85.8464 187.679V179.531" stroke="#304FC9" stroke-miterlimit="10" stroke-linecap="round"/>
<path d="M89.4573 187.612V179.475" stroke="#304FC9" stroke-miterlimit="10" stroke-linecap="round"/>
<path d="M93.1909 187.679V179.531" stroke="#304FC9" stroke-miterlimit="10" stroke-linecap="round"/>
<path d="M96.8694 187.746V179.598" stroke="#304FC9" stroke-miterlimit="10" stroke-linecap="round"/>
<path d="M100.468 187.679V179.531" stroke="#304FC9" stroke-miterlimit="10" stroke-linecap="round"/>
<path d="M103.932 187.679V179.531" stroke="#304FC9" stroke-miterlimit="10" stroke-linecap="round"/>
<path d="M71.3718 179.475V187.612" stroke="#304FC9" stroke-miterlimit="10" stroke-linecap="round"/>
<path d="M144.331 134.316C170.463 134.316 191.647 113.132 191.647 86.9997C191.647 60.8678 170.463 39.6836 144.331 39.6836C118.199 39.6836 97.0146 60.8678 97.0146 86.9997C97.0146 113.132 118.199 134.316 144.331 134.316Z" fill="white" stroke="#FFC127" stroke-miterlimit="10"/>
<path d="M140.978 66.9127C131.611 68.9247 125.574 77.7665 126.569 87.3012C127.274 94.0639 131.264 95.3158 133.924 99.0269C134.573 99.9323 134.975 101.005 135.087 102.123L135.489 106.024C135.713 108.159 137.334 109.925 139.458 110.227C143.023 110.719 146.488 110.73 149.831 110.272C151.954 109.981 153.665 108.372 153.989 106.438L154.537 102.85C154.816 101.028 155.632 99.3175 156.895 97.9762C159.723 94.9469 163.736 92.6108 163.736 85.1215C163.736 73.4853 153.061 64.3306 140.966 66.9239L140.978 66.9127Z" fill="#FFC127"/>
<path d="M142.42 110.25V98.2223C142.397 95.0031 143.168 90.6437 141.57 87.7039C140.776 86.2508 138.876 85.2671 137.423 86.0496C136.261 86.6756 135.825 88.2516 136.261 89.5036C136.696 90.7555 137.848 91.6497 139.089 92.0857C140.978 92.7452 143.213 92.544 145.192 92.5887C147.785 92.6446 151.809 93.0246 153.475 90.6102C154.056 89.7607 154.291 88.6429 153.933 87.6816C153.631 86.8544 152.893 86.2061 152.055 85.9713C150.714 85.5913 148.925 86.262 148.378 87.6145C148.087 88.3411 148.076 89.1459 148.076 89.9172C148.065 96.8028 148.042 103.688 148.031 110.563" stroke="#DD4F24" stroke-miterlimit="10"/>
<g style="mix-blend-mode:multiply" opacity="0.38">
<path d="M141.156 66.9801C143.548 67.5949 145.851 70.8477 146.857 72.7927C148.21 75.3971 148.791 78.3481 148.992 81.2767C149.294 85.8597 148.657 90.4538 147.494 94.8802C146.902 97.1494 146.164 99.3849 145.348 101.587C144.621 103.543 144.096 105.03 142.33 106.259C140.251 107.713 137.065 107.679 135.411 105.768C135.556 107.947 137.266 109.926 139.457 110.228C143.023 110.719 146.488 110.731 149.83 110.272C151.954 109.982 153.664 108.372 153.989 106.438L154.536 102.85C154.816 101.028 155.632 99.3179 156.895 97.9765C159.723 94.9473 163.736 92.6111 163.736 85.1219C163.736 79.2647 160.908 73.6534 156.213 70.1547C153.888 68.4333 151.172 67.2596 148.321 66.7566C145.851 66.3206 143.146 66.3989 140.687 66.9019C140.843 66.9243 141 66.9466 141.156 66.9913V66.9801Z" fill="#FF7D33"/>
</g>
<path d="M129.555 80.2483C129.298 81.0642 129.142 81.9138 129.108 82.7745C129.075 83.4563 129.086 84.1717 129.421 84.7753C129.756 85.3789 130.528 85.7701 131.142 85.4795C131.713 85.2001 131.903 84.4959 132.07 83.8811C132.651 81.7237 133.188 79.8682 134.809 78.2027C135.29 77.7109 135.815 77.2637 136.228 76.7272C136.653 76.1907 136.966 75.5312 136.944 74.8493C136.922 74.1675 136.474 73.4744 135.804 73.3179C135.323 73.2062 134.82 73.385 134.373 73.6086C131.645 74.9611 130.405 77.5208 129.555 80.2594V80.2483Z" fill="white"/>
<path d="M130.058 90.8895C130.304 91.9178 130.897 92.8344 131.612 93.6169C131.981 94.0193 132.394 94.3993 132.909 94.5893C133.423 94.7682 134.06 94.7011 134.418 94.2987C134.831 93.8404 134.775 93.125 134.529 92.5661C134.283 92.0072 133.881 91.5378 133.602 90.99C133.088 89.9617 132.819 88.0726 131.288 88.0838C129.879 88.095 129.812 89.8611 130.047 90.9006L130.058 90.8895Z" fill="white"/>
<path d="M151.786 118.432C147.181 119.304 142.531 119.304 137.847 118.432V109.479C142.62 110.172 147.282 110.205 151.786 109.434V118.432Z" fill="#304FC9"/>
<path d="M148.535 119.896C148.535 123.775 141.079 123.484 141.079 119.896V115.537H148.535V119.896Z" fill="#304FC9"/>
<path d="M152.458 118.432C147.506 119.326 142.375 119.349 137.066 118.432C135.568 118.041 135.847 113.491 137.066 113.491C142.342 114.486 147.484 114.542 152.458 113.491C153.475 113.491 153.542 118.13 152.458 118.432Z" fill="#304FC9"/>
<path d="M151.787 119.785C147.137 120.623 142.487 120.623 137.848 119.785C137.122 119.393 137.468 118.756 137.848 118.376C142.498 119.349 147.148 119.349 151.787 118.376C152.312 118.857 152.48 119.662 151.787 119.785Z" fill="#304FC9"/>
<path d="M149.819 120.802C146.488 121.439 143.112 121.439 139.703 120.802C139.301 120.545 139.301 120.288 139.703 120.031C143.124 120.545 146.488 120.545 149.819 120.031C150.3 120.288 150.3 120.545 149.819 120.802Z" fill="#304FC9"/>
<path d="M152.458 112.43C147.674 113.424 142.532 113.357 137.066 112.43C136.485 112.284 136.675 111.289 137.066 111.2C142.342 112.172 147.484 112.228 152.458 111.2C153.14 111.2 153.185 112.273 152.458 112.43Z" fill="#304FC9"/>
<path d="M146.074 51.4426C146.455 54.7401 146.678 58.06 146.745 61.3798" stroke="#FF7D33" stroke-miterlimit="10" stroke-linecap="round"/>
<path d="M167.111 82.8414C171.292 82.4948 175.472 82.1595 179.642 81.813" stroke="#FF7D33" stroke-miterlimit="10" stroke-linecap="round"/>
<path d="M104.18 90.5992C109.925 90.152 115.671 89.7049 121.405 89.2578" stroke="#FF7D33" stroke-miterlimit="10" stroke-linecap="round"/>
<path d="M115.738 71.1938C117.884 72.4681 120.019 73.7424 122.165 75.0167" stroke="#FF7D33" stroke-miterlimit="10" stroke-linecap="round"/>
<path d="M122.467 62.6765C124.289 64.2526 126.1 65.8287 127.922 67.4048" stroke="#FF7D33" stroke-miterlimit="10" stroke-linecap="round"/>
<path d="M161.075 69.1819C162.73 67.5387 164.395 65.8844 166.05 64.2412" stroke="#FF7D33" stroke-miterlimit="10" stroke-linecap="round"/>
<path d="M127.932 101.576C125.25 104.638 122.567 107.69 119.873 110.753" stroke="#FF7D33" stroke-miterlimit="10" stroke-linecap="round"/>
<path d="M162.931 99.2283C165.714 102.012 168.497 104.795 171.281 107.578" stroke="#FF7D33" stroke-miterlimit="10" stroke-linecap="round"/>
<path d="M166.866 93.7178C168.174 94.6791 169.47 95.6404 170.778 96.5905" stroke="#FF7D33" stroke-miterlimit="10" stroke-linecap="round"/>
<path d="M158.739 107.075C159.432 108.551 160.125 110.037 160.818 111.513" stroke="#FF7D33" stroke-miterlimit="10" stroke-linecap="round"/>
<path d="M130.827 109.68C130.403 111.032 129.676 112.284 128.726 113.324" stroke="#FF7D33" stroke-miterlimit="10" stroke-linecap="round"/>
<path d="M116.967 99.7202C118.521 99.2954 119.985 98.5241 121.215 97.4734" stroke="#FF7D33" stroke-miterlimit="10" stroke-linecap="round"/>
<path d="M134.807 56.9084C135.321 58.3951 135.824 59.8818 136.338 61.3573" stroke="#FF7D33" stroke-miterlimit="10" stroke-linecap="round"/>
<path d="M155.419 62.7102C156.268 61.1341 157.118 59.558 157.979 57.9819" stroke="#FF7D33" stroke-miterlimit="10" stroke-linecap="round"/>
<path d="M294.602 105.472C318.825 95.6663 330.511 68.0808 320.705 43.8585C310.899 19.6362 283.313 7.9495 259.091 17.7556C234.869 27.5618 223.182 55.1473 232.988 79.3696C242.794 103.592 270.38 115.279 294.602 105.472Z" fill="white" stroke="#FFC127" stroke-miterlimit="10"/>
<path d="M277.349 87.6816C291.838 87.6816 303.584 75.936 303.584 61.447C303.584 46.958 291.838 35.2124 277.349 35.2124C262.86 35.2124 251.115 46.958 251.115 61.447C251.115 75.936 262.86 87.6816 277.349 87.6816Z" stroke="#304FC9" stroke-width="2" stroke-miterlimit="10"/>
<path d="M277.784 87.3238C293.434 74.5362 293.545 49.2518 277.628 35.447C277.471 35.3129 277.226 35.3241 277.08 35.4694C261.565 51.5879 261.688 71.5405 276.946 87.2679C277.17 87.4914 277.539 87.5138 277.773 87.3238H277.784Z" stroke="#304FC9" stroke-width="2" stroke-miterlimit="10" stroke-linecap="round"/>
<path d="M277.349 35.2124V87.6816" stroke="#304FC9" stroke-width="2" stroke-miterlimit="10" stroke-linecap="round"/>
<path d="M251.115 61.4468H303.584" stroke="#304FC9" stroke-width="2" stroke-miterlimit="10" stroke-linecap="round"/>
<path d="M257.899 43.8306C265.467 52.0352 287.096 53.6001 296.787 43.8306" stroke="#304FC9" stroke-width="2" stroke-miterlimit="10" stroke-linecap="round"/>
<path d="M296.787 79.0522C285.71 69.7186 266.808 70.624 257.899 79.0522" stroke="#304FC9" stroke-width="2" stroke-miterlimit="10" stroke-linecap="round"/>
<path d="M277.506 32.2613L277.349 23.7549" stroke="#304FC9" stroke-miterlimit="10" stroke-linecap="round"/>
<path d="M292.138 35.3576L296.788 28.0137" stroke="#304FC9" stroke-miterlimit="10" stroke-linecap="round"/>
<path d="M302.891 47.2061L310.403 42.489" stroke="#304FC9" stroke-miterlimit="10" stroke-linecap="round"/>
<path d="M306.646 61.4468C306.59 61.5809 315.488 61.4468 315.488 61.4468" stroke="#304FC9" stroke-miterlimit="10" stroke-linecap="round"/>
<path d="M302.891 75.7212L310.403 80.7736" stroke="#304FC9" stroke-miterlimit="10" stroke-linecap="round"/>
<path d="M292.138 86.6643L296.788 94.2988" stroke="#304FC9" stroke-miterlimit="10" stroke-linecap="round"/>
<path d="M277.506 90.4871V99.2729" stroke="#304FC9" stroke-miterlimit="10" stroke-linecap="round"/>
<path d="M263.108 86.6643L258.593 94.2988" stroke="#304FC9" stroke-miterlimit="10" stroke-linecap="round"/>
<path d="M244.486 80.7736L252.467 75.7212" stroke="#304FC9" stroke-miterlimit="10" stroke-linecap="round"/>
<path d="M237.422 61.5139H247.258" stroke="#304FC9" stroke-miterlimit="10" stroke-linecap="round"/>
<path d="M244.486 42.489L252.467 47.2061" stroke="#304FC9" stroke-miterlimit="10" stroke-linecap="round"/>
<path d="M258.593 28.6172L263.108 36.2517" stroke="#304FC9" stroke-miterlimit="10" stroke-linecap="round"/>
</svg>
