<svg width="36" height="37" viewBox="0 0 36 37" fill="none" xmlns="http://www.w3.org/2000/svg">
<path d="M12 9.125C11.385 9.125 10.875 8.615 10.875 8V3.5C10.875 2.885 11.385 2.375 12 2.375C12.615 2.375 13.125 2.885 13.125 3.5V8C13.125 8.615 12.615 9.125 12 9.125Z" fill="#1A2035"/>
<path d="M24 9.125C23.385 9.125 22.875 8.615 22.875 8V3.5C22.875 2.885 23.385 2.375 24 2.375C24.615 2.375 25.125 2.885 25.125 3.5V8C25.125 8.615 24.615 9.125 24 9.125Z" fill="#1A2035"/>
<path d="M30.75 15.26H5.25C4.635 15.26 4.125 14.75 4.125 14.135C4.125 13.52 4.635 13.01 5.25 13.01H30.75C31.365 13.01 31.875 13.52 31.875 14.135C31.875 14.75 31.365 15.26 30.75 15.26Z" fill="#1A2035"/>
<path d="M24 34.625H12C6.525 34.625 3.375 31.475 3.375 26V13.25C3.375 7.775 6.525 4.625 12 4.625H24C29.475 4.625 32.625 7.775 32.625 13.25V26C32.625 31.475 29.475 34.625 24 34.625ZM12 6.875C7.71 6.875 5.625 8.96 5.625 13.25V26C5.625 30.29 7.71 32.375 12 32.375H24C28.29 32.375 30.375 30.29 30.375 26V13.25C30.375 8.96 28.29 6.875 24 6.875H12Z" fill="#1A2035"/>
<path d="M12.75 22.25C12.555 22.25 12.36 22.205 12.18 22.13C12 22.055 11.835 21.95 11.685 21.815C11.55 21.665 11.445 21.5 11.37 21.32C11.295 21.14 11.25 20.945 11.25 20.75C11.25 20.36 11.415 19.97 11.685 19.685C11.835 19.55 12 19.445 12.18 19.37C12.45 19.25 12.75 19.22 13.05 19.28C13.14 19.295 13.23 19.325 13.32 19.37C13.41 19.4 13.5 19.445 13.59 19.505C13.665 19.565 13.74 19.625 13.815 19.685C13.875 19.76 13.95 19.835 13.995 19.91C14.055 20 14.1 20.09 14.13 20.18C14.175 20.27 14.205 20.36 14.22 20.45C14.235 20.555 14.25 20.645 14.25 20.75C14.25 21.14 14.085 21.53 13.815 21.815C13.53 22.085 13.14 22.25 12.75 22.25Z" fill="#1A2035"/>
<path d="M18 22.2501C17.61 22.2501 17.22 22.085 16.935 21.815C16.875 21.74 16.815 21.665 16.755 21.59C16.695 21.5 16.65 21.4101 16.62 21.3201C16.575 21.2301 16.545 21.1401 16.53 21.0501C16.515 20.9451 16.5 20.8551 16.5 20.7501C16.5 20.5551 16.545 20.36 16.62 20.18C16.695 20 16.8 19.8351 16.935 19.6851C17.355 19.2651 18.03 19.13 18.57 19.37C18.765 19.445 18.915 19.5501 19.065 19.6851C19.335 19.9701 19.5 20.3601 19.5 20.7501C19.5 20.8551 19.485 20.9451 19.47 21.0501C19.455 21.1401 19.425 21.2301 19.38 21.3201C19.35 21.4101 19.305 21.5 19.245 21.59C19.185 21.665 19.125 21.74 19.065 21.815C18.915 21.95 18.765 22.0551 18.57 22.1301C18.39 22.2051 18.195 22.2501 18 22.2501Z" fill="#1A2035"/>
<path d="M12.75 27.5001C12.555 27.5001 12.36 27.4551 12.18 27.3801C12 27.3051 11.835 27.2 11.685 27.065C11.55 26.915 11.445 26.7651 11.37 26.5701C11.295 26.3901 11.25 26.1951 11.25 26.0001C11.25 25.6101 11.415 25.2201 11.685 24.9351C11.835 24.8001 12 24.695 12.18 24.62C12.735 24.38 13.395 24.5151 13.815 24.9351C13.875 25.0101 13.95 25.0851 13.995 25.1601C14.055 25.2501 14.1 25.34 14.13 25.43C14.175 25.52 14.205 25.6101 14.22 25.715C14.235 25.8051 14.25 25.9101 14.25 26.0001C14.25 26.3901 14.085 26.78 13.815 27.065C13.53 27.335 13.14 27.5001 12.75 27.5001Z" fill="#1A2035"/>
</svg>
