<svg width="32" height="32" viewBox="0 0 32 32" fill="none" xmlns="http://www.w3.org/2000/svg">
<path d="M16.0001 29.4399C15.6001 29.4399 15.2001 29.3466 14.8667 29.1599C12.3734 27.7999 7.98675 26.3599 5.24008 25.9999L4.85342 25.9466C3.10675 25.7333 1.66675 24.0933 1.66675 22.3199V6.21326C1.66675 5.15993 2.08008 4.19993 2.84008 3.5066C3.60008 2.81326 4.58675 2.47993 5.62675 2.57326C8.56008 2.79993 12.9867 4.2666 15.4934 5.83993L15.8134 6.0266C15.9067 6.07993 16.1067 6.07993 16.1867 6.03993L16.4001 5.9066C18.9067 4.33326 23.3334 2.83993 26.2801 2.5866C26.3067 2.5866 26.4134 2.5866 26.4401 2.5866C27.4134 2.49326 28.4134 2.83993 29.1601 3.53326C29.9201 4.2266 30.3334 5.1866 30.3334 6.23993V22.3333C30.3334 24.1199 28.8934 25.7466 27.1334 25.9599L26.6934 26.0133C23.9467 26.3733 19.5467 27.8266 17.1067 29.1733C16.7867 29.3599 16.4001 29.4399 16.0001 29.4399ZM5.30675 4.55993C4.88008 4.55993 4.49341 4.7066 4.18675 4.9866C3.85342 5.29326 3.66675 5.73326 3.66675 6.21326V22.3199C3.66675 23.1066 4.34675 23.8666 5.10675 23.9733L5.50675 24.0266C8.50675 24.4266 13.1067 25.9333 15.7734 27.3866C15.8934 27.4399 16.0667 27.4533 16.1334 27.4266C18.8001 25.9466 23.4267 24.4266 26.4401 24.0266L26.8934 23.9733C27.6534 23.8799 28.3334 23.1066 28.3334 22.3199V6.2266C28.3334 5.73326 28.1467 5.3066 27.8134 4.9866C27.4667 4.67993 27.0267 4.53326 26.5334 4.55993C26.5067 4.55993 26.4001 4.55993 26.3734 4.55993C23.8267 4.7866 19.7201 6.15993 17.4801 7.55993L17.2667 7.7066C16.5334 8.15993 15.4934 8.15993 14.7867 7.71993L14.4667 7.53326C12.1867 6.13326 8.08008 4.77326 5.46675 4.55993C5.41341 4.55993 5.36008 4.55993 5.30675 4.55993Z" fill="#304FC9"/>
<path d="M16 28.3201C15.4533 28.3201 15 27.8667 15 27.3201V7.32007C15 6.7734 15.4533 6.32007 16 6.32007C16.5467 6.32007 17 6.7734 17 7.32007V27.3201C17 27.8801 16.5467 28.3201 16 28.3201Z" fill="#304FC9"/>
<path d="M10.3333 12.3201H7.33325C6.78659 12.3201 6.33325 11.8667 6.33325 11.3201C6.33325 10.7734 6.78659 10.3201 7.33325 10.3201H10.3333C10.8799 10.3201 11.3333 10.7734 11.3333 11.3201C11.3333 11.8667 10.8799 12.3201 10.3333 12.3201Z" fill="#304FC9"/>
<path d="M11.3333 16.3201H7.33325C6.78659 16.3201 6.33325 15.8667 6.33325 15.3201C6.33325 14.7734 6.78659 14.3201 7.33325 14.3201H11.3333C11.8799 14.3201 12.3333 14.7734 12.3333 15.3201C12.3333 15.8667 11.8799 16.3201 11.3333 16.3201Z" fill="#304FC9"/>
</svg>
