<svg width="32" height="32" viewBox="0 0 32 32" fill="none" xmlns="http://www.w3.org/2000/svg">
<path d="M23.8268 29.1599C23.4134 29.1599 23.0001 29.0532 22.6268 28.8266L17.2801 25.6532C16.7201 25.6399 16.1601 25.5999 15.6268 25.5199C15.2668 25.4666 14.9601 25.2266 14.8268 24.8799C14.6934 24.5332 14.7601 24.1599 15.0001 23.8799C15.8801 22.8532 16.3334 21.6266 16.3334 20.3199C16.3334 17.0932 13.4934 14.4666 10.0001 14.4666C8.69343 14.4666 7.44009 14.8266 6.38676 15.5199C6.09343 15.7066 5.73343 15.7333 5.41343 15.5866C5.10677 15.4399 4.88011 15.1466 4.84011 14.7999C4.80011 14.4266 4.77344 14.0533 4.77344 13.6666C4.77344 7.05325 10.5068 1.67993 17.5468 1.67993C24.5868 1.67993 30.3201 7.05325 30.3201 13.6666C30.3201 17.2933 28.6401 20.6266 25.6801 22.9066L26.1334 26.5333C26.2401 27.44 25.8401 28.2933 25.0801 28.7866C24.7068 29.0266 24.2668 29.1599 23.8268 29.1599ZM17.5334 23.6399C17.7201 23.6266 17.9068 23.68 18.0668 23.7866L23.6534 27.1066C23.8001 27.1999 23.9201 27.1599 24.0001 27.1066C24.0668 27.0666 24.1734 26.9599 24.1468 26.7733L23.6268 22.5599C23.5868 22.1866 23.7468 21.8266 24.0401 21.6133C26.7601 19.7066 28.3201 16.7999 28.3201 13.6399C28.3201 8.13323 23.4934 3.65324 17.5468 3.65324C11.8268 3.65324 7.13343 7.81329 6.78676 13.04C7.78676 12.6533 8.86678 12.4399 9.98678 12.4399C14.5868 12.4399 18.3201 15.9599 18.3201 20.2932C18.3334 21.4665 18.0534 22.5999 17.5334 23.6399Z" fill="#304FC9"/>
<path d="M6.10636 30.3333C5.7597 30.3333 5.42636 30.24 5.11969 30.04C4.51969 29.6534 4.1997 28.9867 4.2797 28.28L4.54637 26.2266C2.74637 24.76 1.67969 22.5866 1.67969 20.3066C1.67969 17.7066 3.0397 15.28 5.3197 13.8267C6.69304 12.9333 8.31969 12.4534 10.013 12.4534C14.613 12.4534 18.3464 15.9733 18.3464 20.3066C18.3464 22.0666 17.7064 23.8 16.533 25.1733C15.0264 27 12.773 28.0666 10.293 28.1466L7.03969 30.08C6.74636 30.2533 6.42636 30.3333 6.10636 30.3333ZM9.99969 14.4534C8.69303 14.4534 7.43969 14.8133 6.38635 15.5067C4.67969 16.6 3.66636 18.3866 3.66636 20.3066C3.66636 22.16 4.57303 23.8534 6.17303 24.9467C6.4797 25.16 6.63969 25.52 6.59969 25.8933L6.30636 28.1733L9.49302 26.28C9.65302 26.1867 9.82636 26.1333 9.99969 26.1333C11.9597 26.1333 13.813 25.2934 14.9864 23.8667C15.8664 22.8267 16.333 21.6 16.333 20.2933C16.333 17.08 13.493 14.4534 9.99969 14.4534Z" fill="#304FC9"/>
</svg>
