<svg width="32" height="32" viewBox="0 0 32 32" fill="none" xmlns="http://www.w3.org/2000/svg">
<path d="M16 14.0267C15.4533 14.0267 15 13.5733 15 13.0267V8.58667C15 8.04 15.4533 7.58667 16 7.58667C16.5467 7.58667 17 8.04 17 8.58667V13.0267C17 13.5867 16.5467 14.0267 16 14.0267Z" fill="#1C1C1C"/>
<path d="M16.0271 27.1333C12.5871 27.1333 9.16047 26.5867 5.89381 25.4933C4.68047 25.0933 3.76047 24.2267 3.36047 23.1333C2.96047 22.04 3.09381 20.7867 3.74714 19.6933L5.44047 16.8667C5.81381 16.24 6.14714 15.0667 6.14714 14.3333V11.5333C6.14714 6.07999 10.5738 1.65332 16.0271 1.65332C21.4805 1.65332 25.9071 6.07999 25.9071 11.5333V14.3333C25.9071 15.0533 26.2405 16.24 26.6138 16.8667L28.3071 19.6933C28.9338 20.7333 29.0405 21.9733 28.6271 23.1067C28.2138 24.24 27.3071 25.1067 26.1605 25.4933C22.8938 26.6 19.4671 27.1333 16.0271 27.1333ZM16.0271 3.66665C11.6805 3.66665 8.14714 7.19999 8.14714 11.5467V14.3467C8.14714 15.4267 7.72047 16.9867 7.16047 17.9067L5.46714 20.7467C5.12047 21.32 5.04047 21.9333 5.24047 22.4667C5.44047 23 5.89381 23.4 6.53381 23.6133C12.6671 25.6533 19.4138 25.6533 25.5471 23.6133C26.1205 23.4267 26.5605 23 26.7605 22.44C26.9738 21.88 26.9071 21.2667 26.6005 20.7467L24.9071 17.92C24.3471 17 23.9205 15.44 23.9205 14.36V11.56C23.9071 7.19999 20.3738 3.66665 16.0271 3.66665Z" fill="#1C1C1C"/>
<path d="M16.0005 30.5333C14.5739 30.5333 13.1739 29.9466 12.1605 28.9333C11.1472 27.9199 10.5605 26.5199 10.5605 25.0933H12.5605C12.5605 25.9999 12.9339 26.8799 13.5739 27.5199C14.2139 28.1599 15.0939 28.5333 16.0005 28.5333C17.8939 28.5333 19.4405 26.9866 19.4405 25.0933H21.4405C21.4405 28.0933 19.0005 30.5333 16.0005 30.5333Z" fill="#1C1C1C"/>
</svg>
