<svg width="32" height="32" viewBox="0 0 32 32" fill="none" xmlns="http://www.w3.org/2000/svg">
<path d="M12.2129 15.4934C12.1729 15.4934 12.1463 15.4934 12.1063 15.4934C12.0396 15.4801 11.9463 15.4801 11.8663 15.4934C7.99959 15.3734 5.07959 12.3334 5.07959 8.58675C5.07959 4.77341 8.18626 1.66675 11.9996 1.66675C15.8129 1.66675 18.9196 4.77341 18.9196 8.58675C18.9063 12.3334 15.9729 15.3734 12.2529 15.4934C12.2396 15.4934 12.2263 15.4934 12.2129 15.4934ZM11.9996 3.66675C9.29292 3.66675 7.07959 5.88008 7.07959 8.58675C7.07959 11.2534 9.15959 13.4001 11.8129 13.4934C11.8929 13.4801 12.0663 13.4801 12.2396 13.4934C14.8529 13.3734 16.9063 11.2267 16.9196 8.58675C16.9196 5.88008 14.7063 3.66675 11.9996 3.66675Z" fill="#304FC9"/>
<path d="M22.0529 15.6666C22.0129 15.6666 21.9729 15.6666 21.9329 15.6533C21.3862 15.7066 20.8262 15.3199 20.7729 14.7733C20.7196 14.2266 21.0529 13.7333 21.5996 13.6666C21.7596 13.6533 21.9329 13.6533 22.0796 13.6533C24.0262 13.5466 25.5462 11.9466 25.5462 9.98659C25.5462 7.95992 23.9062 6.31992 21.8796 6.31992C21.3329 6.33325 20.8796 5.87992 20.8796 5.33325C20.8796 4.78659 21.3329 4.33325 21.8796 4.33325C24.9996 4.33325 27.5462 6.87992 27.5462 9.99992C27.5462 13.0666 25.1462 15.5466 22.0929 15.6666C22.0796 15.6666 22.0662 15.6666 22.0529 15.6666Z" fill="#304FC9"/>
<path d="M12.2261 30.0666C9.61281 30.0666 6.98615 29.3999 4.99948 28.0666C3.14615 26.8399 2.13281 25.1599 2.13281 23.3333C2.13281 21.5066 3.14615 19.8133 4.99948 18.5733C8.99948 15.9199 15.4795 15.9199 19.4528 18.5733C21.2928 19.7999 22.3195 21.4799 22.3195 23.3066C22.3195 25.1333 21.3061 26.8266 19.4528 28.0666C17.4528 29.3999 14.8395 30.0666 12.2261 30.0666ZM6.10615 20.2533C4.82615 21.1066 4.13281 22.1999 4.13281 23.3466C4.13281 24.4799 4.83948 25.5732 6.10615 26.4132C9.42615 28.6399 15.0261 28.6399 18.3461 26.4132C19.6261 25.5599 20.3195 24.4666 20.3195 23.3199C20.3195 22.1866 19.6128 21.0933 18.3461 20.2533C15.0261 18.0399 9.42615 18.0399 6.10615 20.2533Z" fill="#304FC9"/>
<path d="M24.4528 27.6667C23.9862 27.6667 23.5728 27.3467 23.4795 26.8667C23.3728 26.32 23.7195 25.8 24.2528 25.68C25.0928 25.5067 25.8662 25.1734 26.4662 24.7067C27.2262 24.1334 27.6395 23.4134 27.6395 22.6534C27.6395 21.8934 27.2262 21.1734 26.4795 20.6134C25.8928 20.16 25.1595 19.84 24.2928 19.64C23.7595 19.52 23.4128 18.9867 23.5328 18.44C23.6528 17.9067 24.1862 17.56 24.7328 17.68C25.8795 17.9334 26.8795 18.3867 27.6928 19.0134C28.9328 19.9467 29.6395 21.2667 29.6395 22.6534C29.6395 24.04 28.9195 25.36 27.6795 26.3067C26.8528 26.9467 25.8128 27.4134 24.6662 27.64C24.5862 27.6667 24.5195 27.6667 24.4528 27.6667Z" fill="#304FC9"/>
</svg>
