<svg width="32" height="32" viewBox="0 0 32 32" fill="none" xmlns="http://www.w3.org/2000/svg">
<path d="M17.3999 25.8932C16.6799 25.8932 15.9199 25.8266 15.0932 25.6932L8.8399 24.7066C6.86657 24.3999 5.34657 23.8532 4.21323 23.0532C1.29323 21.0266 1.46657 17.5466 1.8399 15.1066L2.82657 8.85324C3.73323 3.1199 6.69323 0.973239 12.4266 1.86657L18.6799 2.85324C21.6266 3.31991 25.5866 4.50657 25.8399 9.47991C25.8932 10.3332 25.8399 11.3066 25.6532 12.4532L24.6799 18.7066C23.9066 23.5999 21.6266 25.8932 17.3999 25.8932ZM10.0399 3.66657C6.86657 3.66657 5.42657 5.27991 4.7999 9.17324L3.81323 15.4266C3.1999 19.3599 4.3199 20.6932 5.3599 21.4266C6.2399 22.0532 7.4799 22.4799 9.14657 22.7332L15.3999 23.7199C20.0532 24.4532 21.9732 23.0532 22.7066 18.3866L23.6799 12.1332C23.8399 11.1332 23.8932 10.2932 23.8399 9.58657V9.57324C23.6932 6.77324 22.1066 5.39991 18.3599 4.81324L12.1199 3.83991C11.3466 3.71991 10.6666 3.66657 10.0399 3.66657Z" fill="#304FC9"/>
<path d="M19.5734 30.3334C18.4401 30.3334 17.1601 30.0934 15.6801 29.6001L9.66676 27.6001C6.24009 26.4668 4.38676 24.8401 3.82676 22.4668C3.73343 22.0668 3.89343 21.6401 4.24009 21.4134C4.58676 21.1868 5.04009 21.1868 5.37343 21.4268C6.25343 22.0534 7.48009 22.4801 9.14676 22.7334L15.4001 23.7201C20.0534 24.4534 21.9734 23.0534 22.7068 18.3868L23.6801 12.1334C23.8401 11.1334 23.8934 10.2934 23.8401 9.58676C23.8268 9.2401 24.0001 8.89343 24.3068 8.69343C24.6134 8.49343 25.0001 8.4801 25.3201 8.65343C28.8934 10.5601 29.8401 13.6134 28.2934 18.2801L26.2934 24.2934C25.3468 27.1201 24.1068 28.8534 22.3734 29.7201C21.5334 30.1334 20.6134 30.3334 19.5734 30.3334ZM7.64009 24.4801C8.28009 24.9068 9.13343 25.3201 10.2934 25.7068L16.3068 27.7068C18.6001 28.4668 20.2401 28.5334 21.4668 27.9334C22.6934 27.3201 23.6268 25.9601 24.3868 23.6668L26.3868 17.6534C27.4801 14.3468 27.0534 12.5868 25.7868 11.4001C25.7601 11.7334 25.7068 12.0801 25.6534 12.4534L24.6801 18.7068C23.7734 24.4401 20.8134 26.5868 15.0801 25.7068L8.82676 24.7201C8.41343 24.6401 8.01343 24.5601 7.64009 24.4801Z" fill="#304FC9"/>
<path d="M10.9867 12.9601C9.16008 12.9601 7.66675 11.4667 7.66675 9.64007C7.66675 7.8134 9.16008 6.32007 10.9867 6.32007C12.8134 6.32007 14.3067 7.8134 14.3067 9.64007C14.3067 11.4667 12.8134 12.9601 10.9867 12.9601ZM10.9867 8.3334C10.2667 8.3334 9.66675 8.92007 9.66675 9.6534C9.66675 10.3867 10.2534 10.9734 10.9867 10.9734C11.7067 10.9734 12.3067 10.3867 12.3067 9.6534C12.3067 8.92007 11.7067 8.3334 10.9867 8.3334Z" fill="#304FC9"/>
</svg>
