<svg width="45" height="55" viewBox="0 0 45 55" fill="none" xmlns="http://www.w3.org/2000/svg">
<path d="M36.9585 29.3046C37.0112 25.1897 39.2086 21.2961 42.6945 19.1409C40.4954 15.9823 36.812 13.9797 32.9798 13.8591C28.8924 13.4276 24.9299 16.3188 22.847 16.3188C20.7238 16.3188 17.517 13.9019 14.0637 13.9734C9.5625 14.1196 5.36626 16.6933 3.17634 20.6509C-1.53113 28.8475 1.98022 40.8937 6.48958 47.5191C8.74571 50.7634 11.3825 54.3874 14.8326 54.2589C18.2088 54.1181 19.4698 52.0938 23.5451 52.0938C27.5826 52.0938 28.7657 54.2589 32.2858 54.1772C35.9086 54.118 38.1912 50.9185 40.3681 47.6434C41.9892 45.3317 43.2365 42.7768 44.0641 40.0733C39.8066 38.2624 36.9634 33.9535 36.9585 29.3046Z" fill="#1A2035"/>
<path d="M30.3094 9.50186C32.2847 7.11711 33.2579 4.05191 33.0222 0.957214C30.0044 1.27598 27.2168 2.7265 25.2148 5.01975C23.2571 7.26038 22.2383 10.2716 22.4309 13.2481C25.4499 13.2793 28.4177 11.8681 30.3094 9.50186Z" fill="#1A2035"/>
</svg>
