<svg width="354" height="166" viewBox="0 0 354 166" fill="none" xmlns="http://www.w3.org/2000/svg">
<g filter="url(#filter0_dddd_31_2993)">
<rect x="30.7781" y="11" width="291.8" height="104.214" rx="11.9787" fill="white"/>
</g>
<path d="M124.702 53.353V41.537H128.87C132.374 41.537 134.462 43.6906 134.462 47.4082V47.4245C134.462 51.1585 132.391 53.353 128.87 53.353H124.702ZM126.536 51.7645H128.698C131.203 51.7645 132.587 50.2332 132.587 47.4409V47.4245C132.587 44.6486 131.187 43.1174 128.698 43.1174H126.536V51.7645ZM139.703 53.525C137.23 53.525 135.617 51.8136 135.617 49.0459V49.0295C135.617 46.2781 137.246 44.5749 139.695 44.5749C142.151 44.5749 143.789 46.2699 143.789 49.0295V49.0459C143.789 51.8218 142.168 53.525 139.703 53.525ZM139.711 52.0429C141.095 52.0429 141.979 50.9456 141.979 49.0459V49.0295C141.979 47.1461 141.079 46.057 139.695 46.057C138.336 46.057 137.427 47.1461 137.427 49.0295V49.0459C137.427 50.9538 138.327 52.0429 139.711 52.0429ZM146.819 53.353L144.452 44.7387H146.221L147.793 51.5188H147.826L149.619 44.7387H151.323L153.124 51.5188H153.165L154.737 44.7387H156.49L154.131 53.353H152.289L150.479 46.9005H150.438L148.645 53.353H146.819ZM157.57 53.353V44.7387H159.339V46.0407H159.38C159.83 45.1645 160.715 44.5749 162.017 44.5749C163.908 44.5749 164.997 45.795 164.997 47.7766V53.353H163.22V48.1124C163.22 46.8186 162.615 46.0898 161.386 46.0898C160.142 46.0898 159.339 46.9905 159.339 48.3335V53.353H157.57ZM166.774 53.353V41.537H168.543V53.353H166.774ZM174.062 53.525C171.589 53.525 169.976 51.8136 169.976 49.0459V49.0295C169.976 46.2781 171.606 44.5749 174.054 44.5749C176.51 44.5749 178.148 46.2699 178.148 49.0295V49.0459C178.148 51.8218 176.527 53.525 174.062 53.525ZM174.07 52.0429C175.454 52.0429 176.339 50.9456 176.339 49.0459V49.0295C176.339 47.1461 175.438 46.057 174.054 46.057C172.695 46.057 171.786 47.1461 171.786 49.0295V49.0459C171.786 50.9538 172.686 52.0429 174.07 52.0429ZM182.046 53.5086C180.326 53.5086 179.172 52.4523 179.172 50.9047V50.8883C179.172 49.3898 180.335 48.4727 182.373 48.3498L184.715 48.2106V47.5637C184.715 46.6139 184.101 46.0407 183.004 46.0407C181.98 46.0407 181.35 46.5238 181.202 47.2116L181.186 47.2853H179.516L179.524 47.1953C179.647 45.7131 180.932 44.5749 183.053 44.5749C185.158 44.5749 186.492 45.6886 186.492 47.4163V53.353H184.715V51.9937H184.683C184.183 52.919 183.184 53.5086 182.046 53.5086ZM180.957 50.8637C180.957 51.6171 181.579 52.092 182.529 52.092C183.774 52.092 184.715 51.2486 184.715 50.1267V49.4553L182.611 49.5863C181.546 49.6518 180.957 50.1186 180.957 50.8473V50.8637ZM191.43 53.525C189.235 53.525 187.827 51.789 187.827 49.0459V49.0377C187.827 46.2945 189.252 44.5749 191.414 44.5749C192.634 44.5749 193.616 45.1891 194.132 46.2044H194.165V41.537H195.942V53.353H194.165V51.8955H194.132C193.616 52.9027 192.666 53.525 191.43 53.525ZM191.897 52.0019C193.231 52.0019 194.173 50.8391 194.173 49.0459V49.0377C194.173 47.2526 193.223 46.0898 191.897 46.0898C190.505 46.0898 189.637 47.2198 189.637 49.0377V49.0459C189.637 50.8801 190.496 52.0019 191.897 52.0019Z" fill="#1A2035"/>
<path d="M133.44 82.276C127.401 82.276 123.599 78.0647 123.599 71.28V71.2653C123.599 64.6121 127.401 60.474 133.396 60.474C138.338 60.474 141.438 63.3254 142.315 67.1272L142.374 67.3904H139.011L138.967 67.2296C138.075 64.7876 136.159 63.3692 133.41 63.3692C129.375 63.3692 126.933 66.3083 126.933 71.2507V71.2653C126.933 76.3101 129.448 79.3808 133.469 79.3808C136.89 79.3808 139.259 77.2166 139.303 74.0143V73.6634H133.761V70.9875H142.535V73.1516C142.535 78.869 139.157 82.276 133.44 82.276ZM151.966 82.2321C147.55 82.2321 144.67 79.176 144.67 74.2337V74.2044C144.67 69.2913 147.579 66.2499 151.952 66.2499C156.338 66.2499 159.263 69.2767 159.263 74.2044V74.2337C159.263 79.1907 156.367 82.2321 151.966 82.2321ZM151.981 79.5855C154.452 79.5855 156.031 77.6261 156.031 74.2337V74.2044C156.031 70.8413 154.423 68.8965 151.952 68.8965C149.524 68.8965 147.901 70.8413 147.901 74.2044V74.2337C147.901 77.6407 149.51 79.5855 151.981 79.5855ZM168.314 82.2321C163.898 82.2321 161.017 79.176 161.017 74.2337V74.2044C161.017 69.2913 163.927 66.2499 168.299 66.2499C172.686 66.2499 175.611 69.2767 175.611 74.2044V74.2337C175.611 79.1907 172.715 82.2321 168.314 82.2321ZM168.329 79.5855C170.8 79.5855 172.379 77.6261 172.379 74.2337V74.2044C172.379 70.8413 170.771 68.8965 168.299 68.8965C165.872 68.8965 164.249 70.8413 164.249 74.2044V74.2337C164.249 77.6407 165.857 79.5855 168.329 79.5855ZM184.793 87.35C180.845 87.35 178.345 85.5222 177.877 83.168L177.862 83.0363H180.992L181.05 83.1533C181.474 84.133 182.805 84.8057 184.779 84.8057C187.294 84.8057 188.683 83.4604 188.683 81.3109V79.2053H188.61C187.732 80.8722 185.978 81.9397 183.77 81.9397C179.91 81.9397 177.365 78.9128 177.365 74.1167V74.1021C177.365 69.2767 179.939 66.2499 183.843 66.2499C186.007 66.2499 187.703 67.4196 188.61 69.1597H188.683V66.5423H191.856V81.501C191.856 85.0104 189.136 87.35 184.793 87.35ZM184.662 79.3661C187.074 79.3661 188.683 77.3336 188.683 74.1606V74.1459C188.683 70.9875 187.06 68.955 184.662 68.955C182.161 68.955 180.597 70.9729 180.597 74.1459V74.1606C180.597 77.3775 182.161 79.3661 184.662 79.3661ZM195.102 81.925V60.825H198.261V81.925H195.102ZM208.072 82.2321C203.554 82.2321 200.82 79.1468 200.82 74.2922V74.2775C200.82 69.4668 203.598 66.2499 207.911 66.2499C212.225 66.2499 214.872 69.3498 214.872 73.9705V75.0379H203.978C204.036 77.9478 205.63 79.644 208.145 79.644C210.017 79.644 211.26 78.6789 211.655 77.5237L211.699 77.4067H214.696L214.667 77.5676C214.17 80.0095 211.801 82.2321 208.072 82.2321ZM207.926 68.838C205.879 68.838 204.3 70.2271 204.022 72.8007H211.742C211.479 70.1394 209.988 68.838 207.926 68.838ZM223.791 81.925V60.825H231.643C235.782 60.825 238.648 63.6032 238.648 67.7413V67.7706C238.648 71.8941 235.782 74.7162 231.643 74.7162H227.067V81.925H223.791ZM230.825 63.5886H227.067V71.9672H230.825C233.676 71.9672 235.314 70.4319 235.314 67.7852V67.756C235.314 65.1239 233.676 63.5886 230.825 63.5886ZM241.25 81.925V60.825H244.409V81.925H241.25ZM252.173 82.2029C249.103 82.2029 247.041 80.3166 247.041 77.553V77.5237C247.041 74.8478 249.117 73.2101 252.758 72.9908L256.94 72.7422V71.587C256.94 69.8908 255.844 68.8673 253.884 68.8673C252.056 68.8673 250.93 69.73 250.667 70.9583L250.638 71.0899H247.655L247.67 70.929C247.889 68.2824 250.185 66.2499 253.972 66.2499C257.73 66.2499 260.113 68.2385 260.113 71.3238V81.925H256.94V79.4977H256.882C255.99 81.1501 254.206 82.2029 252.173 82.2029ZM250.229 77.4798C250.229 78.8251 251.34 79.6732 253.036 79.6732C255.259 79.6732 256.94 78.1671 256.94 76.1638V74.9648L253.182 75.1988C251.281 75.3157 250.229 76.1492 250.229 77.4506V77.4798ZM264.968 87.0575C264.354 87.0575 263.696 86.9844 263.316 86.9113V84.4401C263.564 84.4986 263.93 84.5571 264.354 84.5571C265.845 84.5571 266.664 84.1623 267.191 82.6708L267.454 81.9397L261.853 66.5423H265.275L269.15 79.0591H269.252L273.127 66.5423H276.461L270.729 82.6415C269.589 85.8292 267.98 87.0575 264.968 87.0575Z" fill="#1A2035"/>
<g filter="url(#filter1_ii_31_2993)">
<path d="M67.052 36.9684C66.4632 37.5996 66.1152 38.5791 66.1152 39.8475V85.1668C66.1152 86.4373 66.4632 87.4148 67.052 88.0459L67.2017 88.1935L92.268 62.8064V62.5072V62.208L67.2017 36.8188L67.052 36.9684Z" fill="url(#paint0_linear_31_2993)"/>
<path d="M100.622 71.2713L92.2678 62.8062V62.507V62.2078L100.624 53.7448L100.812 53.8534L110.712 59.55C113.538 61.1771 113.538 63.8389 110.712 65.468L100.812 71.1647L100.622 71.2713Z" fill="url(#paint1_linear_31_2993)"/>
<g filter="url(#filter2_i_31_2993)">
<path d="M100.812 71.1629L92.2659 62.5073L67.052 88.046C67.9827 89.046 69.5224 89.1689 71.2563 88.173L100.812 71.1629Z" fill="url(#paint2_linear_31_2993)"/>
</g>
<path d="M100.812 53.8516L71.2563 36.8436C69.5224 35.8456 67.9827 35.9706 67.052 36.9706L92.268 62.5094L100.812 53.8516Z" fill="url(#paint3_linear_31_2993)"/>
</g>
<defs>
<filter id="filter0_dddd_31_2993" x="0.232506" y="0.21921" width="352.891" height="165.305" filterUnits="userSpaceOnUse" color-interpolation-filters="sRGB">
<feFlood flood-opacity="0" result="BackgroundImageFix"/>
<feColorMatrix in="SourceAlpha" type="matrix" values="0 0 0 0 0 0 0 0 0 0 0 0 0 0 0 0 0 0 127 0" result="hardAlpha"/>
<feOffset dy="0.895107"/>
<feGaussianBlur stdDeviation="0.691674"/>
<feColorMatrix type="matrix" values="0 0 0 0 0 0 0 0 0 0 0 0 0 0 0 0 0 0 0.0268173 0"/>
<feBlend mode="normal" in2="BackgroundImageFix" result="effect1_dropShadow_31_2993"/>
<feColorMatrix in="SourceAlpha" type="matrix" values="0 0 0 0 0 0 0 0 0 0 0 0 0 0 0 0 0 0 127 0" result="hardAlpha"/>
<feOffset dy="2.47486"/>
<feGaussianBlur stdDeviation="1.91239"/>
<feColorMatrix type="matrix" values="0 0 0 0 0 0 0 0 0 0 0 0 0 0 0 0 0 0 0.0399899 0"/>
<feBlend mode="normal" in2="effect1_dropShadow_31_2993" result="effect2_dropShadow_31_2993"/>
<feColorMatrix in="SourceAlpha" type="matrix" values="0 0 0 0 0 0 0 0 0 0 0 0 0 0 0 0 0 0 127 0" result="hardAlpha"/>
<feOffset dy="5.9585"/>
<feGaussianBlur stdDeviation="4.6043"/>
<feColorMatrix type="matrix" values="0 0 0 0 0 0 0 0 0 0 0 0 0 0 0 0 0 0 0.0582218 0"/>
<feBlend mode="normal" in2="effect2_dropShadow_31_2993" result="effect3_dropShadow_31_2993"/>
<feColorMatrix in="SourceAlpha" type="matrix" values="0 0 0 0 0 0 0 0 0 0 0 0 0 0 0 0 0 0 127 0" result="hardAlpha"/>
<feOffset dy="19.7648"/>
<feGaussianBlur stdDeviation="15.2728"/>
<feColorMatrix type="matrix" values="0 0 0 0 0 0 0 0 0 0 0 0 0 0 0 0 0 0 0.08 0"/>
<feBlend mode="normal" in2="effect3_dropShadow_31_2993" result="effect4_dropShadow_31_2993"/>
<feBlend mode="normal" in="SourceGraphic" in2="effect4_dropShadow_31_2993" result="shape"/>
</filter>
<filter id="filter1_ii_31_2993" x="66.1152" y="36.1549" width="46.7166" height="52.706" filterUnits="userSpaceOnUse" color-interpolation-filters="sRGB">
<feFlood flood-opacity="0" result="BackgroundImageFix"/>
<feBlend mode="normal" in="SourceGraphic" in2="BackgroundImageFix" result="shape"/>
<feColorMatrix in="SourceAlpha" type="matrix" values="0 0 0 0 0 0 0 0 0 0 0 0 0 0 0 0 0 0 127 0" result="hardAlpha"/>
<feOffset dy="-0.0898399"/>
<feComposite in2="hardAlpha" operator="arithmetic" k2="-1" k3="1"/>
<feColorMatrix type="matrix" values="0 0 0 0 0 0 0 0 0 0 0 0 0 0 0 0 0 0 0.12 0"/>
<feBlend mode="normal" in2="shape" result="effect1_innerShadow_31_2993"/>
<feColorMatrix in="SourceAlpha" type="matrix" values="0 0 0 0 0 0 0 0 0 0 0 0 0 0 0 0 0 0 127 0" result="hardAlpha"/>
<feOffset dy="0.0898399"/>
<feComposite in2="hardAlpha" operator="arithmetic" k2="-1" k3="1"/>
<feColorMatrix type="matrix" values="0 0 0 0 1 0 0 0 0 1 0 0 0 0 1 0 0 0 0.25 0"/>
<feBlend mode="normal" in2="effect1_innerShadow_31_2993" result="effect2_innerShadow_31_2993"/>
</filter>
<filter id="filter2_i_31_2993" x="67.052" y="62.5073" width="33.7603" height="26.3536" filterUnits="userSpaceOnUse" color-interpolation-filters="sRGB">
<feFlood flood-opacity="0" result="BackgroundImageFix"/>
<feBlend mode="normal" in="SourceGraphic" in2="BackgroundImageFix" result="shape"/>
<feColorMatrix in="SourceAlpha" type="matrix" values="0 0 0 0 0 0 0 0 0 0 0 0 0 0 0 0 0 0 127 0" result="hardAlpha"/>
<feOffset dy="-0.0898399"/>
<feComposite in2="hardAlpha" operator="arithmetic" k2="-1" k3="1"/>
<feColorMatrix type="matrix" values="0 0 0 0 0 0 0 0 0 0 0 0 0 0 0 0 0 0 0.08 0"/>
<feBlend mode="normal" in2="shape" result="effect1_innerShadow_31_2993"/>
</filter>
<linearGradient id="paint0_linear_31_2993" x1="90.046" y1="39.368" x2="55.6597" y2="73.3197" gradientUnits="userSpaceOnUse">
<stop stop-color="#00A0FF"/>
<stop offset="0.0066" stop-color="#00A1FF"/>
<stop offset="0.2601" stop-color="#00BEFF"/>
<stop offset="0.5122" stop-color="#00D2FF"/>
<stop offset="0.7604" stop-color="#00DFFF"/>
<stop offset="1" stop-color="#00E3FF"/>
</linearGradient>
<linearGradient id="paint1_linear_31_2993" x1="114.391" y1="62.507" x2="65.4365" y2="62.507" gradientUnits="userSpaceOnUse">
<stop stop-color="#FFE000"/>
<stop offset="0.4087" stop-color="#FFBD00"/>
<stop offset="0.7754" stop-color="#FFA500"/>
<stop offset="1" stop-color="#FF9C00"/>
</linearGradient>
<linearGradient id="paint2_linear_31_2993" x1="96.171" y1="67.2078" x2="49.5389" y2="113.251" gradientUnits="userSpaceOnUse">
<stop stop-color="#FF3A44"/>
<stop offset="1" stop-color="#C31162"/>
</linearGradient>
<linearGradient id="paint3_linear_31_2993" x1="60.7018" y1="21.8843" x2="81.5243" y2="42.4436" gradientUnits="userSpaceOnUse">
<stop stop-color="#32A071"/>
<stop offset="0.0685" stop-color="#2DA771"/>
<stop offset="0.4762" stop-color="#15CF74"/>
<stop offset="0.8009" stop-color="#06E775"/>
<stop offset="1" stop-color="#00F076"/>
</linearGradient>
</defs>
</svg>
