<svg width="1320" height="177" viewBox="0 0 1320 177" fill="none" xmlns="http://www.w3.org/2000/svg">
<path d="M52.3828 98.2422V130H42.5391V45.9766H65.625C74.6094 45.9766 81.5625 48.1641 86.4844 52.5391C91.4453 56.9141 93.9258 63.0859 93.9258 71.0547C93.9258 79.0234 91.1719 85.5469 85.6641 90.625C80.1953 95.7031 72.793 98.2422 63.457 98.2422H52.3828ZM52.3828 54.8828V89.3359H62.6953C69.4922 89.3359 74.668 87.793 78.2227 84.707C81.8164 81.582 83.6133 77.1875 83.6133 71.5234C83.6133 60.4297 77.0508 54.8828 63.9258 54.8828H52.3828ZM143.672 131.406C131.758 131.406 122.207 127.48 115.02 119.629C107.871 111.777 104.297 101.562 104.297 88.9844C104.297 75.4688 107.949 64.6875 115.254 56.6406C122.559 48.5938 132.5 44.5703 145.078 44.5703C156.68 44.5703 166.016 48.4766 173.086 56.2891C180.195 64.1016 183.75 74.3164 183.75 86.9336C183.75 100.645 180.117 111.484 172.852 119.453C165.586 127.422 155.859 131.406 143.672 131.406ZM144.375 53.4766C135.547 53.4766 128.379 56.6602 122.871 63.0273C117.363 69.3945 114.609 77.7539 114.609 88.1055C114.609 98.457 117.285 106.797 122.637 113.125C128.027 119.414 135.039 122.559 143.672 122.559C152.891 122.559 160.156 119.551 165.469 113.535C170.781 107.52 173.438 99.1016 173.438 88.2812C173.438 77.1875 170.859 68.6133 165.703 62.5586C160.547 56.5039 153.438 53.4766 144.375 53.4766ZM210.117 98.2422V130H200.273V45.9766H223.359C232.344 45.9766 239.297 48.1641 244.219 52.5391C249.18 56.9141 251.66 63.0859 251.66 71.0547C251.66 79.0234 248.906 85.5469 243.398 90.625C237.93 95.7031 230.527 98.2422 221.191 98.2422H210.117ZM210.117 54.8828V89.3359H220.43C227.227 89.3359 232.402 87.793 235.957 84.707C239.551 81.582 241.348 77.1875 241.348 71.5234C241.348 60.4297 234.785 54.8828 221.66 54.8828H210.117ZM329.004 96.0156C329.004 119.609 318.359 131.406 297.07 131.406C276.68 131.406 266.484 120.059 266.484 97.3633V45.9766H276.328V96.7188C276.328 113.945 283.594 122.559 298.125 122.559C312.148 122.559 319.16 114.238 319.16 97.5977V45.9766H329.004V96.0156ZM393.633 130H350.039V45.9766H359.883V121.094H393.633V130ZM475.078 130H464.18L455.273 106.445H419.648L411.27 130H400.312L432.539 45.9766H442.734L475.078 130ZM452.051 97.5977L438.867 61.7969C438.438 60.625 438.008 58.75 437.578 56.1719H437.344C436.953 58.5547 436.504 60.4297 435.996 61.7969L422.93 97.5977H452.051ZM547.734 130H536.016L521.953 106.445C520.664 104.258 519.414 102.402 518.203 100.879C516.992 99.3164 515.742 98.0469 514.453 97.0703C513.203 96.0938 511.836 95.3906 510.352 94.9609C508.906 94.4922 507.266 94.2578 505.43 94.2578H497.344V130H487.5V45.9766H512.578C516.25 45.9766 519.629 46.4453 522.715 47.3828C525.84 48.2812 528.535 49.668 530.801 51.543C533.105 53.418 534.902 55.7617 536.191 58.5742C537.48 61.3477 538.125 64.6094 538.125 68.3594C538.125 71.2891 537.676 73.9844 536.777 76.4453C535.918 78.8672 534.668 81.0352 533.027 82.9492C531.426 84.8633 529.473 86.5039 527.168 87.8711C524.902 89.1992 522.344 90.2344 519.492 90.9766V91.2109C520.898 91.8359 522.109 92.5586 523.125 93.3789C524.18 94.1602 525.176 95.0977 526.113 96.1914C527.051 97.2852 527.969 98.5352 528.867 99.9414C529.805 101.309 530.84 102.91 531.973 104.746L547.734 130ZM497.344 54.8828V85.3516H510.703C513.164 85.3516 515.43 84.9805 517.5 84.2383C519.609 83.4961 521.426 82.4414 522.949 81.0742C524.473 79.668 525.664 77.9688 526.523 75.9766C527.383 73.9453 527.812 71.6797 527.812 69.1797C527.812 64.6875 526.348 61.1914 523.418 58.6914C520.527 56.1523 516.328 54.8828 510.82 54.8828H497.344ZM649.453 126.484C643.242 129.766 635.508 131.406 626.25 131.406C614.297 131.406 604.727 127.559 597.539 119.863C590.352 112.168 586.758 102.07 586.758 89.5703C586.758 76.1328 590.801 65.2734 598.887 56.9922C606.973 48.7109 617.227 44.5703 629.648 44.5703C637.617 44.5703 644.219 45.7227 649.453 48.0273V58.5156C643.438 55.1563 636.797 53.4766 629.531 53.4766C619.883 53.4766 612.051 56.6992 606.035 63.1445C600.059 69.5898 597.07 78.2031 597.07 88.9844C597.07 99.2188 599.863 107.383 605.449 113.477C611.074 119.531 618.438 122.559 627.539 122.559C635.977 122.559 643.281 120.684 649.453 116.934V126.484ZM729.727 130H719.883V91.6797H676.406V130H666.562V45.9766H676.406V82.832H719.883V45.9766H729.727V130ZM816.797 130H805.898L796.992 106.445H761.367L752.988 130H742.031L774.258 45.9766H784.453L816.797 130ZM793.77 97.5977L780.586 61.7969C780.156 60.625 779.727 58.75 779.297 56.1719H779.062C778.672 58.5547 778.223 60.4297 777.715 61.7969L764.648 97.5977H793.77ZM872.812 130H829.219V45.9766H839.062V121.094H872.812V130ZM929.297 130H885.703V45.9766H895.547V121.094H929.297V130ZM986.719 130H942.188V45.9766H984.844V54.8828H952.031V82.832H982.383V91.6797H952.031V121.094H986.719V130ZM1070.62 130H1058.55L1015.31 63.0273C1014.22 61.3477 1013.32 59.5898 1012.62 57.7539H1012.27C1012.58 59.5508 1012.73 63.3984 1012.73 69.2969V130H1002.89V45.9766H1015.66L1057.73 111.895C1059.49 114.629 1060.62 116.504 1061.13 117.52H1061.37C1060.98 115.098 1060.78 110.977 1060.78 105.156V45.9766H1070.62V130ZM1155.47 124.258C1147.03 129.023 1137.66 131.406 1127.34 131.406C1115.35 131.406 1105.64 127.539 1098.22 119.805C1090.84 112.07 1087.15 101.836 1087.15 89.1016C1087.15 76.0938 1091.25 65.4297 1099.45 57.1094C1107.7 48.75 1118.12 44.5703 1130.74 44.5703C1139.88 44.5703 1147.56 46.0547 1153.77 49.0234V59.9219C1146.97 55.625 1138.93 53.4766 1129.63 53.4766C1120.21 53.4766 1112.5 56.7187 1106.48 63.2031C1100.47 69.6875 1097.46 78.0859 1097.46 88.3984C1097.46 99.0234 1100.25 107.383 1105.84 113.477C1111.43 119.531 1119 122.559 1128.57 122.559C1135.14 122.559 1140.82 121.25 1145.62 118.633V95.0781H1127.23V86.1719H1155.47V124.258ZM1219.57 130H1175.04V45.9766H1217.7V54.8828H1184.88V82.832H1215.23V91.6797H1184.88V121.094H1219.57V130ZM1231.82 126.602V115C1233.14 116.172 1234.73 117.227 1236.56 118.164C1238.44 119.102 1240.39 119.902 1242.42 120.566C1244.49 121.191 1246.56 121.68 1248.63 122.031C1250.7 122.383 1252.62 122.559 1254.38 122.559C1260.43 122.559 1264.94 121.445 1267.91 119.219C1270.92 116.953 1272.42 113.711 1272.42 109.492C1272.42 107.227 1271.91 105.254 1270.9 103.574C1269.92 101.895 1268.55 100.371 1266.8 99.0039C1265.04 97.5977 1262.95 96.2695 1260.53 95.0195C1258.14 93.7305 1255.57 92.3828 1252.79 90.9766C1249.86 89.4922 1247.13 87.9883 1244.59 86.4648C1242.05 84.9414 1239.84 83.2617 1237.97 81.4258C1236.09 79.5898 1234.61 77.5195 1233.52 75.2148C1232.46 72.8711 1231.93 70.1367 1231.93 67.0117C1231.93 63.1836 1232.77 59.8633 1234.45 57.0508C1236.13 54.1992 1238.34 51.8555 1241.07 50.0195C1243.81 48.1836 1246.91 46.8164 1250.39 45.918C1253.91 45.0195 1257.48 44.5703 1261.11 44.5703C1269.39 44.5703 1275.43 45.5664 1279.22 47.5586V58.6328C1274.26 55.1953 1267.89 53.4766 1260.12 53.4766C1257.97 53.4766 1255.82 53.7109 1253.67 54.1797C1251.52 54.6094 1249.61 55.332 1247.93 56.3477C1246.25 57.3633 1244.88 58.6719 1243.83 60.2734C1242.77 61.875 1242.25 63.8281 1242.25 66.1328C1242.25 68.2812 1242.64 70.1367 1243.42 71.6992C1244.24 73.2617 1245.43 74.6875 1246.99 75.9766C1248.55 77.2656 1250.45 78.5156 1252.68 79.7266C1254.94 80.9375 1257.54 82.2656 1260.47 83.7109C1263.48 85.1953 1266.33 86.7578 1269.02 88.3984C1271.72 90.0391 1274.08 91.8555 1276.11 93.8477C1278.14 95.8398 1279.75 98.0469 1280.92 100.469C1282.13 102.891 1282.73 105.664 1282.73 108.789C1282.73 112.93 1281.91 116.445 1280.27 119.336C1278.67 122.188 1276.48 124.512 1273.71 126.309C1270.98 128.105 1267.81 129.395 1264.22 130.176C1260.62 130.996 1256.84 131.406 1252.85 131.406C1251.52 131.406 1249.88 131.289 1247.93 131.055C1245.98 130.859 1243.98 130.547 1241.95 130.117C1239.92 129.727 1237.99 129.238 1236.15 128.652C1234.36 128.027 1232.91 127.344 1231.82 126.602Z" fill="black"/>
<path d="M43.6217 29.9614C33.2927 32.001 31.001 34.2927 28.9614 44.6217C28.8623 45.1261 28.1377 45.1261 28.0386 44.6217C25.999 34.2927 23.7073 32.001 13.3783 29.9614C12.8739 29.8623 12.8739 29.1377 13.3783 29.0386C23.7073 26.999 25.999 24.7073 28.0386 14.3783C28.1377 13.8739 28.8623 13.8739 28.9614 14.3783C31.001 24.7073 33.2927 26.999 43.6217 29.0386C44.1261 29.1377 44.1261 29.8623 43.6217 29.9614Z" stroke="black" stroke-width="1.49038" stroke-miterlimit="10"/>
<path d="M1177.62 22.9614C1167.29 25.001 1165 27.2927 1162.96 37.6217C1162.86 38.1261 1162.14 38.1261 1162.04 37.6217C1160 27.2927 1157.71 25.001 1147.38 22.9614C1146.87 22.8623 1146.87 22.1377 1147.38 22.0386C1157.71 19.999 1160 17.7073 1162.04 7.37832C1162.14 6.87389 1162.86 6.87389 1162.96 7.37832C1165 17.7073 1167.29 19.999 1177.62 22.0386C1178.13 22.1377 1178.13 22.8623 1177.62 22.9614Z" stroke="black" stroke-width="1.49038" stroke-miterlimit="10"/>
<path d="M484.622 29.9614C474.293 32.001 472.001 34.2927 469.961 44.6217C469.862 45.1261 469.138 45.1261 469.039 44.6217C466.999 34.2927 464.707 32.001 454.378 29.9614C453.874 29.8623 453.874 29.1377 454.378 29.0386C464.707 26.999 466.999 24.7073 469.039 14.3783C469.138 13.8739 469.862 13.8739 469.961 14.3783C472.001 24.7073 474.293 26.999 484.622 29.0386C485.126 29.1377 485.126 29.8623 484.622 29.9614Z" stroke="black" stroke-width="1.49038" stroke-miterlimit="10"/>
<path d="M953.622 160.961C943.293 163.001 941.001 165.293 938.961 175.622C938.862 176.126 938.138 176.126 938.039 175.622C935.999 165.293 933.707 163.001 923.378 160.961C922.874 160.862 922.874 160.138 923.378 160.039C933.707 157.999 935.999 155.707 938.039 145.378C938.138 144.874 938.862 144.874 938.961 145.378C941.001 155.707 943.293 157.999 953.622 160.039C954.126 160.138 954.126 160.862 953.622 160.961Z" stroke="black" stroke-width="1.49038" stroke-miterlimit="10"/>
<path d="M191.78 38.2679C185.783 39.4522 184.452 40.7829 183.268 46.7803C183.21 47.0732 182.79 47.0732 182.732 46.7803C181.548 40.7829 180.217 39.4522 174.22 38.2679C173.927 38.2104 173.927 37.7896 174.22 37.7321C180.217 36.5478 181.548 35.2171 182.732 29.2197C182.79 28.9268 183.21 28.9268 183.268 29.2197C184.452 35.2171 185.783 36.5478 191.78 37.7321C192.073 37.7896 192.073 38.2104 191.78 38.2679Z" stroke="black" stroke-width="0.865385" stroke-miterlimit="10"/>
<path d="M191.78 36.2679C185.783 37.4522 184.452 38.7829 183.268 44.7803C183.21 45.0732 182.79 45.0732 182.732 44.7803C181.548 38.7829 180.217 37.4522 174.22 36.2679C173.927 36.2104 173.927 35.7896 174.22 35.7321C180.217 34.5478 181.548 33.2171 182.732 27.2197C182.79 26.9268 183.21 26.9268 183.268 27.2197C184.452 33.2171 185.783 34.5478 191.78 35.7321C192.073 35.7896 192.073 36.2104 191.78 36.2679Z" stroke="black" stroke-width="0.865385" stroke-miterlimit="10"/>
<path d="M575.78 96.2679C569.783 97.4522 568.452 98.7829 567.268 104.78C567.21 105.073 566.79 105.073 566.732 104.78C565.548 98.7829 564.217 97.4522 558.22 96.2679C557.927 96.2104 557.927 95.7896 558.22 95.7321C564.217 94.5478 565.548 93.2171 566.732 87.2197C566.79 86.9268 567.21 86.9268 567.268 87.2197C568.452 93.2171 569.783 94.5478 575.78 95.7321C576.073 95.7896 576.073 96.2104 575.78 96.2679Z" stroke="black" stroke-width="0.865385" stroke-miterlimit="10"/>
<path d="M344.78 135.268C338.783 136.452 337.452 137.783 336.268 143.78C336.21 144.073 335.79 144.073 335.732 143.78C334.548 137.783 333.217 136.452 327.22 135.268C326.927 135.21 326.927 134.79 327.22 134.732C333.217 133.548 334.548 132.217 335.732 126.22C335.79 125.927 336.21 125.927 336.268 126.22C337.452 132.217 338.783 133.548 344.78 134.732C345.073 134.79 345.073 135.21 344.78 135.268Z" stroke="black" stroke-width="0.865385" stroke-miterlimit="10"/>
<path d="M999.78 18.2679C993.783 19.4522 992.452 20.7829 991.268 26.7803C991.21 27.0732 990.79 27.0732 990.732 26.7803C989.548 20.7829 988.217 19.4522 982.22 18.2679C981.927 18.2104 981.927 17.7896 982.22 17.7321C988.217 16.5478 989.548 15.2171 990.732 9.21967C990.79 8.92678 991.21 8.92678 991.268 9.21967C992.452 15.2171 993.783 16.5478 999.78 17.7321C1000.07 17.7896 1000.07 18.2104 999.78 18.2679Z" stroke="black" stroke-width="0.865385" stroke-miterlimit="10"/>
<path d="M764.78 36.2679C758.783 37.4522 757.452 38.7829 756.268 44.7803C756.21 45.0732 755.79 45.0732 755.732 44.7803C754.548 38.7829 753.217 37.4522 747.22 36.2679C746.927 36.2104 746.927 35.7896 747.22 35.7321C753.217 34.5478 754.548 33.2171 755.732 27.2197C755.79 26.9268 756.21 26.9268 756.268 27.2197C757.452 33.2171 758.783 34.5478 764.78 35.7321C765.073 35.7896 765.073 36.2104 764.78 36.2679Z" stroke="black" stroke-width="0.865385" stroke-miterlimit="10"/>
<path d="M1186.78 151.268C1180.78 152.452 1179.45 153.783 1178.27 159.78C1178.21 160.073 1177.79 160.073 1177.73 159.78C1176.55 153.783 1175.22 152.452 1169.22 151.268C1168.93 151.21 1168.93 150.79 1169.22 150.732C1175.22 149.548 1176.55 148.217 1177.73 142.22C1177.79 141.927 1178.21 141.927 1178.27 142.22C1179.45 148.217 1180.78 149.548 1186.78 150.732C1187.07 150.79 1187.07 151.21 1186.78 151.268Z" stroke="black" stroke-width="0.865385" stroke-miterlimit="10"/>
<path d="M1312.78 45.2679C1306.78 46.4522 1305.45 47.7829 1304.27 53.7803C1304.21 54.0732 1303.79 54.0732 1303.73 53.7803C1302.55 47.7829 1301.22 46.4522 1295.22 45.2679C1294.93 45.2104 1294.93 44.7896 1295.22 44.7321C1301.22 43.5478 1302.55 42.2171 1303.73 36.2197C1303.79 35.9268 1304.21 35.9268 1304.27 36.2197C1305.45 42.2171 1306.78 43.5478 1312.78 44.7321C1313.07 44.7896 1313.07 45.2104 1312.78 45.2679Z" stroke="black" stroke-width="0.865385" stroke-miterlimit="10"/>
</svg>
