<svg width="1512" height="327" viewBox="0 0 1512 327" fill="none" xmlns="http://www.w3.org/2000/svg">
<path d="M887.442 56.8335L892.914 60.5782L886.456 69.9971C888.781 72.3414 891.907 72.8082 896.475 69.9245L902.03 61.823C902.009 57.4766 901.531 53.5659 899.818 50.9L916.856 26.025C920.718 26.8237 924.342 25.9212 927.851 24.1267L933.79 15.4547C934.299 10.9423 933.946 7.13534 930.8 5.66234L923.573 16.2223L918.102 12.4776L925.193 1.72052C922.774 -0.62383 918.662 -0.613457 914.925 2.56075L909.245 10.849C908.809 14.8738 909.287 18.3799 911.021 21.1911L893.09 46.564C889.664 46.398 886.612 47.5287 883.736 49.3025L878.534 56.8542C877.371 61.5221 878.7 65.5573 880.777 66.7191L887.442 56.8335Z" fill="#D7DCFC"/>
<path d="M558.99 40.9936C559.333 40.6202 559.665 40.2364 559.976 39.8318C560.547 39.0746 561.046 38.2862 561.461 37.4667L564.295 38.7219C565.77 39.3754 567.483 38.5974 567.981 37.0622C568.459 35.6203 568.76 34.1681 568.926 32.6847C569.092 31.1806 568.044 29.8217 566.538 29.6557L563.185 29.2823C563.122 28.2035 562.946 27.135 562.655 26.0873L565.739 24.6039C567.099 23.9504 567.649 22.3218 566.995 20.9629C566.403 19.7182 565.687 18.5564 564.856 17.436C563.901 16.1498 562.042 15.9631 560.859 17.0315L558.585 19.075C558.087 18.5771 557.557 18.1103 556.986 17.6746C556.467 17.2804 555.938 16.9278 555.387 16.6062L556.727 13.6913C557.391 12.2598 556.685 10.5793 555.211 10.0192C553.923 9.53165 552.574 9.17896 551.162 8.94038C549.573 8.67067 548.088 9.8221 547.974 11.43L547.777 14.4486C546.199 14.4071 544.61 14.6042 543.094 15.0295L541.88 12.042C541.309 10.6416 539.689 9.94658 538.318 10.569C536.844 11.2432 535.494 12.0523 534.269 12.9963C532.971 13.9818 532.826 15.8801 533.958 17.0419L536.065 19.2099C535.629 19.6663 535.204 20.1435 534.809 20.6517C534.207 21.4401 533.698 22.27 533.262 23.1206L530.396 21.9277C528.922 21.3156 527.261 22.104 526.773 23.6185C526.316 25.0085 525.994 26.4089 525.828 27.8093C525.641 29.3756 526.804 30.7656 528.382 30.8486L531.59 31.0146C531.663 32.3527 531.902 33.6805 532.296 34.9668L529.472 35.8485C527.884 36.3361 527.105 38.1306 527.832 39.6244C528.424 40.8484 529.151 42.0206 529.992 43.1409C531.009 44.4894 533.003 44.6035 534.155 43.3691L536.086 41.2945C536.605 41.8235 537.176 42.3318 537.789 42.7986C538.266 43.1616 538.765 43.4936 539.274 43.8048L537.862 46.5537C537.135 47.9748 537.799 49.7071 539.274 50.3088C540.644 50.8689 542.046 51.2839 543.468 51.5432C545.005 51.8233 546.479 50.786 546.676 49.2404L547.102 46.035C548.691 46.0558 550.279 45.8483 551.805 45.4023L552.771 48.286C553.29 49.8316 555.034 50.5578 556.509 49.8731C558.014 49.1677 559.478 48.2756 560.869 47.1553C562.074 46.1906 562.157 44.3649 561.087 43.2343L558.959 40.9625L558.99 40.9936ZM544.486 36.7406C539.658 34.5104 538.806 28.1723 542.866 24.7388C544.911 23.0065 547.87 22.6123 550.31 23.743C555.138 25.9732 555.989 32.3113 551.93 35.7448C549.885 37.4771 546.925 37.8713 544.486 36.751V36.7406Z" fill="#D7DCFC"/>
<path d="M584.761 54.5515V85.7749L599.12 100.111V116.148L584.761 128.378V158.336" stroke="#D7DCFC" stroke-width="2" stroke-miterlimit="10"/>
<path d="M592.37 54.5515C592.37 58.7422 588.965 62.1447 584.77 62.1447C580.576 62.1447 577.17 58.7422 577.17 54.5515C577.17 50.3607 580.576 46.9583 584.77 46.9583C588.965 46.9583 592.37 50.3607 592.37 54.5515Z" fill="#FFC127"/>
<path d="M620.237 157.309V94.8723L606.719 80.5261V59.8523" stroke="#D7DCFC" stroke-width="2" stroke-miterlimit="10"/>
<path d="M606.719 64.7069C610.916 64.7069 614.319 61.3073 614.319 57.1137C614.319 52.9201 610.916 49.5205 606.719 49.5205C602.522 49.5205 599.119 52.9201 599.119 57.1137C599.119 61.3073 602.522 64.7069 606.719 64.7069Z" fill="#FFC127"/>
<path d="M645.145 102.839V124.146L638.448 131.946V157.682" stroke="#D7DCFC" stroke-width="2" stroke-miterlimit="10"/>
<path d="M645.144 110.432C649.341 110.432 652.744 107.033 652.744 102.839C652.744 98.6454 649.341 95.2458 645.144 95.2458C640.947 95.2458 637.544 98.6454 637.544 102.839C637.544 107.033 640.947 110.432 645.144 110.432Z" fill="#FFC127"/>
<path d="M817.184 71.937V93.8764L807.05 103.16V134.799L817.184 144.923V158.004" stroke="#D7DCFC" stroke-width="2" stroke-miterlimit="10"/>
<path d="M817.183 79.5304C821.381 79.5304 824.783 76.1308 824.783 71.9372C824.783 67.7436 821.381 64.344 817.183 64.344C812.986 64.344 809.583 67.7436 809.583 71.9372C809.583 76.1308 812.986 79.5304 817.183 79.5304Z" fill="#FFC127"/>
<path d="M833.879 84.9866V115.359L844.012 125.484V140.67L833.879 150.369V157.973" stroke="#D7DCFC" stroke-width="2" stroke-miterlimit="10"/>
<path d="M833.878 92.5797C838.076 92.5797 841.478 89.1801 841.478 84.9865C841.478 80.7929 838.076 77.3933 833.878 77.3933C829.681 77.3933 826.278 80.7929 826.278 84.9865C826.278 89.1801 829.681 92.5797 833.878 92.5797Z" fill="#FFC127"/>
<path d="M857.821 73.7314V97.3513L851.488 102.839V114.229L857.821 120.981V157.267" stroke="#D7DCFC" stroke-width="2" stroke-miterlimit="10"/>
<path d="M865.42 72.6735C865.42 76.8643 862.015 80.2667 857.82 80.2667C853.626 80.2667 850.22 76.8643 850.22 72.6735C850.22 68.4827 853.626 65.0803 857.82 65.0803C862.015 65.0803 865.42 68.4827 865.42 72.6735Z" fill="#FFC127"/>
<path d="M884.273 157.702H559.695V327.232H884.273V157.702Z" fill="#304FC9"/>
<path d="M884.273 157.703L944.108 72.694L938.324 69.0737L875.656 157.734L884.273 157.703Z" fill="#304FC9"/>
<path d="M560.193 157.703L501.148 72.694L506.848 69.0737L568.686 157.734L560.193 157.703Z" fill="#304FC9"/>
<path d="M702.63 330.967C702.63 332.004 702.661 333.041 702.703 334.068C715.338 334.037 727.963 334.244 740.589 334.556C740.454 333.373 740.36 332.18 740.36 330.967C740.36 313.923 754.19 300.106 771.248 300.106C788.307 300.106 802.136 313.923 802.136 330.967C802.136 332.367 802.032 333.736 801.856 335.085C814.45 333.881 827.21 332.44 839.825 332.668C839.835 332.097 839.866 331.537 839.866 330.967C839.866 326.848 839.482 322.824 838.787 318.913L863.559 313.031C860.714 297.772 854.142 284.702 845.224 272.98L823.161 286.175C820.088 282.627 816.661 279.391 812.924 276.528L824.604 253.613C812.851 245.263 799.52 240.481 785.14 238.043L780.426 263.043C777.415 262.638 774.353 262.41 771.238 262.41C768.424 262.41 765.662 262.597 762.932 262.929L757.367 238.043C743.08 239.838 729.718 245.73 716.948 254.267L731.016 275.439C725.461 279.463 720.519 284.297 716.387 289.774L694.397 276.818C685.032 290.2 679.892 304.276 677.982 318.892L703.139 322.689C702.807 325.406 702.62 328.155 702.62 330.967H702.63Z" fill="white"/>
<g style="mix-blend-mode:multiply">
<path d="M740.589 334.556C740.454 333.373 740.371 332.18 740.371 330.967C740.371 313.923 754.2 300.106 771.259 300.106C788.317 300.106 802.147 313.923 802.147 330.967C802.147 332.367 802.053 333.736 801.877 335.085C809.197 334.379 816.558 333.601 823.929 333.104C823.961 332.388 824.002 331.682 824.002 330.967C824.002 301.87 800.392 278.281 771.269 278.281C742.146 278.281 718.536 301.87 718.536 330.967C718.536 332.035 718.578 333.093 718.64 334.141C725.96 334.224 733.29 334.379 740.61 334.556H740.589Z" fill="#B8E7EC"/>
</g>
<path d="M791.359 335.998C804.534 335.033 817.98 333.197 831.353 332.74C831.373 332.149 831.394 331.558 831.394 330.967C831.394 297.783 804.462 270.875 771.248 270.875C738.034 270.875 711.102 297.783 711.102 330.967C711.102 332.014 711.144 333.052 711.206 334.089C737.93 334.245 764.645 335.313 791.359 335.998Z" stroke="#B8E7EC" stroke-miterlimit="10"/>
<path d="M683.827 246.57C683.661 245.242 683.433 243.914 683.132 242.587C682.581 240.139 681.813 237.794 680.868 235.554L694.833 228.718C691.085 220.015 685.406 213.106 678.522 207.318L667.153 218.137C664.848 216.436 662.367 214.963 659.761 213.76L663.633 198.542C655.514 195.15 646.918 194.082 638.03 194.569L638.591 210.098C636.743 210.264 634.884 210.533 633.026 210.959C631.354 211.332 629.724 211.82 628.146 212.38L621.48 198.303C613.216 201.291 606.041 206.602 599.584 213.396L610.807 224.122C608.035 227.265 605.74 230.813 604.027 234.63L589.18 229.869C585.401 239.101 584.228 248.178 585.058 257.14L600.559 256.02C600.726 257.68 600.985 259.35 601.369 261.02C601.951 263.582 602.761 266.02 603.757 268.354L589.949 275.542C594.102 284.08 599.407 291.289 606.353 296.59L616.974 285.19C619.819 287.337 622.923 289.111 626.215 290.48L620.224 304.795C628.54 308.384 637.656 309.67 647.468 308.944L645.526 293.54C647.499 293.384 649.482 293.094 651.465 292.648C653.033 292.295 654.549 291.849 656.033 291.341L662.076 305.656C670.839 302.316 678.356 297.42 684.44 290.718L673.902 279.225C676.663 276.04 678.927 272.462 680.619 268.603L695.072 274.287C698.757 265.771 700.367 256.321 699.339 245.678L683.807 246.56L683.827 246.57ZM646.398 270.179C636.234 272.472 626.142 266.092 623.847 255.947C621.553 245.792 627.938 235.709 638.092 233.417C648.257 231.124 658.349 237.504 660.643 247.649C662.938 257.804 656.552 267.887 646.398 270.179Z" fill="#B8E7EC"/>
<g style="mix-blend-mode:multiply">
<path d="M635.165 220.408C617.816 224.319 606.924 241.539 610.839 258.872C614.753 276.206 631.988 287.087 649.337 283.177C666.686 279.266 677.578 262.047 673.663 244.713C669.749 227.379 652.514 216.498 635.165 220.408ZM646.399 270.179C636.234 272.472 626.142 266.092 623.848 255.947C621.553 245.792 627.939 235.709 638.093 233.416C648.257 231.124 658.349 237.503 660.644 247.648C662.938 257.804 656.553 267.887 646.399 270.179Z" fill="#B8E7EC"/>
</g>
<g style="mix-blend-mode:multiply">
<path d="M642.245 288.498C662.532 288.498 678.979 272.067 678.979 251.798C678.979 231.529 662.532 215.097 642.245 215.097C621.958 215.097 605.512 231.529 605.512 251.798C605.512 272.067 621.958 288.498 642.245 288.498Z" stroke="#B8E7EC" stroke-miterlimit="10"/>
</g>
<path d="M747.847 203.749C747.629 203.013 747.379 202.287 747.089 201.561C746.559 200.222 745.905 198.957 745.168 197.774L752.467 192.65C749.56 188.055 745.718 184.652 741.306 181.997L735.844 189.154C734.38 188.397 732.844 187.785 731.266 187.339L732.096 178.366C727.185 177.173 722.223 177.339 717.229 178.418L718.942 187.162C717.914 187.422 716.886 187.743 715.868 188.148C714.955 188.511 714.072 188.936 713.231 189.393L708.185 182.017C703.773 184.455 700.191 188.106 697.138 192.536L704.468 197.608C703.181 199.641 702.205 201.851 701.572 204.175L692.736 202.805C691.428 208.376 691.584 213.625 692.861 218.624L701.541 216.602C701.79 217.525 702.08 218.448 702.444 219.361C703.004 220.761 703.679 222.068 704.458 223.303L697.284 228.614C700.409 233.074 704.053 236.684 708.466 239.07L713.46 231.664C715.266 232.628 717.187 233.354 719.17 233.832L717.062 242.483C722.098 243.769 727.383 243.676 732.875 242.39L730.394 233.832C731.494 233.562 732.595 233.22 733.674 232.794C734.526 232.452 735.356 232.068 736.146 231.643L740.859 239.215C745.521 236.539 749.342 233.085 752.187 228.749L745.178 223.189C746.455 221.135 747.411 218.905 748.034 216.571L756.734 218.5C758.053 213.345 758.115 207.847 756.578 201.913L747.857 203.812L747.847 203.749ZM728.764 220.492C723.209 222.701 716.917 219.994 714.706 214.454C712.494 208.905 715.204 202.619 720.748 200.409C726.303 198.2 732.595 200.907 734.806 206.446C737.018 211.996 734.308 218.282 728.764 220.492Z" fill="#D7DCFC"/>
<g style="mix-blend-mode:multiply" opacity="0.46">
<path d="M717.924 193.293C708.445 197.069 703.825 207.805 707.604 217.276C711.383 226.747 722.129 231.363 731.608 227.587C741.088 223.811 745.708 213.075 741.929 203.604C738.149 194.133 727.403 189.517 717.924 193.293ZM728.764 220.492C723.209 222.701 716.917 219.994 714.706 214.455C712.494 208.905 715.204 202.619 720.748 200.409C726.303 198.2 732.595 200.907 734.806 206.446C737.018 211.996 734.308 218.282 728.764 220.492Z" fill="#D7DCFC"/>
</g>
<g style="mix-blend-mode:multiply" opacity="0.58">
<path d="M744.051 218.844C748.703 208.183 743.825 195.773 733.156 191.125C722.486 186.476 710.064 191.35 705.411 202.01C700.759 212.67 705.637 225.081 716.307 229.729C726.977 234.378 739.398 229.504 744.051 218.844Z" stroke="#D7DCFC" stroke-miterlimit="10"/>
</g>
<path d="M845.712 230.015C846.148 229.548 846.564 229.05 846.968 228.531C847.706 227.566 848.329 226.56 848.869 225.523L855.7 228.552C857.756 224.486 858.545 220.264 858.555 215.948L851.059 215.108C850.976 213.729 850.748 212.37 850.395 211.042L857.206 207.774C855.949 203.739 853.696 200.254 850.768 197.121L845.214 202.121C844.581 201.488 843.906 200.897 843.179 200.337C842.525 199.839 841.84 199.393 841.144 198.978L844.279 192.183C840.625 190.057 836.461 189.061 831.955 188.781L831.467 196.219C829.453 196.167 827.439 196.416 825.497 196.965L822.673 190.036C818.105 191.499 814.398 193.864 811.346 196.934L816.537 202.297C815.977 202.868 815.447 203.48 814.938 204.133C814.17 205.14 813.526 206.187 812.976 207.276L806.072 204.413C804.203 208.573 803.185 212.754 803.372 216.944L810.848 217.339C810.931 219.05 811.242 220.741 811.751 222.37L804.618 224.579C805.864 228.749 808.2 232.494 811.491 235.886L816.568 230.419C817.233 231.093 817.949 231.737 818.728 232.328C819.341 232.795 819.974 233.22 820.618 233.604L817.202 240.243C821.137 242.442 825.259 243.697 829.609 243.863L830.595 236.436C832.62 236.467 834.644 236.197 836.586 235.626L838.953 242.701C843.231 241.425 847.207 239.102 850.82 235.45L845.702 230.004L845.712 230.015ZM825.466 223.531C821.49 220.502 820.721 214.818 823.753 210.845C826.785 206.872 832.474 206.104 836.451 209.133C840.427 212.162 841.196 217.847 838.164 221.82C835.132 225.793 829.443 226.56 825.466 223.531Z" fill="#D7DCFC"/>
<g style="mix-blend-mode:multiply" opacity="0.46">
<path d="M840.345 204.04C833.544 198.864 823.836 200.171 818.655 206.955C813.475 213.749 814.783 223.448 821.573 228.625C828.373 233.801 838.081 232.494 843.262 225.71C848.443 218.915 847.135 209.216 840.345 204.04ZM825.466 223.531C821.49 220.502 820.722 214.818 823.753 210.845C826.785 206.872 832.475 206.104 836.451 209.133C840.428 212.162 841.196 217.847 838.164 221.82C835.133 225.793 829.443 226.56 825.466 223.531Z" fill="#D7DCFC"/>
</g>
<g style="mix-blend-mode:multiply" opacity="0.58">
<path d="M844.996 227.027C839.089 234.776 828.011 236.259 820.255 230.357C812.499 224.455 811.014 213.387 816.922 205.638C822.83 197.889 833.908 196.406 841.664 202.308C849.419 208.21 850.904 219.279 844.996 227.027Z" stroke="#D7DCFC" stroke-miterlimit="10"/>
</g>
<path d="M1690.71 176.291H887.442V257.026H1690.71V176.291Z" fill="#304FC9"/>
<g style="mix-blend-mode:multiply" opacity="0.38">
<path d="M1690.71 257.026H887.442V176.291H946.166V216.664H1690.71V257.026Z" fill="#304FC9"/>
</g>
<path d="M917.521 165.991H884.276V266.538H917.521V165.991Z" fill="#304FC9"/>
<path d="M923.865 172.028H917.521V260.802H923.865V172.028Z" fill="#304FC9"/>
<path d="M909.89 165.991H884.276V266.538H909.89V165.991Z" fill="#304FC9"/>
<path d="M897.078 188.438C899.125 188.438 900.785 186.78 900.785 184.735C900.785 182.69 899.125 181.032 897.078 181.032C895.031 181.032 893.371 182.69 893.371 184.735C893.371 186.78 895.031 188.438 897.078 188.438Z" fill="#D7DCFC"/>
<path d="M897.078 222.753C899.125 222.753 900.785 221.095 900.785 219.05C900.785 217.004 899.125 215.346 897.078 215.346C895.031 215.346 893.371 217.004 893.371 219.05C893.371 221.095 895.031 222.753 897.078 222.753Z" fill="#D7DCFC"/>
<path d="M900.785 252.109C900.785 254.152 899.123 255.812 897.078 255.812C895.033 255.812 893.371 254.152 893.371 252.109C893.371 250.065 895.033 248.406 897.078 248.406C899.123 248.406 900.785 250.065 900.785 252.109Z" fill="#D7DCFC"/>
<path d="M522.525 186.644H-76.1421C-99.8143 186.644 -119.001 205.814 -119.001 229.465V327.243H-39.3672V280.553C-39.3672 270.356 -31.1027 262.099 -20.8967 262.099H522.525V186.654V186.644Z" fill="#304FC9"/>
<g style="mix-blend-mode:multiply" opacity="0.38">
<path d="M522.525 222.753V186.644H492.696V222.753H-47.6625C-71.3347 222.753 -80.4402 232.172 -80.4402 255.813V327.232H-39.3565V280.542C-39.3565 270.346 -31.092 262.089 -20.886 262.089H522.536V222.753H522.525Z" fill="#304FC9"/>
</g>
<path d="M559.695 175.493H532.493V274.246H559.695V175.493Z" fill="#304FC9"/>
<path d="M532.504 182.391H522.526V266.539H532.504V182.391Z" fill="#304FC9"/>
<path d="M559.696 175.493H546.094V274.246H559.696V175.493Z" fill="#304FC9"/>
<path d="M552.895 195.845C554.942 195.845 556.601 194.187 556.601 192.142C556.601 190.096 554.942 188.438 552.895 188.438C550.848 188.438 549.188 190.096 549.188 192.142C549.188 194.187 550.848 195.845 552.895 195.845Z" fill="#D7DCFC"/>
<path d="M556.612 226.456C556.612 228.499 554.951 230.159 552.905 230.159C550.86 230.159 549.199 228.499 549.199 226.456C549.199 224.412 550.86 222.753 552.905 222.753C554.951 222.753 556.612 224.412 556.612 226.456Z" fill="#D7DCFC"/>
<path d="M552.895 263.219C554.942 263.219 556.601 261.561 556.601 259.515C556.601 257.47 554.942 255.812 552.895 255.812C550.848 255.812 549.188 257.47 549.188 259.515C549.188 261.561 550.848 263.219 552.895 263.219Z" fill="#D7DCFC"/>
<path d="M454.448 133.274C454.863 161.386 454.043 184.829 454.49 212.941C454.811 233.075 454.624 253.137 455.58 273.271C455.839 278.696 458.933 280.366 464.166 280.501C492.843 281.238 521.55 280.864 550.237 281.487C551.608 281.518 553.238 281.425 553.975 280.283" stroke="#304FC9" stroke-width="2" stroke-miterlimit="10" stroke-linecap="round"/>
<path d="M446.982 132.703C446.982 132.703 445.103 177.246 445.331 206.727C445.456 222.38 445.103 238.033 445.404 253.697C445.549 261.508 445.85 269.329 446.442 277.119C446.92 283.374 445.446 290.159 452.038 293.685C455.579 295.584 459.753 295.812 463.771 295.968C494.389 297.233 524.986 296.507 555.604 297.077" stroke="#304FC9" stroke-width="2" stroke-miterlimit="10" stroke-linecap="round"/>
<path d="M559.695 285.262H551.389C549.302 285.262 547.61 283.571 547.61 281.486C547.61 279.401 549.302 277.71 551.389 277.71H559.695V285.262Z" fill="#304FC9"/>
<path d="M559.695 303.073H556.975C553.59 303.073 550.859 300.334 550.859 296.963C550.859 293.581 553.6 290.853 556.975 290.853H559.695V303.083V303.073Z" fill="#304FC9"/>
<path d="M450.305 131.137H442.747V134.259H450.305V131.137Z" fill="#304FC9"/>
<path d="M456.94 131.137H452.257V137.61H456.94V131.137Z" fill="#304FC9"/>
<path d="M897.564 312.233C931.183 312.233 964.771 315.376 998.358 313.592C1005.03 313.239 1011.88 312.617 1017.85 309.609C1034.39 301.289 1031.42 277.939 1031.15 262.69C1030.99 253.697 1029.67 244.921 1029.42 236.052C1028.88 216.218 1028.1 196.385 1027.44 176.562" stroke="#304FC9" stroke-width="2" stroke-miterlimit="10" stroke-linecap="round"/>
<path d="M886.694 297.088C894.19 296.03 901.811 296.435 909.38 296.735C926.148 297.389 942.926 297.451 959.693 296.932C967.948 296.673 976.202 296.279 984.456 295.74C991.485 295.273 999.261 295.833 1005.36 291.787C1011.9 287.462 1013.14 278.676 1013.33 271.414C1013.6 261.259 1012.71 251.124 1012.42 240.979C1011.8 219.403 1011.19 197.827 1010.28 176.261" stroke="#304FC9" stroke-width="2" stroke-miterlimit="10" stroke-linecap="round"/>
<path d="M988.984 176.23C989.191 186.437 989.409 196.644 989.617 206.851C989.721 211.82 989.949 217.183 993.022 221.094C997.217 226.436 1004.94 227.059 1011.74 227.225" stroke="#304FC9" stroke-width="2" stroke-miterlimit="10" stroke-linecap="round"/>
<path d="M998.721 179C1000.8 199.715 1001.31 220.575 1000.25 241.374C999.759 251 998.555 261.446 991.806 268.323C986.002 274.236 977.312 276.186 969.089 277.192C955.789 278.821 942.717 277.639 929.469 278.002C915.401 278.385 901.312 277.825 887.285 276.757" stroke="#304FC9" stroke-width="2" stroke-miterlimit="10" stroke-linecap="round"/>
<path d="M1011.8 182.298H1010C1007.16 182.298 1004.86 179.995 1004.86 177.163C1004.86 174.331 1007.16 172.029 1010 172.029H1011.8C1014.64 172.029 1016.94 174.331 1016.94 177.163C1016.94 180.006 1014.64 182.298 1011.8 182.298Z" fill="#304FC9"/>
<path d="M1028.55 170.11H1027.18C1025.24 170.11 1023.67 171.679 1023.67 173.616V178.792C1023.67 180.728 1025.24 182.298 1027.18 182.298H1028.55C1030.49 182.298 1032.06 180.728 1032.06 178.792V173.616C1032.06 171.679 1030.49 170.11 1028.55 170.11Z" fill="#304FC9"/>
<path d="M988.536 183.429C986.283 183.429 984.455 181.603 984.455 179.352V172.018H992.616V179.352C992.616 181.603 990.789 183.429 988.536 183.429Z" fill="#304FC9"/>
<path d="M998.316 184.736C995.834 184.736 993.82 182.723 993.82 180.244V172.029H1002.81V180.244C1002.81 182.723 1000.8 184.736 998.316 184.736Z" fill="#304FC9"/>
<path d="M890.67 302.057H884.264V289.266H890.67C894.211 289.266 897.076 292.129 897.076 295.667C897.076 299.204 894.211 302.067 890.67 302.067V302.057Z" fill="#304FC9"/>
<path d="M884.275 307.98H907.241C908.705 307.98 909.888 309.162 909.888 310.625V313.488C909.888 314.951 908.705 316.133 907.241 316.133H884.275V307.98Z" fill="#304FC9"/>
<path d="M884.275 270.73H891.262C893.578 270.73 895.457 272.607 895.457 274.921V279.931C895.457 282.244 893.578 284.122 891.262 284.122H884.275V270.73Z" fill="#304FC9"/>
</svg>
