<svg width="36" height="37" viewBox="0 0 36 37" fill="none" xmlns="http://www.w3.org/2000/svg">
<path d="M21.6449 28.7299C21.3599 28.7299 21.0749 28.6249 20.8499 28.3999C20.4149 27.9649 20.4149 27.2449 20.8499 26.8099L29.1599 18.4999L20.8499 10.1899C20.4149 9.75493 20.4149 9.03493 20.8499 8.59993C21.2849 8.16493 22.0049 8.16493 22.4399 8.59993L31.5449 17.7049C31.9799 18.1399 31.9799 18.8599 31.5449 19.2949L22.4399 28.3999C22.2149 28.6249 21.9299 28.7299 21.6449 28.7299Z" fill="white"/>
<path d="M30.495 19.625H5.25C4.635 19.625 4.125 19.115 4.125 18.5C4.125 17.885 4.635 17.375 5.25 17.375H30.495C31.11 17.375 31.62 17.885 31.62 18.5C31.62 19.115 31.11 19.625 30.495 19.625Z" fill="white"/>
</svg>
