<svg width="32" height="32" viewBox="0 0 32 32" fill="none" xmlns="http://www.w3.org/2000/svg">
<path d="M19.24 25.0933C18.9866 25.0933 18.7333 25 18.5333 24.8C18.1466 24.4133 18.1466 23.7733 18.5333 23.3867L25.92 16L18.5333 8.61334C18.1466 8.22667 18.1466 7.58667 18.5333 7.2C18.92 6.81334 19.56 6.81334 19.9466 7.2L28.04 15.2933C28.4266 15.68 28.4266 16.32 28.04 16.7067L19.9466 24.8C19.7466 25 19.4933 25.0933 19.24 25.0933Z" fill="white"/>
<path d="M27.1066 17H4.66663C4.11996 17 3.66663 16.5467 3.66663 16C3.66663 15.4533 4.11996 15 4.66663 15H27.1066C27.6533 15 28.1066 15.4533 28.1066 16C28.1066 16.5467 27.6533 17 27.1066 17Z" fill="white"/>
</svg>
