<svg width="47" height="53" viewBox="0 0 47 53" fill="none" xmlns="http://www.w3.org/2000/svg">
<g filter="url(#filter0_ii_31_1866)">
<path d="M1.05201 0.968437C0.463238 1.59958 0.115234 2.57908 0.115234 3.84751V49.1668C0.115234 50.4373 0.463238 51.4148 1.05201 52.0459L1.20173 52.1935L26.268 26.8064V26.5072V26.208L1.20173 0.818848L1.05201 0.968437Z" fill="url(#paint0_linear_31_1866)"/>
<path d="M34.6219 35.2713L26.2678 26.8062V26.507V26.2078L34.6239 17.7448L34.8121 17.8534L44.7119 23.55C47.5384 25.1771 47.5384 27.8389 44.7119 29.468L34.8121 35.1647L34.6219 35.2713Z" fill="url(#paint1_linear_31_1866)"/>
<g filter="url(#filter1_i_31_1866)">
<path d="M34.8123 35.1629L26.2661 26.5073L1.05213 52.046C1.98283 53.046 3.52253 53.1689 5.25647 52.173L34.8123 35.1629Z" fill="url(#paint2_linear_31_1866)"/>
</g>
<path d="M34.8123 17.8516L5.25647 0.843581C3.52253 -0.154362 1.98283 -0.0293629 1.05213 0.970629L26.2681 26.5094L34.8123 17.8516Z" fill="url(#paint3_linear_31_1866)"/>
</g>
<defs>
<filter id="filter0_ii_31_1866" x="0.115234" y="0.154907" width="46.7166" height="52.706" filterUnits="userSpaceOnUse" color-interpolation-filters="sRGB">
<feFlood flood-opacity="0" result="BackgroundImageFix"/>
<feBlend mode="normal" in="SourceGraphic" in2="BackgroundImageFix" result="shape"/>
<feColorMatrix in="SourceAlpha" type="matrix" values="0 0 0 0 0 0 0 0 0 0 0 0 0 0 0 0 0 0 127 0" result="hardAlpha"/>
<feOffset dy="-0.0898399"/>
<feComposite in2="hardAlpha" operator="arithmetic" k2="-1" k3="1"/>
<feColorMatrix type="matrix" values="0 0 0 0 0 0 0 0 0 0 0 0 0 0 0 0 0 0 0.12 0"/>
<feBlend mode="normal" in2="shape" result="effect1_innerShadow_31_1866"/>
<feColorMatrix in="SourceAlpha" type="matrix" values="0 0 0 0 0 0 0 0 0 0 0 0 0 0 0 0 0 0 127 0" result="hardAlpha"/>
<feOffset dy="0.0898399"/>
<feComposite in2="hardAlpha" operator="arithmetic" k2="-1" k3="1"/>
<feColorMatrix type="matrix" values="0 0 0 0 1 0 0 0 0 1 0 0 0 0 1 0 0 0 0.25 0"/>
<feBlend mode="normal" in2="effect1_innerShadow_31_1866" result="effect2_innerShadow_31_1866"/>
</filter>
<filter id="filter1_i_31_1866" x="1.05212" y="26.5073" width="33.7603" height="26.3536" filterUnits="userSpaceOnUse" color-interpolation-filters="sRGB">
<feFlood flood-opacity="0" result="BackgroundImageFix"/>
<feBlend mode="normal" in="SourceGraphic" in2="BackgroundImageFix" result="shape"/>
<feColorMatrix in="SourceAlpha" type="matrix" values="0 0 0 0 0 0 0 0 0 0 0 0 0 0 0 0 0 0 127 0" result="hardAlpha"/>
<feOffset dy="-0.0898399"/>
<feComposite in2="hardAlpha" operator="arithmetic" k2="-1" k3="1"/>
<feColorMatrix type="matrix" values="0 0 0 0 0 0 0 0 0 0 0 0 0 0 0 0 0 0 0.08 0"/>
<feBlend mode="normal" in2="shape" result="effect1_innerShadow_31_1866"/>
</filter>
<linearGradient id="paint0_linear_31_1866" x1="24.046" y1="3.36801" x2="-10.3403" y2="37.3197" gradientUnits="userSpaceOnUse">
<stop stop-color="#00A0FF"/>
<stop offset="0.0066" stop-color="#00A1FF"/>
<stop offset="0.2601" stop-color="#00BEFF"/>
<stop offset="0.5122" stop-color="#00D2FF"/>
<stop offset="0.7604" stop-color="#00DFFF"/>
<stop offset="1" stop-color="#00E3FF"/>
</linearGradient>
<linearGradient id="paint1_linear_31_1866" x1="48.3912" y1="26.507" x2="-0.563505" y2="26.507" gradientUnits="userSpaceOnUse">
<stop stop-color="#FFE000"/>
<stop offset="0.4087" stop-color="#FFBD00"/>
<stop offset="0.7754" stop-color="#FFA500"/>
<stop offset="1" stop-color="#FF9C00"/>
</linearGradient>
<linearGradient id="paint2_linear_31_1866" x1="30.1712" y1="31.2078" x2="-16.461" y2="77.2506" gradientUnits="userSpaceOnUse">
<stop stop-color="#FF3A44"/>
<stop offset="1" stop-color="#C31162"/>
</linearGradient>
<linearGradient id="paint3_linear_31_1866" x1="-5.2981" y1="-14.1157" x2="15.5244" y2="6.44364" gradientUnits="userSpaceOnUse">
<stop stop-color="#32A071"/>
<stop offset="0.0685" stop-color="#2DA771"/>
<stop offset="0.4762" stop-color="#15CF74"/>
<stop offset="0.8009" stop-color="#06E775"/>
<stop offset="1" stop-color="#00F076"/>
</linearGradient>
</defs>
</svg>
