<svg width="58" height="58" viewBox="0 0 58 58" fill="none" xmlns="http://www.w3.org/2000/svg">
<path d="M21.75 53.1667H36.25C48.3334 53.1667 53.1667 48.3334 53.1667 36.25V21.75C53.1667 9.66671 48.3334 4.83337 36.25 4.83337H21.75C9.66671 4.83337 4.83337 9.66671 4.83337 21.75V36.25C4.83337 48.3334 9.66671 53.1667 21.75 53.1667Z" stroke="white" stroke-width="3" stroke-linecap="round" stroke-linejoin="round"/>
<path d="M29 37.4583C33.6714 37.4583 37.4583 33.6714 37.4583 29C37.4583 24.3286 33.6714 20.5416 29 20.5416C24.3286 20.5416 20.5416 24.3286 20.5416 29C20.5416 33.6714 24.3286 37.4583 29 37.4583Z" stroke="white" stroke-width="3" stroke-linecap="round" stroke-linejoin="round"/>
<path d="M42.6207 16.9167H42.6486" stroke="white" stroke-width="3" stroke-linecap="round" stroke-linejoin="round"/>
</svg>
