<svg width="102" height="120" viewBox="0 0 102 120" fill="none" xmlns="http://www.w3.org/2000/svg">
<path d="M42.6613 38.9427C42.0468 39.5215 42.0651 40.4445 42.704 41.0079C43.3348 41.5617 44.344 41.5463 44.9585 40.9695C45.573 40.383 45.5465 39.46 44.9157 38.8965C44.2768 38.3427 43.2676 38.3581 42.6613 38.9427Z" fill="#FF7D33"/>
<path d="M56.182 41.3385C56.0986 41.7 55.712 41.925 55.3152 41.8481C54.9286 41.7635 54.6844 41.4097 54.7678 41.0559C54.8513 40.7001 55.2379 40.4694 55.6346 40.554C56.0212 40.6309 56.2654 40.9847 56.182 41.3385Z" fill="#FF7D33"/>
<path d="M58.3592 41.6539C58.2758 42.0174 57.8892 42.2404 57.4924 42.1635C57.1058 42.0789 56.8616 41.7251 56.945 41.3713C57.0285 41.0174 57.4151 40.7848 57.8118 40.8694C58.1984 40.9463 58.4426 41.3001 58.3592 41.6539Z" fill="#FF7D33"/>
<path d="M58.2004 43.7287C58.117 44.0825 57.7304 44.3133 57.3336 44.2306C56.947 44.1537 56.7029 43.7999 56.7863 43.4364C56.8778 43.0826 57.2644 42.8595 57.6531 42.9345C58.0397 43.0191 58.292 43.3749 58.2004 43.7287Z" fill="#FF7D33"/>
<path d="M38.7098 60.0909C38.7098 60.4601 38.3802 60.7697 37.9773 60.7697C37.5744 60.7697 37.2468 60.4601 37.2468 60.0909C37.2468 59.7217 37.5744 59.4218 37.9773 59.4218C38.3802 59.4218 38.7098 59.7217 38.7098 60.0909Z" fill="#FF7D33"/>
<path d="M36.3048 46.4401C36.9355 47.0016 37.9448 46.9862 38.5592 46.4016C39.1656 45.8228 39.1473 44.8921 38.5165 44.3364C37.8776 43.773 36.8684 43.798 36.2539 44.3749C35.6476 44.9614 35.6659 45.8844 36.3048 46.4401Z" fill="#FF7D33"/>
<path d="M41.4262 60.6391C41.4262 61.0083 41.0966 61.3102 40.6937 61.3102C40.2908 61.3102 39.9632 61.0083 39.9632 60.6391C39.9632 60.2699 40.2908 59.968 40.6937 59.968C41.0966 59.968 41.4262 60.2699 41.4262 60.6391Z" fill="#FF7D33"/>
<path d="M38.3721 58.0201C38.3721 58.3893 38.0445 58.6892 37.6416 58.6892C37.2387 58.6892 36.9111 58.3893 36.9111 58.0201C36.9111 57.6509 37.2387 57.3413 37.6416 57.3413C38.0445 57.3413 38.3721 57.6509 38.3721 58.0201Z" fill="#FF7D33"/>
<path d="M99.2774 92.2137L96.2742 93.7539C93.8284 95.0096 87.4699 97.6594 80.265 95.8115C85.9907 92.7828 94.1825 86.9583 98.6629 76.7956C104.364 63.8677 100.346 52.3782 99.2265 49.4746C99.5969 48.4804 101.969 41.8233 99.3018 37.039L99.4524 36.3679L99.487 36.1968C100.091 31.899 100.222 23.5823 95.0472 15.7022C89.3175 6.97783 77.8131 2.98583 73.9899 2.04359C55.4027 -2.7522 34.8805 0.634083 9.83104 14.9561L9.37729 15.2176L9.07412 15.6252C5.55201 20.4345 3.63327 27.7532 1.97701 34.8353L1.31166 37.6313L9.35084 37.6236C8.79536 38.3101 8.25006 39.0254 7.72917 39.7753C-4.77623 57.649 -0.680338 84.57 9.88801 88.4293C9.9816 88.4601 10.0752 88.4986 10.1668 88.5216L10.124 88.6216C5.96304 98.7997 3.30568 106.28 1.97701 111.512L1.39508 113.822L3.93441 114.291C10.8789 115.587 18.7085 116.379 27.8485 116.702L29.8751 116.771L34.2233 101.509C36.8542 102.184 39.4098 102.603 41.9023 102.799C44.1405 107.23 47.1478 111.124 50.9568 113.837C56.7253 117.952 64.091 120 73.2065 120C80.4216 120 88.7375 118.381 98.2234 115.816L99.7617 115.4L99.9977 113.952C101.202 106.734 101.192 100.632 99.9733 95.2923L99.2754 92.2098L99.2774 92.2137ZM26.0213 112.006C19.1257 111.697 13.0378 111.11 7.53791 110.216C8.95814 105.347 11.3632 98.7766 14.8609 90.2311L15.4428 88.7735C18.7899 88.212 22.1696 86.4622 24.2796 84.2893C26.298 82.2106 28.9066 77.9321 26.9125 75.638C25.6266 74.165 22.7597 73.8958 19.791 74.6515C19.2681 74.8207 18.5356 75.0207 17.6545 75.1919C15.6524 75.5611 13.4182 75.6303 13.3572 75.3534C13.2982 75.0688 15.5954 74.9611 18.2426 73.3593C18.4603 73.2286 18.678 73.0882 18.8815 72.944C18.9405 72.9132 18.9975 72.8747 19.0585 72.8286C19.2457 72.6901 19.4288 72.5498 19.6058 72.4132C20.4645 71.596 20.5988 70.4634 20.145 69.0693C20.0942 68.9 20.0291 68.7231 19.9599 68.5443C18.5132 64.4235 17.9903 60.9007 17.8071 58.3989C17.4633 53.8531 16.7308 44.3846 22.9957 37.3505C25.3926 34.6546 28.6115 32.5432 28.7051 32.6336C28.7967 32.7182 26.4262 34.5142 24.5685 36.6948C19.5652 42.5578 17.504 52.0821 21.1705 60.1334C21.8522 61.6371 23.073 63.8158 25.2827 66.1368C25.2827 67.3771 25.5106 69.1404 26.8128 70.4576C29.3257 72.9844 34.2213 72.269 37.5419 71.5921L26.0213 112.01V112.006ZM35.5296 59.5431C35.3139 59.6161 35.1064 59.7065 34.9029 59.8065C34.2274 60.1449 33.6393 60.6237 33.1571 61.2218C33.0167 61.4006 32.801 61.4929 32.5813 61.4929C32.4307 61.4929 32.2761 61.4468 32.1479 61.3545C31.8305 61.1276 31.7694 60.7007 32.0095 60.4007C32.6199 59.6411 33.3667 59.0354 34.2294 58.6027C34.5488 58.4431 34.8785 58.3085 35.2203 58.2028C34.854 55.4799 35.8287 52.0206 38.0038 50.0938C39.5319 48.7304 41.0396 48.6843 42.6369 47.8363C42.8953 47.9228 43.4955 48.092 44.2239 47.9439C44.6777 47.8536 45.0154 47.6728 45.2189 47.542C45.1436 47.5497 45.0684 47.5497 44.991 47.5344L43.5789 47.2344L43.5037 47.2113L43.0255 47.1113C42.6389 47.0267 42.5026 46.594 42.7813 46.3498L44.2687 45.0172C44.5556 44.7615 45.0256 44.8865 45.1172 45.2326L45.2006 45.5422C46.5049 43.6847 46.041 42.2905 47.6219 40.881C49.4206 39.2754 52.8267 38.5812 55.6489 39.0754C55.8117 38.6466 56.0253 38.2351 56.2878 37.8524C56.8148 37.0755 57.5147 36.4217 58.3653 35.9102C58.701 35.7064 59.1466 35.8026 59.3602 36.1198C59.5739 36.4371 59.4742 36.8582 59.1384 37.0602C58.465 37.464 57.9115 37.9793 57.4985 38.5889C57.3153 38.8581 57.1627 39.1446 57.0427 39.4407C57.3581 39.5523 57.6612 39.685 57.942 39.8349C58.465 39.1158 59.0672 38.437 59.7367 37.8178C60.7499 36.8775 61.9179 36.0641 63.2099 35.4007C63.5599 35.2199 63.9974 35.343 64.1886 35.6737C64.3799 36.0025 64.2497 36.416 63.8997 36.5967C62.7257 37.2024 61.6615 37.9389 60.7459 38.7908C60.1233 39.3677 59.5678 39.9984 59.0876 40.6676C59.2402 40.8176 59.3826 40.9791 59.5067 41.1502C60.0358 40.6849 60.634 40.3138 61.2953 40.0445C61.926 39.785 62.5975 39.6253 63.2893 39.5677C63.6861 39.535 64.034 39.8138 64.0686 40.1868C64.1032 40.5618 63.8102 40.8926 63.4134 40.9252C62.8762 40.9676 62.3574 41.0945 61.8691 41.2925C61.2159 41.5617 60.6421 41.9521 60.1599 42.4597C60.1497 42.4694 60.1416 42.479 60.1314 42.4867C61.0165 45.9249 57.6022 50.7668 54.2063 51.3648C50.3546 52.0494 45.8049 47.4055 45.7052 47.5344C45.6625 47.5805 46.5272 48.2055 47.101 48.6689C49.0849 50.2938 51.0952 53.0205 51.0871 54.9396C51.0728 58.6508 43.5627 62.789 39.0151 62.2986C38.9744 62.4294 38.8889 62.5524 38.7628 62.6409C38.189 63.0524 37.7291 63.562 37.3934 64.1543C37.1411 64.5965 36.9681 65.0773 36.8766 65.5772C36.8155 65.9099 36.5103 66.1445 36.1664 66.1445C36.1258 66.1445 36.085 66.1406 36.0444 66.1349C35.6537 66.0714 35.3892 65.7195 35.4563 65.3484C35.5723 64.7023 35.7961 64.085 36.1237 63.5101C36.4716 62.8967 36.9234 62.3505 37.4707 61.889C37.2774 61.7987 37.1004 61.6929 36.9335 61.5737C36.9132 61.5583 36.8928 61.5448 36.8745 61.5275C36.1624 61.914 35.4807 62.3717 34.8479 62.887C33.8733 63.6812 33.0086 64.6215 32.272 65.6791C32.1357 65.8791 31.9037 65.9868 31.6697 65.9868C31.5334 65.9868 31.395 65.9503 31.275 65.8753C30.9413 65.6676 30.8497 65.2465 31.0674 64.9311C31.8732 63.7697 32.8275 62.7351 33.9018 61.8583C34.5427 61.3352 35.2284 60.866 35.9447 60.4622C35.7798 60.1834 35.6415 59.8776 35.5275 59.5527L35.5296 59.5431ZM40.6937 44.8826C40.6937 46.8786 38.9194 48.4958 36.7402 48.4958C34.5611 48.4958 32.7888 46.8786 32.7888 44.8826C32.7888 42.8866 34.5529 41.2618 36.7402 41.2618C38.9276 41.2618 40.6937 42.8809 40.6937 44.8826ZM39.3325 39.6061C39.3325 37.6101 41.0966 35.9929 43.2839 35.9929C45.4712 35.9929 47.2374 37.6101 47.2374 39.6061C47.2374 41.6021 45.4631 43.227 43.2839 43.227C41.1047 43.227 39.3325 41.6079 39.3325 39.6061ZM95.2405 111.799C76.2505 117.01 62.7216 116.223 54.0618 110.191C44.171 103.301 41.4404 91.4964 42.1953 73.567L42.2625 71.4556L39.6641 71.1172C51.2437 68.2732 66.6405 59.3912 69.0944 46.6537C69.54 44.3423 70.6855 38.4331 66.9843 35.2295C65.9161 34.3046 64.7217 33.8508 63.8814 33.6104C62.8986 32.4701 61.4682 30.976 59.5251 29.4665C58.2391 28.4647 53.3944 24.813 46.4011 23.2785C34.3352 20.621 24.8982 25.4899 22.9815 26.5225C20.6008 27.8089 17.2537 29.8511 13.8822 32.872L13.0825 33.0028L7.57657 33.0105C8.90524 27.6628 10.5452 22.1613 12.9747 18.6096C36.4452 5.28758 55.7018 2.62624 72.2909 6.38941C75.3633 7.27204 85.8686 10.7872 90.758 18.1308C94.272 23.4073 94.8865 29.0108 94.7176 32.947C93.7674 32.524 92.7175 32.3144 91.7082 32.6528C89.7305 33.3162 89.1933 35.6891 89.1689 35.8045C88.8657 37.2524 89.4212 38.462 89.9747 39.2658C89.1852 38.5254 87.883 37.662 86.0924 37.5409C85.8137 37.5255 83.433 37.3947 81.8704 38.8196C79.2476 41.2137 80.3423 46.6921 83.5531 49.638C84.4016 50.4149 85.307 51.0072 86.2226 51.1975C86.9124 51.3379 87.7487 51.2398 88.6908 50.986C91.458 50.2303 93.0797 48.4497 93.7369 47.642C92.5079 49.6592 90.4569 52.534 87.1871 55.3165C83.0831 58.7912 78.9953 60.2161 74.3032 62.2659C66.5408 65.658 59.7713 66.6118 59.696 66.3964C59.1486 68.4847 56.2247 80.4819 64.3148 90.6349C66.0301 92.7925 67.9142 94.4654 69.7292 95.7749L69.7373 95.7826L69.7638 95.8057C69.7638 95.8057 69.7801 95.8134 69.7801 95.8211C72.2848 97.7613 75.0947 99.1862 78.1448 100.073C85.1605 102.107 91.5149 100.69 95.5518 99.1862C96.0219 102.901 95.914 107.122 95.2405 111.799Z" fill="#FF7D33"/>
<path d="M38.5573 46.4016C37.9428 46.9881 36.9336 47.0035 36.3028 46.44C35.6639 45.8862 35.6476 44.9613 36.2519 44.3748C36.8664 43.796 37.8756 43.7729 38.5145 44.3364C39.1453 44.8902 39.1616 45.8228 38.5573 46.4016Z" fill="#FF7D33"/>
<path d="M44.9564 40.9694C44.3419 41.5482 43.3327 41.5617 42.7019 41.0079C42.063 40.4464 42.0467 39.5214 42.6592 38.9426C43.2655 38.3561 44.2727 38.3408 44.9137 38.8965C45.5444 39.458 45.5689 40.3829 44.9564 40.9694Z" fill="#FF7D33"/>
<path d="M38.7098 60.0909C38.7098 60.4601 38.3802 60.7697 37.9773 60.7697C37.5744 60.7697 37.2468 60.4601 37.2468 60.0909C37.2468 59.7217 37.5744 59.4218 37.9773 59.4218C38.3802 59.4218 38.7098 59.7217 38.7098 60.0909Z" fill="#FF7D33"/>
<path d="M41.4262 60.6391C41.4262 61.0083 41.0966 61.3102 40.6937 61.3102C40.2908 61.3102 39.9632 61.0083 39.9632 60.6391C39.9632 60.2699 40.2908 59.968 40.6937 59.968C41.0966 59.968 41.4262 60.2699 41.4262 60.6391Z" fill="#FF7D33"/>
<path d="M38.3721 58.0201C38.3721 58.3893 38.0445 58.6892 37.6416 58.6892C37.2387 58.6892 36.9111 58.3893 36.9111 58.0201C36.9111 57.6509 37.2387 57.3413 37.6416 57.3413C38.0445 57.3413 38.3721 57.6509 38.3721 58.0201Z" fill="#FF7D33"/>
<path d="M58.3592 41.6539C58.2758 42.0174 57.8892 42.2404 57.4924 42.1635C57.1058 42.0789 56.8616 41.7251 56.945 41.3713C57.0285 41.0174 57.4151 40.7848 57.8118 40.8694C58.1984 40.9463 58.4426 41.3001 58.3592 41.6539Z" fill="#FF7D33"/>
<path d="M56.182 41.3385C56.0986 41.7 55.712 41.925 55.3152 41.8481C54.9286 41.7635 54.6844 41.4097 54.7678 41.0559C54.8513 40.7001 55.2379 40.4694 55.6346 40.554C56.0212 40.6309 56.2654 40.9847 56.182 41.3385Z" fill="#FF7D33"/>
<path d="M58.2004 43.7287C58.117 44.0825 57.7304 44.3133 57.3336 44.2306C56.947 44.1537 56.7029 43.7999 56.7863 43.4364C56.8778 43.0826 57.2644 42.8595 57.6531 42.9345C58.0397 43.0191 58.292 43.3749 58.2004 43.7287Z" fill="#FF7D33"/>
<path d="M38.5573 46.4016C37.9428 46.9881 36.9336 47.0035 36.3028 46.44C35.6639 45.8862 35.6476 44.9613 36.2519 44.3748C36.8664 43.796 37.8756 43.7729 38.5145 44.3364C39.1453 44.8902 39.1616 45.8228 38.5573 46.4016Z" fill="#FF7D33"/>
<path d="M44.9564 40.9694C44.3419 41.5482 43.3327 41.5617 42.7019 41.0079C42.063 40.4464 42.0467 39.5214 42.6592 38.9426C43.2655 38.3561 44.2727 38.3408 44.9137 38.8965C45.5444 39.458 45.5689 40.3829 44.9564 40.9694Z" fill="#FF7D33"/>
</svg>
