<svg width="32" height="32" viewBox="0 0 32 32" fill="none" xmlns="http://www.w3.org/2000/svg">
<path fill-rule="evenodd" clip-rule="evenodd" d="M15.9993 1.66675C12.5015 1.66675 9.66602 4.50228 9.66602 8.00008C9.66602 11.4979 12.5015 14.3334 15.9993 14.3334C19.4972 14.3334 22.3327 11.4979 22.3327 8.00008C22.3327 4.50228 19.4972 1.66675 15.9993 1.66675ZM11.666 8.00008C11.666 5.60685 13.6061 3.66675 15.9993 3.66675C18.3926 3.66675 20.3327 5.60685 20.3327 8.00008C20.3327 10.3933 18.3926 12.3334 15.9993 12.3334C13.6061 12.3334 11.666 10.3933 11.666 8.00008Z" fill="#1C1C1C"/>
<path fill-rule="evenodd" clip-rule="evenodd" d="M11.9993 16.3334C8.50155 16.3334 5.66602 19.1689 5.66602 22.6667C5.66602 26.1646 8.50155 29.0001 11.9993 29.0001H19.9993C23.4972 29.0001 26.3327 26.1646 26.3327 22.6667C26.3327 19.1689 23.4972 16.3334 19.9993 16.3334H11.9993ZM7.66602 22.6667C7.66602 20.2735 9.60612 18.3334 11.9993 18.3334H19.9993C22.3926 18.3334 24.3327 20.2735 24.3327 22.6667C24.3327 25.06 22.3926 27.0001 19.9993 27.0001H11.9993C9.60611 27.0001 7.66602 25.06 7.66602 22.6667Z" fill="#1C1C1C"/>
</svg>
