<svg width="102" height="164" viewBox="0 0 102 164" fill="none" xmlns="http://www.w3.org/2000/svg">
<path d="M42.8363 38.9427C42.2218 39.5215 42.2402 40.4445 42.8791 41.0079C43.5098 41.5617 44.519 41.5463 45.1335 40.9695C45.748 40.383 45.7216 39.46 45.0908 38.8965C44.4519 38.3427 43.4427 38.3581 42.8363 38.9427Z" fill="white"/>
<path d="M56.357 41.3385C56.2736 41.7 55.887 41.925 55.4902 41.8481C55.1036 41.7635 54.8595 41.4097 54.9429 41.0559C55.0263 40.7001 55.4129 40.4694 55.8097 40.554C56.1963 40.6309 56.4405 40.9847 56.357 41.3385Z" fill="white"/>
<path d="M58.5342 41.6539C58.4508 42.0174 58.0642 42.2404 57.6674 42.1635C57.2808 42.0789 57.0367 41.7251 57.1201 41.3713C57.2035 41.0174 57.5901 40.7848 57.9869 40.8694C58.3735 40.9463 58.6176 41.3001 58.5342 41.6539Z" fill="white"/>
<path d="M58.3755 43.7287C58.292 44.0825 57.9054 44.3133 57.5087 44.2306C57.1221 44.1537 56.8779 43.7999 56.9613 43.4364C57.0529 43.0826 57.4395 42.8595 57.8281 42.9345C58.2147 43.0191 58.467 43.3749 58.3755 43.7287Z" fill="white"/>
<path d="M38.8849 60.0909C38.8849 60.4601 38.5552 60.7697 38.1524 60.7697C37.7495 60.7697 37.4219 60.4601 37.4219 60.0909C37.4219 59.7217 37.7495 59.4218 38.1524 59.4218C38.5552 59.4218 38.8849 59.7217 38.8849 60.0909Z" fill="white"/>
<path d="M36.4798 46.4401C37.1106 47.0016 38.1198 46.9862 38.7343 46.4016C39.3406 45.8228 39.3223 44.8921 38.6916 44.3364C38.0527 43.773 37.0434 43.798 36.4289 44.3749C35.8226 44.9614 35.8409 45.8844 36.4798 46.4401Z" fill="white"/>
<path d="M41.6012 60.6391C41.6012 61.0083 41.2716 61.3102 40.8687 61.3102C40.4659 61.3102 40.1383 61.0083 40.1383 60.6391C40.1383 60.2699 40.4659 59.968 40.8687 59.968C41.2716 59.968 41.6012 60.2699 41.6012 60.6391Z" fill="white"/>
<path d="M38.5471 58.0201C38.5471 58.3893 38.2195 58.6892 37.8167 58.6892C37.4138 58.6892 37.0862 58.3893 37.0862 58.0201C37.0862 57.6509 37.4138 57.3413 37.8167 57.3413C38.2195 57.3413 38.5471 57.6509 38.5471 58.0201Z" fill="white"/>
<path d="M99.4525 92.2137L96.4492 93.7539C94.0035 95.0096 87.645 97.6594 80.44 95.8115C86.1657 92.7828 94.3575 86.9583 98.838 76.7956C104.539 63.8677 100.521 52.3782 99.4016 49.4746C99.7719 48.4804 102.144 41.8233 99.4769 37.039L99.6274 36.3679L99.662 36.1968C100.266 31.899 100.397 23.5823 95.2223 15.7022C89.4925 6.97783 77.9882 2.98583 74.1649 2.04359C55.5778 -2.7522 35.0556 0.634083 10.0061 14.9561L9.55234 15.2176L9.24917 15.6252C5.72706 20.4345 3.80832 27.7532 2.15206 34.8353L1.4867 37.6313L9.52589 37.6236C8.97041 38.3101 8.42511 39.0254 7.90422 39.7753C-4.60118 57.649 -0.50529 84.57 10.0631 88.4293C10.1567 88.4601 10.2502 88.4986 10.3418 88.5216L10.2991 88.6216C6.13808 98.7997 3.48073 106.28 2.15206 111.512L1.57013 113.822L4.10946 114.291C11.054 115.587 18.8836 116.379 28.0236 116.702L30.0501 116.771L34.3983 101.509C37.0292 102.184 39.5848 102.603 42.0774 102.799C44.3156 107.23 47.3229 111.124 51.1319 113.837C56.9003 117.952 64.266 120 73.3816 120C80.5967 120 88.9126 118.381 98.3985 115.816L99.9367 115.4L100.173 113.952C101.377 106.734 101.367 100.632 100.148 95.2923L99.4504 92.2098L99.4525 92.2137ZM26.1964 112.006C19.3007 111.697 13.2128 111.11 7.71295 110.216C9.13319 105.347 11.5382 98.7766 15.0359 90.2311L15.6178 88.7735C18.965 88.212 22.3446 86.4622 24.4547 84.2893C26.4731 82.2106 29.0816 77.9321 27.0876 75.638C25.8016 74.165 22.9347 73.8958 19.966 74.6515C19.4431 74.8207 18.7106 75.0207 17.8296 75.1919C15.8274 75.5611 13.5933 75.6303 13.5323 75.3534C13.4732 75.0688 15.7705 74.9611 18.4176 73.3593C18.6353 73.2286 18.8531 73.0882 19.0565 72.944C19.1155 72.9132 19.1725 72.8747 19.2336 72.8286C19.4207 72.6901 19.6039 72.5498 19.7809 72.4132C20.6395 71.596 20.7738 70.4634 20.3201 69.0693C20.2692 68.9 20.2041 68.7231 20.1349 68.5443C18.6882 64.4235 18.1653 60.9007 17.9822 58.3989C17.6383 53.8531 16.9058 44.3846 23.1707 37.3505C25.5676 34.6546 28.7866 32.5432 28.8802 32.6336C28.9717 32.7182 26.6013 34.5142 24.7436 36.6948C19.7402 42.5578 17.679 52.0821 21.3456 60.1334C22.0272 61.6371 23.2481 63.8158 25.4578 66.1368C25.4578 67.3771 25.6857 69.1404 26.9879 70.4576C29.5008 72.9844 34.3963 72.269 37.717 71.5921L26.1964 112.01V112.006ZM35.7046 59.5431C35.4889 59.6161 35.2814 59.7065 35.0779 59.8065C34.4024 60.1449 33.8144 60.6237 33.3321 61.2218C33.1917 61.4006 32.9761 61.4929 32.7563 61.4929C32.6057 61.4929 32.4511 61.4468 32.3229 61.3545C32.0055 61.1276 31.9445 60.7007 32.1846 60.4007C32.795 59.6411 33.5417 59.0354 34.4044 58.6027C34.7239 58.4431 35.0535 58.3085 35.3953 58.2028C35.0291 55.4799 36.0037 52.0206 38.1788 50.0938C39.7069 48.7304 41.2147 48.6843 42.8119 47.8363C43.0703 47.9228 43.6706 48.092 44.399 47.9439C44.8527 47.8536 45.1905 47.6728 45.394 47.542C45.3187 47.5497 45.2434 47.5497 45.1661 47.5344L43.754 47.2344L43.6787 47.2113L43.2005 47.1113C42.8139 47.0267 42.6776 46.594 42.9564 46.3498L44.4438 45.0172C44.7307 44.7615 45.2007 44.8865 45.2922 45.2326L45.3757 45.5422C46.6799 43.6847 46.216 42.2905 47.797 40.881C49.5957 39.2754 53.0018 38.5812 55.824 39.0754C55.9867 38.6466 56.2004 38.2351 56.4629 37.8524C56.9899 37.0755 57.6898 36.4217 58.5403 35.9102C58.876 35.7064 59.3216 35.8026 59.5353 36.1198C59.7489 36.4371 59.6492 36.8582 59.3135 37.0602C58.64 37.464 58.0866 37.9793 57.6735 38.5889C57.4904 38.8581 57.3378 39.1446 57.2177 39.4407C57.5331 39.5523 57.8363 39.685 58.1171 39.8349C58.64 39.1158 59.2423 38.437 59.9117 37.8178C60.925 36.8775 62.0929 36.0641 63.385 35.4007C63.7349 35.2199 64.1724 35.343 64.3637 35.6737C64.5549 36.0025 64.4247 36.416 64.0747 36.5967C62.9007 37.2024 61.8366 37.9389 60.9209 38.7908C60.2983 39.3677 59.7428 39.9984 59.2626 40.6676C59.4152 40.8176 59.5577 40.9791 59.6818 41.1502C60.2108 40.6849 60.809 40.3138 61.4703 40.0445C62.1011 39.785 62.7725 39.6253 63.4643 39.5677C63.8611 39.535 64.209 39.8138 64.2436 40.1868C64.2782 40.5618 63.9852 40.8926 63.5884 40.9252C63.0513 40.9676 62.5324 41.0945 62.0441 41.2925C61.391 41.5617 60.8172 41.9521 60.3349 42.4597C60.3248 42.4694 60.3166 42.479 60.3064 42.4867C61.1915 45.9249 57.7773 50.7668 54.3813 51.3648C50.5296 52.0494 45.98 47.4055 45.8803 47.5344C45.8375 47.5805 46.7023 48.2055 47.2761 48.6689C49.2599 50.2938 51.2703 53.0205 51.2621 54.9396C51.2479 58.6508 43.7377 62.789 39.1901 62.2986C39.1494 62.4294 39.064 62.5524 38.9378 62.6409C38.364 63.0524 37.9042 63.562 37.5684 64.1543C37.3161 64.5965 37.1432 65.0773 37.0516 65.5772C36.9906 65.9099 36.6854 66.1445 36.3415 66.1445C36.3008 66.1445 36.2601 66.1406 36.2194 66.1349C35.8287 66.0714 35.5642 65.7195 35.6314 65.3484C35.7474 64.7023 35.9712 64.085 36.2988 63.5101C36.6467 62.8967 37.0984 62.3505 37.6457 61.889C37.4524 61.7987 37.2754 61.6929 37.1086 61.5737C37.0882 61.5583 37.0679 61.5448 37.0496 61.5275C36.3374 61.914 35.6558 62.3717 35.023 62.887C34.0484 63.6812 33.1836 64.6215 32.447 65.6791C32.3107 65.8791 32.0787 65.9868 31.8448 65.9868C31.7084 65.9868 31.5701 65.9503 31.45 65.8753C31.1163 65.6676 31.0248 65.2465 31.2425 64.9311C32.0482 63.7697 33.0025 62.7351 34.0769 61.8583C34.7178 61.3352 35.4035 60.866 36.1197 60.4622C35.9549 60.1834 35.8165 59.8776 35.7026 59.5527L35.7046 59.5431ZM40.8688 44.8826C40.8688 46.8786 39.0945 48.4958 36.9153 48.4958C34.7361 48.4958 32.9639 46.8786 32.9639 44.8826C32.9639 42.8866 34.728 41.2618 36.9153 41.2618C39.1026 41.2618 40.8688 42.8809 40.8688 44.8826ZM39.5075 39.6061C39.5075 37.6101 41.2716 35.9929 43.459 35.9929C45.6463 35.9929 47.4124 37.6101 47.4124 39.6061C47.4124 41.6021 45.6381 43.227 43.459 43.227C41.2798 43.227 39.5075 41.6079 39.5075 39.6061ZM95.4156 111.799C76.4255 117.01 62.8967 116.223 54.2369 110.191C44.3461 103.301 41.6155 91.4964 42.3704 73.567L42.4375 71.4556L39.8392 71.1172C51.4188 68.2732 66.8155 59.3912 69.2694 46.6537C69.715 44.3423 70.8605 38.4331 67.1594 35.2295C66.0911 34.3046 64.8968 33.8508 64.0564 33.6104C63.0737 32.4701 61.6433 30.976 59.7001 29.4665C58.4142 28.4647 53.5695 24.813 46.5761 23.2785C34.5102 20.621 25.0732 25.4899 23.1565 26.5225C20.7759 27.8089 17.4288 29.8511 14.0572 32.872L13.2576 33.0028L7.75162 33.0105C9.08029 27.6628 10.7203 22.1613 13.1497 18.6096C36.6202 5.28758 55.8769 2.62624 72.4659 6.38941C75.5384 7.27204 86.0436 10.7872 90.9331 18.1308C94.447 23.4073 95.0615 29.0108 94.8927 32.947C93.9424 32.524 92.8925 32.3144 91.8833 32.6528C89.9055 33.3162 89.3684 35.6891 89.344 35.8045C89.0408 37.2524 89.5963 38.462 90.1497 39.2658C89.3602 38.5254 88.058 37.662 86.2675 37.5409C85.9887 37.5255 83.6081 37.3947 82.0454 38.8196C79.4227 41.2137 80.5173 46.6921 83.7281 49.638C84.5766 50.4149 85.4821 51.0072 86.3977 51.1975C87.0875 51.3379 87.9237 51.2398 88.8658 50.986C91.633 50.2303 93.2547 48.4497 93.9119 47.642C92.6829 49.6592 90.6319 52.534 87.3621 55.3165C83.2581 58.7912 79.1703 60.2161 74.4783 62.2659C66.7158 65.658 59.9463 66.6118 59.871 66.3964C59.3237 68.4847 56.3998 80.4819 64.4898 90.6349C66.2051 92.7925 68.0893 94.4654 69.9042 95.7749L69.9124 95.7826L69.9388 95.8057C69.9388 95.8057 69.9551 95.8134 69.9551 95.8211C72.4598 97.7613 75.2698 99.1862 78.3198 100.073C85.3356 102.107 91.69 100.69 95.7269 99.1862C96.1969 102.901 96.0891 107.122 95.4156 111.799Z" fill="white"/>
<path d="M38.7323 46.4016C38.1178 46.9881 37.1086 47.0035 36.4778 46.44C35.8389 45.8862 35.8227 44.9613 36.427 44.3748C37.0415 43.796 38.0507 43.7729 38.6896 44.3364C39.3203 44.8902 39.3366 45.8228 38.7323 46.4016Z" fill="white"/>
<path d="M45.1315 40.9694C44.517 41.5482 43.5077 41.5617 42.877 41.0079C42.2381 40.4464 42.2218 39.5214 42.8343 38.9426C43.4406 38.3561 44.4478 38.3408 45.0887 38.8965C45.7195 39.458 45.7439 40.3829 45.1315 40.9694Z" fill="white"/>
<path d="M38.8849 60.0909C38.8849 60.4601 38.5552 60.7697 38.1524 60.7697C37.7495 60.7697 37.4219 60.4601 37.4219 60.0909C37.4219 59.7217 37.7495 59.4218 38.1524 59.4218C38.5552 59.4218 38.8849 59.7217 38.8849 60.0909Z" fill="white"/>
<path d="M41.6012 60.6391C41.6012 61.0083 41.2716 61.3102 40.8687 61.3102C40.4659 61.3102 40.1383 61.0083 40.1383 60.6391C40.1383 60.2699 40.4659 59.968 40.8687 59.968C41.2716 59.968 41.6012 60.2699 41.6012 60.6391Z" fill="white"/>
<path d="M38.5471 58.0201C38.5471 58.3893 38.2195 58.6892 37.8167 58.6892C37.4138 58.6892 37.0862 58.3893 37.0862 58.0201C37.0862 57.6509 37.4138 57.3413 37.8167 57.3413C38.2195 57.3413 38.5471 57.6509 38.5471 58.0201Z" fill="white"/>
<path d="M58.5342 41.6539C58.4508 42.0174 58.0642 42.2404 57.6674 42.1635C57.2808 42.0789 57.0367 41.7251 57.1201 41.3713C57.2035 41.0174 57.5901 40.7848 57.9869 40.8694C58.3735 40.9463 58.6176 41.3001 58.5342 41.6539Z" fill="white"/>
<path d="M56.357 41.3385C56.2736 41.7 55.887 41.925 55.4902 41.8481C55.1036 41.7635 54.8595 41.4097 54.9429 41.0559C55.0263 40.7001 55.4129 40.4694 55.8097 40.554C56.1963 40.6309 56.4405 40.9847 56.357 41.3385Z" fill="white"/>
<path d="M58.3755 43.7287C58.292 44.0825 57.9054 44.3133 57.5087 44.2306C57.1221 44.1537 56.8779 43.7999 56.9613 43.4364C57.0529 43.0826 57.4395 42.8595 57.8281 42.9345C58.2147 43.0191 58.467 43.3749 58.3755 43.7287Z" fill="white"/>
<path d="M38.7323 46.4016C38.1178 46.9881 37.1086 47.0035 36.4778 46.44C35.8389 45.8862 35.8227 44.9613 36.427 44.3748C37.0415 43.796 38.0507 43.7729 38.6896 44.3364C39.3203 44.8902 39.3366 45.8228 38.7323 46.4016Z" fill="white"/>
<path d="M45.1315 40.9694C44.517 41.5482 43.5077 41.5617 42.877 41.0079C42.2381 40.4464 42.2218 39.5214 42.8343 38.9426C43.4406 38.3561 44.4478 38.3408 45.0887 38.8965C45.7195 39.458 45.7439 40.3829 45.1315 40.9694Z" fill="white"/>
<path d="M15.0087 133.712C17.2464 133.712 19.1873 133.944 20.8293 134.41C22.4712 134.876 23.833 135.549 24.9145 136.429C25.996 137.309 26.8014 138.383 27.3307 139.648C27.86 140.913 28.1236 142.346 28.1236 143.946C28.1236 145.025 27.9929 146.052 27.7313 147.025C27.4698 147.998 27.0691 148.894 26.5274 149.714C25.9856 150.532 25.3047 151.263 24.4848 151.9C23.6648 152.54 22.6996 153.07 21.5932 153.49L27.9348 162.793H20.6964L15.2122 154.532H15.044L6.08901 154.513V162.793H0.175049V133.712H15.0087ZM15.1582 149.416C16.2771 149.416 17.2568 149.286 18.0954 149.025C18.9341 148.764 19.6378 148.399 20.2024 147.927C20.767 147.455 21.1905 146.882 21.4707 146.207C21.7509 145.532 21.89 144.778 21.89 143.946C21.89 142.321 21.3295 141.066 20.2107 140.178C19.0918 139.292 17.4063 138.847 15.1561 138.847H6.09109V149.414H15.1561L15.1582 149.416Z" fill="white"/>
<path d="M37.3402 137.843C36.7922 137.843 36.2982 137.766 35.8581 137.611C35.416 137.455 35.0402 137.244 34.7289 136.977C34.4175 136.71 34.1788 136.4 34.0106 136.048C33.8425 135.696 33.7595 135.319 33.7595 134.921C33.7595 134.524 33.8425 134.13 34.0106 133.776C34.1788 133.422 34.4175 133.116 34.7289 132.855C35.0402 132.594 35.416 132.387 35.8581 132.232C36.3002 132.077 36.7943 132 37.3402 132C37.8862 132 38.401 132.079 38.841 132.232C39.2832 132.387 39.6589 132.594 39.9703 132.855C40.2816 133.116 40.5204 133.422 40.6885 133.776C40.8566 134.13 40.9397 134.511 40.9397 134.921C40.9397 135.331 40.8566 135.694 40.6885 136.048C40.5204 136.402 40.2816 136.712 39.9703 136.977C39.6589 137.244 39.2832 137.455 38.841 137.611C38.3989 137.766 37.8986 137.843 37.3402 137.843ZM34.5794 140.838H40.101V162.792H34.5794V140.838Z" fill="white"/>
<path d="M48.0472 156.058C49.5397 156.95 51.1817 157.608 52.971 158.031C54.7624 158.453 56.5954 158.664 58.474 158.664C59.7423 158.664 60.7989 158.577 61.6458 158.403C62.4906 158.229 63.1694 158.006 63.6801 157.733C64.1907 157.459 64.5498 157.151 64.7616 156.803C64.9733 156.455 65.0792 156.103 65.0792 155.743C65.0792 155.221 64.8529 154.776 64.3983 154.403C63.9437 154.031 63.1944 153.844 62.1502 153.844C61.6645 153.844 61.1435 153.875 60.583 153.938C60.0225 154 59.4351 154.064 58.8206 154.132C58.2041 154.201 57.5648 154.267 56.8984 154.327C56.2321 154.389 55.5575 154.42 54.8745 154.42C53.382 154.42 52.1096 154.258 51.0592 153.935C50.0089 153.613 49.1536 153.174 48.4935 152.615C47.8334 152.056 47.356 151.395 47.0571 150.633C46.7581 149.871 46.6087 149.049 46.6087 148.167C46.6087 147.052 46.8702 146.023 47.3913 145.078C47.9144 144.136 48.6596 143.321 49.629 142.631C50.5984 141.942 51.7712 141.408 53.1454 141.023C54.5196 140.638 56.0515 140.445 57.7433 140.445C58.6255 140.445 59.5492 140.499 60.5145 140.602C61.4777 140.708 62.4263 140.847 63.3583 141.021C64.2904 141.195 65.1871 141.395 66.0444 141.625C66.9017 141.855 67.6615 142.099 68.3195 142.36L66.5841 146.64C65.1788 146.118 63.7777 145.706 62.3786 145.401C60.9795 145.097 59.5389 144.946 58.0609 144.946C57.0292 144.946 56.1553 145.025 55.4392 145.178C54.723 145.333 54.1418 145.538 53.6955 145.793C53.2471 146.047 52.9212 146.339 52.7157 146.666C52.5102 146.996 52.4085 147.339 52.4085 147.7C52.4085 147.96 52.4604 148.196 52.5662 148.406C52.6721 148.617 52.8465 148.799 53.0893 148.954C53.3322 149.109 53.6498 149.228 54.0401 149.308C54.4324 149.389 54.914 149.428 55.4848 149.428C56.0079 149.428 56.5601 149.397 57.1455 149.335C57.7288 149.273 58.339 149.209 58.9742 149.141C59.6094 149.072 60.2654 149.008 60.9421 148.946C61.6188 148.884 62.3142 148.853 63.0221 148.853C64.3402 148.853 65.4943 149.008 66.4824 149.319C67.4705 149.629 68.2884 150.062 68.936 150.621C69.5816 151.18 70.0673 151.836 70.3912 152.594C70.715 153.352 70.8769 154.176 70.8769 155.068C70.8769 156.221 70.6091 157.296 70.0756 158.287C69.5401 159.279 68.745 160.138 67.6885 160.865C66.6319 161.59 65.3158 162.159 63.7424 162.567C62.1689 162.977 60.3505 163.182 58.2851 163.182C57.0168 163.182 55.792 163.103 54.6109 162.95C53.4298 162.795 52.3047 162.583 51.2336 162.316C50.1645 162.049 49.1599 161.737 48.2216 161.376C47.2833 161.016 46.4281 160.633 45.6559 160.223L48.0431 156.056L48.0472 156.058Z" fill="white"/>
<path d="M74.7981 151.741C74.7981 150.252 75.1032 148.83 75.7115 147.472C76.3217 146.114 77.1977 144.913 78.3415 143.872C79.4853 142.83 80.8885 141.998 82.5471 141.379C84.2077 140.76 86.0946 140.449 88.2078 140.449C90.321 140.449 92.2037 140.762 93.8872 141.389C95.5727 142.017 97.003 142.874 98.1779 143.967C99.3528 145.058 100.254 146.342 100.883 147.818C101.51 149.294 101.825 150.876 101.825 152.563C101.825 152.774 101.821 153 101.817 153.242C101.811 153.484 101.794 153.704 101.771 153.902H80.9529C81.1895 154.561 81.5715 155.161 82.1008 155.708C82.6301 156.254 83.2923 156.724 84.0873 157.122C84.8824 157.519 85.804 157.826 86.8481 158.043C87.8923 158.261 89.0485 158.368 90.3189 158.368C91.5893 158.368 92.8493 158.236 94.1051 157.969C95.361 157.702 96.5608 157.364 97.7046 156.954L99.5707 161.159C98.8484 161.495 98.1177 161.788 97.3787 162.043C96.6376 162.298 95.8675 162.509 95.0662 162.677C94.265 162.844 93.4243 162.971 92.5483 163.058C91.6723 163.145 90.7486 163.188 89.7771 163.188C87.3027 163.188 85.1315 162.89 83.2674 162.296C81.4012 161.699 79.8402 160.888 78.5844 159.859C77.3285 158.83 76.384 157.621 75.7488 156.232C75.1136 154.842 74.7981 153.348 74.7981 151.747V151.741ZM95.9692 149.602C95.7699 148.994 95.4627 148.426 95.0455 147.901C94.6282 147.373 94.1093 146.915 93.4886 146.524C92.8659 146.132 92.1456 145.826 91.3256 145.602C90.5057 145.379 89.6027 145.267 88.6209 145.267C87.5768 145.267 86.624 145.385 85.7666 145.621C84.9093 145.857 84.1558 146.174 83.5103 146.569C82.8626 146.967 82.325 147.424 81.8973 147.946C81.4697 148.468 81.1542 149.018 80.9549 149.602H95.9713H95.9692Z" fill="white"/>
</svg>
