<svg xmlns="http://www.w3.org/2000/svg" width="32" height="32" fill="none"><path fill="currentColor" d="M24.427 17H20c-3.32 0-5-1.88-5-5.6V7.573c0-1.36.16-3.306 1.573-4.373 1.187-.88 2.894-.947 5.414-.213 3.306.96 6.066 3.72 7.026 7.026.734 2.507.667 4.227-.213 5.4C27.733 16.84 25.787 17 24.427 17M19.04 4.48c-.547 0-.973.107-1.253.32-.52.387-.774 1.293-.774 2.773v3.84c0 2.987 1.147 3.6 3 3.6h4.427c1.467 0 2.373-.253 2.773-.773.467-.613.427-1.84-.093-3.64-.773-2.627-3.04-4.907-5.667-5.667-.986-.306-1.786-.453-2.413-.453"/><path fill="currentColor" d="M14.76 30.333c-.707 0-1.427-.053-2.147-.173C7.16 29.28 2.72 24.853 1.84 19.4.707 12.387 5.227 5.773 12.147 4.36a1.014 1.014 0 0 1 1.186.773 1.014 1.014 0 0 1-.773 1.187c-5.853 1.2-9.693 6.8-8.72 12.76.747 4.613 4.493 8.36 9.107 9.107 5.986.96 11.573-2.894 12.76-8.774a.999.999 0 1 1 1.96.387C26.4 26.027 20.96 30.333 14.76 30.333"/></svg>