<svg xmlns="http://www.w3.org/2000/svg" width="32" height="32" fill="none"><path fill="#1C1C1C" d="M22.906 25c-2.28 0-5-.867-5-5v-8c0-4.133 2.72-5 5-5s5 .867 5 5v8c0 4.133-2.72 5-5 5m0-16c-2.16 0-3 .84-3 3v8c0 2.16.84 3 3 3s3-.84 3-3v-8c0-2.16-.84-3-3-3M9.094 25c-2.28 0-5-.867-5-5v-8c0-4.133 2.72-5 5-5s5 .867 5 5v8c0 4.133-2.72 5-5 5m0-16c-2.16 0-3 .84-3 3v8c0 2.16.84 3 3 3s3-.84 3-3v-8c0-2.16-.84-3-3-3"/><path fill="#1C1C1C" d="M18.907 17h-5.813c-.547 0-1-.453-1-1s.453-1 1-1h5.813c.547 0 1 .453 1 1s-.44 1-1 1M30 20.333c-.547 0-1-.453-1-1v-6.666c0-.547.453-1 1-1s1 .453 1 1v6.666c0 .547-.453 1-1 1M2 20.333c-.547 0-1-.453-1-1v-6.666c0-.547.453-1 1-1s1 .453 1 1v6.666c0 .547-.453 1-1 1"/></svg>