<svg width="32" height="32" viewBox="0 0 32 32" fill="none" xmlns="http://www.w3.org/2000/svg">
<path d="M24.4267 17.0001H20C16.68 17.0001 15 15.1201 15 11.4001V7.57344C15 6.21344 15.16 4.26678 16.5733 3.20011C17.76 2.32011 19.4667 2.25344 21.9867 2.98678C25.2933 3.94678 28.0533 6.70678 29.0133 10.0134C29.7467 12.5201 29.68 14.2401 28.8 15.4134C27.7333 16.8401 25.7867 17.0001 24.4267 17.0001ZM19.04 4.48011C18.4933 4.48011 18.0667 4.58678 17.7867 4.80011C17.2667 5.18678 17.0133 6.09344 17.0133 7.57344V11.4134C17.0133 14.4001 18.16 15.0134 20.0133 15.0134H24.44C25.9067 15.0134 26.8133 14.7601 27.2133 14.2401C27.68 13.6268 27.64 12.4001 27.12 10.6001C26.3467 7.97344 24.08 5.69344 21.4533 4.93344C20.4667 4.62678 19.6667 4.48011 19.04 4.48011Z" fill="currentColor"/>
<path d="M14.7598 30.3334C14.0532 30.3334 13.3332 30.2801 12.6132 30.1601C7.15984 29.2801 2.71984 24.8534 1.83984 19.4001C0.70651 12.3868 5.22651 5.77344 12.1465 4.3601C12.6932 4.25344 13.2132 4.6001 13.3332 5.13344C13.4398 5.6801 13.0932 6.2001 12.5598 6.3201C6.70651 7.5201 2.86651 13.1201 3.83984 19.0801C4.58651 23.6934 8.33318 27.4401 12.9465 28.1868C18.9332 29.1468 24.5198 25.2934 25.7065 19.4134C25.8132 18.8668 26.3465 18.5201 26.8798 18.6268C27.4265 18.7334 27.7732 19.2668 27.6665 19.8001C26.3998 26.0268 20.9598 30.3334 14.7598 30.3334Z" fill="currentColor"/>
</svg>
