<svg xmlns="http://www.w3.org/2000/svg" width="32" height="32" fill="none"><path fill="#1C1C1C" d="M11.56 30.333H2.665c-.547 0-1-.453-1-1v-8a3.665 3.665 0 0 1 3.667-3.666h6.226c.547 0 1 .453 1 1v10.666c0 .547-.453 1-1 1m-7.894-2h6.893v-8.666H5.333c-.92 0-1.667.746-1.667 1.666z"/><path fill="#1C1C1C" d="M20.44 30.333h-8.893c-.547 0-1-.453-1-1V16a3.665 3.665 0 0 1 3.666-3.667h3.56A3.665 3.665 0 0 1 21.44 16v13.333c0 .547-.44 1-1 1m-7.88-2h6.893V16c0-.92-.746-1.667-1.666-1.667h-3.56c-.92 0-1.667.747-1.667 1.667z"/><path fill="#1C1C1C" d="M29.333 30.333H20.44c-.547 0-1-.453-1-1v-6.666c0-.547.453-1 1-1h6.226a3.665 3.665 0 0 1 3.667 3.666v4c0 .547-.453 1-1 1m-7.893-2h6.893v-3c0-.92-.747-1.666-1.667-1.666H21.44zM18.266 11.133c-.32 0-.72-.093-1.173-.36l-1.094-.653-1.08.64c-1.093.653-1.813.267-2.08.08s-.84-.773-.56-2l.254-1.107-.907-.906c-.56-.56-.76-1.227-.56-1.84.2-.614.746-1.04 1.52-1.174l1.16-.2.653-1.306c.72-1.427 2.467-1.427 3.174 0l.653 1.306 1.16.2c.773.134 1.333.56 1.52 1.174.2.613-.014 1.28-.56 1.84l-.907.906.253 1.107c.28 1.24-.293 1.813-.56 2.013-.12.107-.426.28-.866.28m-2.267-3.026c.32 0 .64.08.907.24l.747.44-.16-.72c-.134-.56.066-1.24.48-1.654l.68-.68-.84-.146a1.87 1.87 0 0 1-1.294-.96l-.52-1-.507 1c-.24.48-.76.866-1.293.96l-.84.133.68.68c.414.413.6 1.093.48 1.653l-.16.72.747-.44c.253-.16.573-.226.893-.226"/></svg>