<svg width="32" height="32" viewBox="0 0 32 32" fill="none" xmlns="http://www.w3.org/2000/svg">
<path d="M15.9993 30.3334C8.09268 30.3334 1.66602 23.9067 1.66602 16.0001C1.66602 8.09342 8.09268 1.66675 15.9993 1.66675C23.906 1.66675 30.3327 8.09342 30.3327 16.0001C30.3327 23.9067 23.906 30.3334 15.9993 30.3334ZM15.9993 3.66675C9.19935 3.66675 3.66602 9.20008 3.66602 16.0001C3.66602 22.8001 9.19935 28.3334 15.9993 28.3334C22.7993 28.3334 28.3327 22.8001 28.3327 16.0001C28.3327 9.20008 22.7993 3.66675 15.9993 3.66675Z" fill="#1C1C1C"/>
<path d="M15.9993 17.3334C15.2527 17.3334 14.666 16.7334 14.666 16.0001C14.666 15.2667 15.266 14.6667 15.9993 14.6667C16.7327 14.6667 17.3327 15.2667 17.3327 16.0001C17.3327 16.7334 16.746 17.3334 15.9993 17.3334Z" fill="#1C1C1C"/>
<path d="M21.3333 17.3334C20.5867 17.3334 20 16.7334 20 16.0001C20 15.2667 20.6 14.6667 21.3333 14.6667C22.0667 14.6667 22.6667 15.2667 22.6667 16.0001C22.6667 16.7334 22.08 17.3334 21.3333 17.3334Z" fill="#1C1C1C"/>
<path d="M10.6673 17.3334C9.92065 17.3334 9.33398 16.7334 9.33398 16.0001C9.33398 15.2667 9.93398 14.6667 10.6673 14.6667C11.4007 14.6667 12.0007 15.2667 12.0007 16.0001C12.0007 16.7334 11.414 17.3334 10.6673 17.3334Z" fill="#1C1C1C"/>
</svg>
