<svg xmlns="http://www.w3.org/2000/svg" width="32" height="32" fill="none"><path fill="#1C1C1C" d="M16 30.333C8.092 30.333 1.665 23.907 1.665 16S8.093 1.667 15.999 1.667 30.333 8.093 30.333 16s-6.427 14.333-14.334 14.333m0-26.666C9.2 3.667 3.665 9.2 3.665 16s5.533 12.333 12.333 12.333S28.333 22.8 28.333 16 22.799 3.667 15.999 3.667"/><path fill="#1C1C1C" d="M16 17.333c-.747 0-1.334-.6-1.334-1.333s.6-1.333 1.333-1.333c.734 0 1.334.6 1.334 1.333s-.587 1.333-1.334 1.333M21.333 17.333c-.746 0-1.333-.6-1.333-1.333s.6-1.333 1.333-1.333c.734 0 1.334.6 1.334 1.333s-.587 1.333-1.334 1.333M10.667 17.333c-.746 0-1.333-.6-1.333-1.333s.6-1.333 1.333-1.333c.734 0 1.334.6 1.334 1.333s-.587 1.333-1.334 1.333"/></svg>