<svg xmlns="http://www.w3.org/2000/svg" width="28" height="29" fill="none"><path fill="#1C1C1C" d="M15.225 23.157c-.63 0-1.295-.059-2.018-.175l-5.472-.864c-1.727-.268-3.057-.746-4.048-1.446-2.555-1.774-2.404-4.819-2.077-6.954l.863-5.471c.794-5.017 3.384-6.895 8.4-6.114l5.472.864c2.578.408 6.043 1.446 6.265 5.798.047.747 0 1.598-.163 2.601l-.852 5.472c-.677 4.282-2.672 6.289-6.37 6.289M8.785 3.707c-2.777 0-4.037 1.412-4.585 4.819l-.863 5.471c-.537 3.442.443 4.609 1.353 5.25.77.549 1.855.922 3.313 1.143l5.472.864c4.072.642 5.752-.583 6.393-4.667l.852-5.472c.14-.874.187-1.61.14-2.228v-.011c-.128-2.45-1.517-3.652-4.795-4.165l-5.46-.852a12 12 0 0 0-1.82-.152"/><path fill="#1C1C1C" d="M17.127 27.042c-.991 0-2.111-.21-3.406-.642l-5.262-1.75c-2.998-.991-4.62-2.415-5.11-4.491a.87.87 0 0 1 .362-.922.88.88 0 0 1 .991.012c.77.548 1.844.921 3.302 1.143l5.472.863c4.071.642 5.751-.583 6.393-4.666l.852-5.472c.14-.875.186-1.61.14-2.228a.9.9 0 0 1 .408-.782.86.86 0 0 1 .887-.035c3.126 1.668 3.955 4.34 2.601 8.423l-1.75 5.262c-.828 2.473-1.913 3.99-3.43 4.748-.735.362-1.54.537-2.45.537M6.686 21.92c.56.374 1.306.735 2.321 1.074l5.262 1.75c2.007.665 3.442.723 4.515.198 1.074-.537 1.89-1.727 2.555-3.733l1.75-5.262c.957-2.893.583-4.433-.525-5.472-.023.292-.07.595-.117.922l-.851 5.472c-.794 5.016-3.384 6.895-8.4 6.125l-5.472-.864c-.362-.07-.712-.14-1.038-.21M9.614 11.84a2.913 2.913 0 0 1-2.905-2.905A2.913 2.913 0 0 1 9.614 6.03a2.913 2.913 0 0 1 2.905 2.905 2.913 2.913 0 0 1-2.905 2.905m0-4.049c-.63 0-1.155.514-1.155 1.155a1.15 1.15 0 0 0 1.155 1.156c.63 0 1.155-.514 1.155-1.156s-.525-1.155-1.155-1.155"/></svg>