<svg width="32" height="32" viewBox="0 0 32 32" fill="none" xmlns="http://www.w3.org/2000/svg">
<path d="M11.5593 30.3334H2.66602C2.11935 30.3334 1.66602 29.8801 1.66602 29.3334V21.3334C1.66602 19.3067 3.30602 17.6667 5.33268 17.6667H11.5593C12.106 17.6667 12.5593 18.1201 12.5593 18.6667V29.3334C12.5593 29.8801 12.106 30.3334 11.5593 30.3334ZM3.66602 28.3334H10.5593V19.6667H5.33268C4.41268 19.6667 3.66602 20.4134 3.66602 21.3334V28.3334Z" fill="#1C1C1C"/>
<path d="M20.4402 30.3333H11.5469C11.0002 30.3333 10.5469 29.8799 10.5469 29.3333V15.9999C10.5469 13.9733 12.1869 12.3333 14.2135 12.3333H17.7735C19.8002 12.3333 21.4402 13.9733 21.4402 15.9999V29.3333C21.4402 29.8799 21.0002 30.3333 20.4402 30.3333ZM12.5602 28.3333H19.4535V15.9999C19.4535 15.0799 18.7069 14.3333 17.7869 14.3333H14.2269C13.3069 14.3333 12.5602 15.0799 12.5602 15.9999V28.3333Z" fill="#1C1C1C"/>
<path d="M29.3328 30.3334H20.4395C19.8928 30.3334 19.4395 29.8801 19.4395 29.3334V22.6667C19.4395 22.1201 19.8928 21.6667 20.4395 21.6667H26.6661C28.6928 21.6667 30.3328 23.3067 30.3328 25.3334V29.3334C30.3328 29.8801 29.8795 30.3334 29.3328 30.3334ZM21.4395 28.3334H28.3328V25.3334C28.3328 24.4134 27.5861 23.6667 26.6661 23.6667H21.4395V28.3334Z" fill="#1C1C1C"/>
<path d="M18.2659 11.1332C17.9459 11.1332 17.5459 11.0399 17.0925 10.7732L15.9992 10.1199L14.9192 10.7599C13.8259 11.4132 13.1059 11.0266 12.8392 10.8399C12.5725 10.6532 11.9992 10.0666 12.2792 8.8399L12.5325 7.73321L11.6259 6.82655C11.0659 6.26655 10.8659 5.59988 11.0659 4.98654C11.2659 4.37321 11.8125 3.94654 12.5859 3.8132L13.7459 3.61321L14.3992 2.30657C15.1192 0.879906 16.8659 0.879906 17.5725 2.30657L18.2259 3.61321L19.3859 3.8132C20.1592 3.94654 20.7192 4.37321 20.9059 4.98654C21.1059 5.59988 20.8925 6.26655 20.3459 6.82655L19.4392 7.73321L19.6925 8.8399C19.9725 10.0799 19.3992 10.6532 19.1325 10.8532C19.0125 10.9599 18.7059 11.1332 18.2659 11.1332ZM15.9992 8.10654C16.3192 8.10654 16.6392 8.18657 16.9059 8.34657L17.6525 8.78655L17.4925 8.06654C17.3592 7.50654 17.5592 6.82655 17.9725 6.41322L18.6525 5.73321L17.8125 5.58656C17.2792 5.49323 16.7592 5.10656 16.5192 4.62656L15.9992 3.62656L15.4925 4.62656C15.2525 5.10656 14.7325 5.49323 14.1992 5.58656L13.3592 5.7199L14.0392 6.39987C14.4525 6.81321 14.6392 7.49324 14.5192 8.05324L14.3592 8.77321L15.1059 8.33322C15.3592 8.17322 15.6792 8.10654 15.9992 8.10654Z" fill="#1C1C1C"/>
</svg>
