<svg width="32" height="32" viewBox="0 0 32 32" fill="none" xmlns="http://www.w3.org/2000/svg">
<path d="M22.9062 25C20.6263 25 17.9062 24.1333 17.9062 20V12C17.9062 7.86667 20.6263 7 22.9062 7C25.1863 7 27.9062 7.86667 27.9062 12V20C27.9062 24.1333 25.1863 25 22.9062 25ZM22.9062 9C20.7463 9 19.9062 9.84 19.9062 12V20C19.9062 22.16 20.7463 23 22.9062 23C25.0663 23 25.9062 22.16 25.9062 20V12C25.9062 9.84 25.0663 9 22.9062 9Z" fill="#1C1C1C"/>
<path d="M9.09375 25C6.81375 25 4.09375 24.1333 4.09375 20V12C4.09375 7.86667 6.81375 7 9.09375 7C11.3738 7 14.0938 7.86667 14.0938 12V20C14.0938 24.1333 11.3738 25 9.09375 25ZM9.09375 9C6.93375 9 6.09375 9.84 6.09375 12V20C6.09375 22.16 6.93375 23 9.09375 23C11.2538 23 12.0938 22.16 12.0938 20V12C12.0938 9.84 11.2538 9 9.09375 9Z" fill="#1C1C1C"/>
<path d="M18.9071 17H13.0938C12.5471 17 12.0938 16.5467 12.0938 16C12.0938 15.4533 12.5471 15 13.0938 15H18.9071C19.4538 15 19.9071 15.4533 19.9071 16C19.9071 16.5467 19.4671 17 18.9071 17Z" fill="#1C1C1C"/>
<path d="M30 20.3334C29.4533 20.3334 29 19.8801 29 19.3334V12.6667C29 12.1201 29.4533 11.6667 30 11.6667C30.5467 11.6667 31 12.1201 31 12.6667V19.3334C31 19.8801 30.5467 20.3334 30 20.3334Z" fill="#1C1C1C"/>
<path d="M2 20.3334C1.45333 20.3334 1 19.8801 1 19.3334V12.6667C1 12.1201 1.45333 11.6667 2 11.6667C2.54667 11.6667 3 12.1201 3 12.6667V19.3334C3 19.8801 2.54667 20.3334 2 20.3334Z" fill="#1C1C1C"/>
</svg>
