<svg width="1080" height="420" viewBox="0 0 1080 420" fill="none" xmlns="http://www.w3.org/2000/svg">
<g clip-path="url(#clip0_563_10801)">
<rect width="1080" height="420" rx="24" fill="#F4FFA6"/>
<path opacity="0.12" d="M441.71 546C227.044 493.629 -155.697 341.538 30.6698 152.141C217.037 -37.2559 510.396 315.352 633.779 515.331C556.126 331.494 421.373 -48.5552 503.581 -98.0567C606.341 -159.933 822.621 281.813 935.603 278.585C1025.99 276.002 1146.86 65.1546 1196 -39.9463" stroke="#FF7D33" stroke-width="12"/>
<path opacity="0.12" d="M179.099 249.28C186.223 244.804 195.622 248.858 197.255 257.111L219.393 368.987C221.268 378.467 211.741 386.163 202.868 382.335L84.1631 331.131C75.2896 327.303 74.3493 315.092 82.5321 309.951L179.099 249.28Z" fill="#FF7D33"/>
<rect opacity="0.12" x="860.477" y="33" width="163.905" height="111.614" rx="12" transform="rotate(16.9159 860.477 33)" fill="#FF7D33"/>
</g>
<defs>
<clipPath id="clip0_563_10801">
<rect width="1080" height="420" rx="24" fill="white"/>
</clipPath>
</defs>
</svg>
