<svg width="1080" height="420" viewBox="0 0 1080 420" fill="none" xmlns="http://www.w3.org/2000/svg">
<g clip-path="url(#clip0_563_10691)">
<g clip-path="url(#clip1_563_10691)">
<rect width="1080" height="420" rx="24" fill="#D7DCFC"/>
<path opacity="0.12" d="M172.723 251.554L248.652 272.494L252.2 351.177L178.465 378.866L129.345 317.296L172.723 251.554Z" fill="#304FC9"/>
<path opacity="0.12" d="M112.857 430.618C59.2756 318.381 -18.2549 91.3929 100.272 81.3316C248.43 68.755 358.262 418.041 500.128 430.618C641.994 443.194 592.747 141.55 786.148 107.056C930.383 81.3316 1002.38 348.298 1182 352.3" stroke="#304FC9" stroke-width="12"/>
<path opacity="0.12" d="M1048 -57L1060.11 -12.2053L1093 -44.9423L1081.09 -0.092598L1125.94 -12L1093.21 20.8873L1138 33L1093.21 45.1127L1125.94 78L1081.09 66.0926L1093 110.942L1060.11 78.2053L1048 123L1035.89 78.2053L1003 110.942L1014.91 66.0926L970.058 78L1002.79 45.1127L958 33L1002.79 20.8873L970.058 -12L1014.91 -0.092598L1003 -44.9423L1035.89 -12.2053L1048 -57Z" fill="#304FC9"/>
</g>
</g>
<defs>
<clipPath id="clip0_563_10691">
<rect width="1080" height="420" fill="white"/>
</clipPath>
<clipPath id="clip1_563_10691">
<rect width="1080" height="420" rx="24" fill="white"/>
</clipPath>
</defs>
</svg>
