<svg width="1080" height="420" viewBox="0 0 1080 420" fill="none" xmlns="http://www.w3.org/2000/svg">
<g clip-path="url(#clip0_563_10812)">
<rect width="1080" height="420" rx="24" fill="#D7DCFC"/>
<path opacity="0.2" d="M-129 135.428C-116.377 122.809 293.337 -149.03 456.907 -94.8724C620.477 -40.715 -103.229 317.881 2.48722 423.567C108.203 529.253 658.871 -92.2434 860.836 -31.2506C1062.8 29.7423 524.754 372.564 684.643 449.331C812.554 510.745 1100.84 334.005 1229 237.959" stroke="#304FC9" stroke-width="12"/>
<path opacity="0.12" d="M981.915 45.4139L978.311 70.5642L1000.53 82.8938L975.375 79.2899L963.046 101.505L966.65 76.3546L944.435 64.025L969.585 67.6289L981.915 45.4139Z" fill="#304FC9"/>
<path opacity="0.12" d="M457.5 291.298L454.267 316.499L476.662 328.5L451.461 325.267L439.461 347.661L442.693 322.461L420.299 310.46L445.499 313.693L457.5 291.298Z" fill="#304FC9"/>
<path opacity="0.12" d="M1011.01 34.2788L1015.73 49.1307L1031.29 50.0077L1016.44 54.7333L1015.57 70.2942L1010.84 55.4423L995.279 54.5653L1010.13 49.8397L1011.01 34.2788Z" fill="#304FC9"/>
<path opacity="0.12" d="M399.008 328.279L403.733 343.131L419.294 344.008L404.442 348.733L403.565 364.294L398.84 349.442L383.279 348.565L398.131 343.84L399.008 328.279Z" fill="#304FC9"/>
<path opacity="0.12" d="M1036.61 22.2001L1036.03 29.4758L1042.62 32.6109L1035.35 32.0304L1032.21 38.6217L1032.79 31.3459L1026.2 28.2108L1033.48 28.7913L1036.61 22.2001Z" fill="#304FC9"/>
<path opacity="0.12" d="M459.611 359.2L459.031 366.476L465.622 369.611L458.346 369.03L455.211 375.622L455.792 368.346L449.2 365.211L456.476 365.791L459.611 359.2Z" fill="#304FC9"/>
</g>
<defs>
<clipPath id="clip0_563_10812">
<rect width="1080" height="420" rx="24" fill="white"/>
</clipPath>
</defs>
</svg>
