<svg width="32" height="32" viewBox="0 0 32 32" fill="none" xmlns="http://www.w3.org/2000/svg">
<path d="M24.1333 23.6667H7.86666C4.77333 23.6667 3 21.8934 3 18.8001V2.66675C3 2.12008 3.45333 1.66675 4 1.66675H28C28.5467 1.66675 29 2.12008 29 2.66675V18.8001C29 21.8934 27.2267 23.6667 24.1333 23.6667ZM5 3.66675V18.8001C5 20.7868 5.87999 21.6667 7.86666 21.6667H24.12C26.1067 21.6667 26.9867 20.7868 26.9867 18.8001V3.66675H5Z" fill="#304FC9"/>
<path d="M29.3334 3.66675H2.66675C2.12008 3.66675 1.66675 3.21341 1.66675 2.66675C1.66675 2.12008 2.12008 1.66675 2.66675 1.66675H29.3334C29.8801 1.66675 30.3334 2.12008 30.3334 2.66675C30.3334 3.21341 29.8801 3.66675 29.3334 3.66675Z" fill="#304FC9"/>
<path d="M10.667 30.3334C10.2937 30.3334 9.947 30.1334 9.77367 29.7867C9.52034 29.2934 9.72037 28.6934 10.227 28.4401L15.0004 26.0534V22.6667C15.0004 22.1201 15.4537 21.6667 16.0004 21.6667C16.547 21.6667 17.0004 22.1201 17.0004 22.6667V26.6667C17.0004 27.0401 16.787 27.3868 16.4403 27.5601L11.107 30.2268C10.9737 30.2934 10.8137 30.3334 10.667 30.3334Z" fill="#304FC9"/>
<path d="M21.3332 30.3334C21.1865 30.3334 21.0265 30.2934 20.8932 30.2267L15.5599 27.5601C15.0665 27.3067 14.8665 26.7067 15.1065 26.2134C15.3598 25.7201 15.9598 25.5201 16.4532 25.7601L21.7865 28.4267C22.2798 28.6801 22.4798 29.28 22.2398 29.7734C22.0532 30.1334 21.6932 30.3334 21.3332 30.3334Z" fill="#304FC9"/>
<path d="M9.99982 15.6667C9.71982 15.6667 9.4265 15.5467 9.2265 15.3067C8.8665 14.88 8.93314 14.2533 9.35981 13.8933L13.5598 10.3867C13.9465 10.0667 14.4398 9.93333 14.9065 10.0133C15.3865 10.0933 15.7998 10.3866 16.0532 10.8133L17.4531 13.1466L21.3598 9.89334C21.7865 9.54667 22.4131 9.59997 22.7731 10.0266C23.1331 10.4533 23.0665 11.08 22.6398 11.44L18.4398 14.9466C18.0531 15.2666 17.5598 15.4 17.0932 15.32C16.6132 15.24 16.1998 14.9467 15.9465 14.52L14.5465 12.1867L10.6398 15.44C10.4532 15.5866 10.2265 15.6667 9.99982 15.6667Z" fill="#304FC9"/>
</svg>
