<svg width="39" height="24" viewBox="0 0 39 24" fill="none" xmlns="http://www.w3.org/2000/svg">
<g clip-path="url(#clip0_204_9018)">
<path d="M37.3904 0H31.3706C26.6623 0 22.3925 1.97807 19.3531 5.14364C16.3125 1.97807 12.0439 0 7.33553 0H1.31579C0.592105 0 0 0.592105 0 1.31579V7.33553C0 16.1952 7.0011 23.4978 15.7445 23.9868C15.83 24.0044 22.8761 24.0044 22.9616 23.9868C31.705 23.4978 38.7061 16.1952 38.7061 7.33553V1.31579C38.7061 0.592105 38.114 0 37.3904 0Z" fill="#FF7D33"/>
<path d="M19.353 19.7236C17.4901 19.7236 16.2444 19.7192 15.9407 19.7148C12.8091 19.5295 9.88151 18.16 7.69401 15.8563C5.49006 13.535 4.27515 10.5087 4.27515 7.33655V4.27734H7.33436C10.7236 4.27734 13.8969 5.63699 16.2675 8.10739L19.3519 11.319L22.4363 8.10739C24.808 5.63809 27.9802 4.27734 31.3694 4.27734H34.4287V7.33655C34.4287 10.5098 33.2148 13.535 31.0098 15.8563C28.8223 18.16 25.8947 19.5295 22.7631 19.7148C22.4594 19.7192 21.2148 19.7236 19.3508 19.7236H19.353Z" fill="#FFC127"/>
</g>
<defs>
<clipPath id="clip0_204_9018">
<rect width="38.7061" height="24" fill="white"/>
</clipPath>
</defs>
</svg>
